%TF.GenerationSoftware,KiCad,Pcbnew,10.0.5*%
%TF.CreationDate,2026-09-10T02:55:08+10:00*%
%TF.ProjectId,NFC_Business_Card,4e46435f-4275-4736-996e-6573735f4361,rev?*%
%TF.SameCoordinates,Original*%
%TF.FileFunction,Legend,Bot*%
%TF.FilePolarity,Positive*%
%FSLAX46Y46*%
G04 Gerber Fmt 4.6, Leading zero omitted, Abs format (unit mm)*
G04 Created by KiCad (PCBNEW 10.0.5) date 2026-09-10 02:55:08*
%MOMM*%
%LPD*%
G01*
G04 APERTURE LIST*
%ADD10C,0.160000*%
%ADD11C,0.180000*%
%ADD12C,0.250000*%
%ADD13C,0.000000*%
G04 APERTURE END LIST*
D10*
X120599998Y-69546822D02*
X120599998Y-68346822D01*
X120599998Y-68346822D02*
X120199998Y-69203965D01*
X120199998Y-69203965D02*
X119799998Y-68346822D01*
X119799998Y-68346822D02*
X119799998Y-69546822D01*
X118771426Y-69489680D02*
X118885712Y-69546822D01*
X118885712Y-69546822D02*
X119114284Y-69546822D01*
X119114284Y-69546822D02*
X119228569Y-69489680D01*
X119228569Y-69489680D02*
X119285712Y-69375394D01*
X119285712Y-69375394D02*
X119285712Y-68918251D01*
X119285712Y-68918251D02*
X119228569Y-68803965D01*
X119228569Y-68803965D02*
X119114284Y-68746822D01*
X119114284Y-68746822D02*
X118885712Y-68746822D01*
X118885712Y-68746822D02*
X118771426Y-68803965D01*
X118771426Y-68803965D02*
X118714284Y-68918251D01*
X118714284Y-68918251D02*
X118714284Y-69032537D01*
X118714284Y-69032537D02*
X119285712Y-69146822D01*
X117685713Y-69489680D02*
X117799998Y-69546822D01*
X117799998Y-69546822D02*
X118028570Y-69546822D01*
X118028570Y-69546822D02*
X118142855Y-69489680D01*
X118142855Y-69489680D02*
X118199998Y-69432537D01*
X118199998Y-69432537D02*
X118257141Y-69318251D01*
X118257141Y-69318251D02*
X118257141Y-68975394D01*
X118257141Y-68975394D02*
X118199998Y-68861108D01*
X118199998Y-68861108D02*
X118142855Y-68803965D01*
X118142855Y-68803965D02*
X118028570Y-68746822D01*
X118028570Y-68746822D02*
X117799998Y-68746822D01*
X117799998Y-68746822D02*
X117685713Y-68803965D01*
X117171427Y-69546822D02*
X117171427Y-68346822D01*
X116657142Y-69546822D02*
X116657142Y-68918251D01*
X116657142Y-68918251D02*
X116714284Y-68803965D01*
X116714284Y-68803965D02*
X116828570Y-68746822D01*
X116828570Y-68746822D02*
X116999999Y-68746822D01*
X116999999Y-68746822D02*
X117114284Y-68803965D01*
X117114284Y-68803965D02*
X117171427Y-68861108D01*
X115571428Y-69546822D02*
X115571428Y-68918251D01*
X115571428Y-68918251D02*
X115628570Y-68803965D01*
X115628570Y-68803965D02*
X115742856Y-68746822D01*
X115742856Y-68746822D02*
X115971428Y-68746822D01*
X115971428Y-68746822D02*
X116085713Y-68803965D01*
X115571428Y-69489680D02*
X115685713Y-69546822D01*
X115685713Y-69546822D02*
X115971428Y-69546822D01*
X115971428Y-69546822D02*
X116085713Y-69489680D01*
X116085713Y-69489680D02*
X116142856Y-69375394D01*
X116142856Y-69375394D02*
X116142856Y-69261108D01*
X116142856Y-69261108D02*
X116085713Y-69146822D01*
X116085713Y-69146822D02*
X115971428Y-69089680D01*
X115971428Y-69089680D02*
X115685713Y-69089680D01*
X115685713Y-69089680D02*
X115571428Y-69032537D01*
X115171428Y-68746822D02*
X114714285Y-68746822D01*
X114999999Y-68346822D02*
X114999999Y-69375394D01*
X114999999Y-69375394D02*
X114942856Y-69489680D01*
X114942856Y-69489680D02*
X114828571Y-69546822D01*
X114828571Y-69546822D02*
X114714285Y-69546822D01*
X114314285Y-69546822D02*
X114314285Y-68746822D01*
X114314285Y-68975394D02*
X114257142Y-68861108D01*
X114257142Y-68861108D02*
X114200000Y-68803965D01*
X114200000Y-68803965D02*
X114085714Y-68746822D01*
X114085714Y-68746822D02*
X113971428Y-68746822D01*
X113400000Y-69546822D02*
X113514285Y-69489680D01*
X113514285Y-69489680D02*
X113571428Y-69432537D01*
X113571428Y-69432537D02*
X113628571Y-69318251D01*
X113628571Y-69318251D02*
X113628571Y-68975394D01*
X113628571Y-68975394D02*
X113571428Y-68861108D01*
X113571428Y-68861108D02*
X113514285Y-68803965D01*
X113514285Y-68803965D02*
X113400000Y-68746822D01*
X113400000Y-68746822D02*
X113228571Y-68746822D01*
X113228571Y-68746822D02*
X113114285Y-68803965D01*
X113114285Y-68803965D02*
X113057143Y-68861108D01*
X113057143Y-68861108D02*
X113000000Y-68975394D01*
X113000000Y-68975394D02*
X113000000Y-69318251D01*
X113000000Y-69318251D02*
X113057143Y-69432537D01*
X113057143Y-69432537D02*
X113114285Y-69489680D01*
X113114285Y-69489680D02*
X113228571Y-69546822D01*
X113228571Y-69546822D02*
X113400000Y-69546822D01*
X112485714Y-68746822D02*
X112485714Y-69546822D01*
X112485714Y-68861108D02*
X112428571Y-68803965D01*
X112428571Y-68803965D02*
X112314286Y-68746822D01*
X112314286Y-68746822D02*
X112142857Y-68746822D01*
X112142857Y-68746822D02*
X112028571Y-68803965D01*
X112028571Y-68803965D02*
X111971429Y-68918251D01*
X111971429Y-68918251D02*
X111971429Y-69546822D01*
X111400000Y-69546822D02*
X111400000Y-68746822D01*
X111400000Y-68346822D02*
X111457143Y-68403965D01*
X111457143Y-68403965D02*
X111400000Y-68461108D01*
X111400000Y-68461108D02*
X111342857Y-68403965D01*
X111342857Y-68403965D02*
X111400000Y-68346822D01*
X111400000Y-68346822D02*
X111400000Y-68461108D01*
X110314286Y-69489680D02*
X110428571Y-69546822D01*
X110428571Y-69546822D02*
X110657143Y-69546822D01*
X110657143Y-69546822D02*
X110771428Y-69489680D01*
X110771428Y-69489680D02*
X110828571Y-69432537D01*
X110828571Y-69432537D02*
X110885714Y-69318251D01*
X110885714Y-69318251D02*
X110885714Y-68975394D01*
X110885714Y-68975394D02*
X110828571Y-68861108D01*
X110828571Y-68861108D02*
X110771428Y-68803965D01*
X110771428Y-68803965D02*
X110657143Y-68746822D01*
X110657143Y-68746822D02*
X110428571Y-68746822D01*
X110428571Y-68746822D02*
X110314286Y-68803965D01*
X109857143Y-69489680D02*
X109742857Y-69546822D01*
X109742857Y-69546822D02*
X109514286Y-69546822D01*
X109514286Y-69546822D02*
X109400000Y-69489680D01*
X109400000Y-69489680D02*
X109342857Y-69375394D01*
X109342857Y-69375394D02*
X109342857Y-69318251D01*
X109342857Y-69318251D02*
X109400000Y-69203965D01*
X109400000Y-69203965D02*
X109514286Y-69146822D01*
X109514286Y-69146822D02*
X109685715Y-69146822D01*
X109685715Y-69146822D02*
X109800000Y-69089680D01*
X109800000Y-69089680D02*
X109857143Y-68975394D01*
X109857143Y-68975394D02*
X109857143Y-68918251D01*
X109857143Y-68918251D02*
X109800000Y-68803965D01*
X109800000Y-68803965D02*
X109685715Y-68746822D01*
X109685715Y-68746822D02*
X109514286Y-68746822D01*
X109514286Y-68746822D02*
X109400000Y-68803965D01*
X120571427Y-77432537D02*
X120628570Y-77489680D01*
X120628570Y-77489680D02*
X120799998Y-77546822D01*
X120799998Y-77546822D02*
X120914284Y-77546822D01*
X120914284Y-77546822D02*
X121085713Y-77489680D01*
X121085713Y-77489680D02*
X121199998Y-77375394D01*
X121199998Y-77375394D02*
X121257141Y-77261108D01*
X121257141Y-77261108D02*
X121314284Y-77032537D01*
X121314284Y-77032537D02*
X121314284Y-76861108D01*
X121314284Y-76861108D02*
X121257141Y-76632537D01*
X121257141Y-76632537D02*
X121199998Y-76518251D01*
X121199998Y-76518251D02*
X121085713Y-76403965D01*
X121085713Y-76403965D02*
X120914284Y-76346822D01*
X120914284Y-76346822D02*
X120799998Y-76346822D01*
X120799998Y-76346822D02*
X120628570Y-76403965D01*
X120628570Y-76403965D02*
X120571427Y-76461108D01*
X120171427Y-76746822D02*
X119885713Y-77546822D01*
X119599998Y-76746822D02*
X119885713Y-77546822D01*
X119885713Y-77546822D02*
X119999998Y-77832537D01*
X119999998Y-77832537D02*
X120057141Y-77889680D01*
X120057141Y-77889680D02*
X120171427Y-77946822D01*
X119142855Y-77546822D02*
X119142855Y-76346822D01*
X119142855Y-76803965D02*
X119028570Y-76746822D01*
X119028570Y-76746822D02*
X118799998Y-76746822D01*
X118799998Y-76746822D02*
X118685712Y-76803965D01*
X118685712Y-76803965D02*
X118628570Y-76861108D01*
X118628570Y-76861108D02*
X118571427Y-76975394D01*
X118571427Y-76975394D02*
X118571427Y-77318251D01*
X118571427Y-77318251D02*
X118628570Y-77432537D01*
X118628570Y-77432537D02*
X118685712Y-77489680D01*
X118685712Y-77489680D02*
X118799998Y-77546822D01*
X118799998Y-77546822D02*
X119028570Y-77546822D01*
X119028570Y-77546822D02*
X119142855Y-77489680D01*
X117599998Y-77489680D02*
X117714284Y-77546822D01*
X117714284Y-77546822D02*
X117942856Y-77546822D01*
X117942856Y-77546822D02*
X118057141Y-77489680D01*
X118057141Y-77489680D02*
X118114284Y-77375394D01*
X118114284Y-77375394D02*
X118114284Y-76918251D01*
X118114284Y-76918251D02*
X118057141Y-76803965D01*
X118057141Y-76803965D02*
X117942856Y-76746822D01*
X117942856Y-76746822D02*
X117714284Y-76746822D01*
X117714284Y-76746822D02*
X117599998Y-76803965D01*
X117599998Y-76803965D02*
X117542856Y-76918251D01*
X117542856Y-76918251D02*
X117542856Y-77032537D01*
X117542856Y-77032537D02*
X118114284Y-77146822D01*
X117028570Y-77546822D02*
X117028570Y-76746822D01*
X117028570Y-76975394D02*
X116971427Y-76861108D01*
X116971427Y-76861108D02*
X116914285Y-76803965D01*
X116914285Y-76803965D02*
X116799999Y-76746822D01*
X116799999Y-76746822D02*
X116685713Y-76746822D01*
X115428570Y-77489680D02*
X115257142Y-77546822D01*
X115257142Y-77546822D02*
X114971427Y-77546822D01*
X114971427Y-77546822D02*
X114857142Y-77489680D01*
X114857142Y-77489680D02*
X114799999Y-77432537D01*
X114799999Y-77432537D02*
X114742856Y-77318251D01*
X114742856Y-77318251D02*
X114742856Y-77203965D01*
X114742856Y-77203965D02*
X114799999Y-77089680D01*
X114799999Y-77089680D02*
X114857142Y-77032537D01*
X114857142Y-77032537D02*
X114971427Y-76975394D01*
X114971427Y-76975394D02*
X115199999Y-76918251D01*
X115199999Y-76918251D02*
X115314284Y-76861108D01*
X115314284Y-76861108D02*
X115371427Y-76803965D01*
X115371427Y-76803965D02*
X115428570Y-76689680D01*
X115428570Y-76689680D02*
X115428570Y-76575394D01*
X115428570Y-76575394D02*
X115371427Y-76461108D01*
X115371427Y-76461108D02*
X115314284Y-76403965D01*
X115314284Y-76403965D02*
X115199999Y-76346822D01*
X115199999Y-76346822D02*
X114914284Y-76346822D01*
X114914284Y-76346822D02*
X114742856Y-76403965D01*
X113771427Y-77489680D02*
X113885713Y-77546822D01*
X113885713Y-77546822D02*
X114114285Y-77546822D01*
X114114285Y-77546822D02*
X114228570Y-77489680D01*
X114228570Y-77489680D02*
X114285713Y-77375394D01*
X114285713Y-77375394D02*
X114285713Y-76918251D01*
X114285713Y-76918251D02*
X114228570Y-76803965D01*
X114228570Y-76803965D02*
X114114285Y-76746822D01*
X114114285Y-76746822D02*
X113885713Y-76746822D01*
X113885713Y-76746822D02*
X113771427Y-76803965D01*
X113771427Y-76803965D02*
X113714285Y-76918251D01*
X113714285Y-76918251D02*
X113714285Y-77032537D01*
X113714285Y-77032537D02*
X114285713Y-77146822D01*
X112685714Y-77489680D02*
X112799999Y-77546822D01*
X112799999Y-77546822D02*
X113028571Y-77546822D01*
X113028571Y-77546822D02*
X113142856Y-77489680D01*
X113142856Y-77489680D02*
X113199999Y-77432537D01*
X113199999Y-77432537D02*
X113257142Y-77318251D01*
X113257142Y-77318251D02*
X113257142Y-76975394D01*
X113257142Y-76975394D02*
X113199999Y-76861108D01*
X113199999Y-76861108D02*
X113142856Y-76803965D01*
X113142856Y-76803965D02*
X113028571Y-76746822D01*
X113028571Y-76746822D02*
X112799999Y-76746822D01*
X112799999Y-76746822D02*
X112685714Y-76803965D01*
X111657143Y-76746822D02*
X111657143Y-77546822D01*
X112171428Y-76746822D02*
X112171428Y-77375394D01*
X112171428Y-77375394D02*
X112114285Y-77489680D01*
X112114285Y-77489680D02*
X112000000Y-77546822D01*
X112000000Y-77546822D02*
X111828571Y-77546822D01*
X111828571Y-77546822D02*
X111714285Y-77489680D01*
X111714285Y-77489680D02*
X111657143Y-77432537D01*
X111085714Y-77546822D02*
X111085714Y-76746822D01*
X111085714Y-76975394D02*
X111028571Y-76861108D01*
X111028571Y-76861108D02*
X110971429Y-76803965D01*
X110971429Y-76803965D02*
X110857143Y-76746822D01*
X110857143Y-76746822D02*
X110742857Y-76746822D01*
X110342857Y-77546822D02*
X110342857Y-76746822D01*
X110342857Y-76346822D02*
X110400000Y-76403965D01*
X110400000Y-76403965D02*
X110342857Y-76461108D01*
X110342857Y-76461108D02*
X110285714Y-76403965D01*
X110285714Y-76403965D02*
X110342857Y-76346822D01*
X110342857Y-76346822D02*
X110342857Y-76461108D01*
X109942857Y-76746822D02*
X109485714Y-76746822D01*
X109771428Y-76346822D02*
X109771428Y-77375394D01*
X109771428Y-77375394D02*
X109714285Y-77489680D01*
X109714285Y-77489680D02*
X109600000Y-77546822D01*
X109600000Y-77546822D02*
X109485714Y-77546822D01*
X109200000Y-76746822D02*
X108914286Y-77546822D01*
X108628571Y-76746822D02*
X108914286Y-77546822D01*
X108914286Y-77546822D02*
X109028571Y-77832537D01*
X109028571Y-77832537D02*
X109085714Y-77889680D01*
X109085714Y-77889680D02*
X109200000Y-77946822D01*
X122114284Y-87546822D02*
X122114284Y-86746822D01*
X122114284Y-86975394D02*
X122057141Y-86861108D01*
X122057141Y-86861108D02*
X121999999Y-86803965D01*
X121999999Y-86803965D02*
X121885713Y-86746822D01*
X121885713Y-86746822D02*
X121771427Y-86746822D01*
X121485713Y-86746822D02*
X121199999Y-87546822D01*
X120914284Y-86746822D02*
X121199999Y-87546822D01*
X121199999Y-87546822D02*
X121314284Y-87832537D01*
X121314284Y-87832537D02*
X121371427Y-87889680D01*
X121371427Y-87889680D02*
X121485713Y-87946822D01*
X119942856Y-87546822D02*
X119942856Y-86918251D01*
X119942856Y-86918251D02*
X119999998Y-86803965D01*
X119999998Y-86803965D02*
X120114284Y-86746822D01*
X120114284Y-86746822D02*
X120342856Y-86746822D01*
X120342856Y-86746822D02*
X120457141Y-86803965D01*
X119942856Y-87489680D02*
X120057141Y-87546822D01*
X120057141Y-87546822D02*
X120342856Y-87546822D01*
X120342856Y-87546822D02*
X120457141Y-87489680D01*
X120457141Y-87489680D02*
X120514284Y-87375394D01*
X120514284Y-87375394D02*
X120514284Y-87261108D01*
X120514284Y-87261108D02*
X120457141Y-87146822D01*
X120457141Y-87146822D02*
X120342856Y-87089680D01*
X120342856Y-87089680D02*
X120057141Y-87089680D01*
X120057141Y-87089680D02*
X119942856Y-87032537D01*
X119371427Y-86746822D02*
X119371427Y-87546822D01*
X119371427Y-86861108D02*
X119314284Y-86803965D01*
X119314284Y-86803965D02*
X119199999Y-86746822D01*
X119199999Y-86746822D02*
X119028570Y-86746822D01*
X119028570Y-86746822D02*
X118914284Y-86803965D01*
X118914284Y-86803965D02*
X118857142Y-86918251D01*
X118857142Y-86918251D02*
X118857142Y-87546822D01*
X118285713Y-87432537D02*
X118228570Y-87489680D01*
X118228570Y-87489680D02*
X118285713Y-87546822D01*
X118285713Y-87546822D02*
X118342856Y-87489680D01*
X118342856Y-87489680D02*
X118285713Y-87432537D01*
X118285713Y-87432537D02*
X118285713Y-87546822D01*
X117828570Y-86746822D02*
X117542856Y-87546822D01*
X117257141Y-86746822D02*
X117542856Y-87546822D01*
X117542856Y-87546822D02*
X117657141Y-87832537D01*
X117657141Y-87832537D02*
X117714284Y-87889680D01*
X117714284Y-87889680D02*
X117828570Y-87946822D01*
X116342855Y-87489680D02*
X116457141Y-87546822D01*
X116457141Y-87546822D02*
X116685713Y-87546822D01*
X116685713Y-87546822D02*
X116799998Y-87489680D01*
X116799998Y-87489680D02*
X116857141Y-87375394D01*
X116857141Y-87375394D02*
X116857141Y-86918251D01*
X116857141Y-86918251D02*
X116799998Y-86803965D01*
X116799998Y-86803965D02*
X116685713Y-86746822D01*
X116685713Y-86746822D02*
X116457141Y-86746822D01*
X116457141Y-86746822D02*
X116342855Y-86803965D01*
X116342855Y-86803965D02*
X116285713Y-86918251D01*
X116285713Y-86918251D02*
X116285713Y-87032537D01*
X116285713Y-87032537D02*
X116857141Y-87146822D01*
X115771427Y-86746822D02*
X115771427Y-87546822D01*
X115771427Y-86861108D02*
X115714284Y-86803965D01*
X115714284Y-86803965D02*
X115599999Y-86746822D01*
X115599999Y-86746822D02*
X115428570Y-86746822D01*
X115428570Y-86746822D02*
X115314284Y-86803965D01*
X115314284Y-86803965D02*
X115257142Y-86918251D01*
X115257142Y-86918251D02*
X115257142Y-87546822D01*
X114742856Y-87489680D02*
X114628570Y-87546822D01*
X114628570Y-87546822D02*
X114399999Y-87546822D01*
X114399999Y-87546822D02*
X114285713Y-87489680D01*
X114285713Y-87489680D02*
X114228570Y-87375394D01*
X114228570Y-87375394D02*
X114228570Y-87318251D01*
X114228570Y-87318251D02*
X114285713Y-87203965D01*
X114285713Y-87203965D02*
X114399999Y-87146822D01*
X114399999Y-87146822D02*
X114571428Y-87146822D01*
X114571428Y-87146822D02*
X114685713Y-87089680D01*
X114685713Y-87089680D02*
X114742856Y-86975394D01*
X114742856Y-86975394D02*
X114742856Y-86918251D01*
X114742856Y-86918251D02*
X114685713Y-86803965D01*
X114685713Y-86803965D02*
X114571428Y-86746822D01*
X114571428Y-86746822D02*
X114399999Y-86746822D01*
X114399999Y-86746822D02*
X114285713Y-86803965D01*
X113199999Y-87489680D02*
X113314284Y-87546822D01*
X113314284Y-87546822D02*
X113542856Y-87546822D01*
X113542856Y-87546822D02*
X113657141Y-87489680D01*
X113657141Y-87489680D02*
X113714284Y-87432537D01*
X113714284Y-87432537D02*
X113771427Y-87318251D01*
X113771427Y-87318251D02*
X113771427Y-86975394D01*
X113771427Y-86975394D02*
X113714284Y-86861108D01*
X113714284Y-86861108D02*
X113657141Y-86803965D01*
X113657141Y-86803965D02*
X113542856Y-86746822D01*
X113542856Y-86746822D02*
X113314284Y-86746822D01*
X113314284Y-86746822D02*
X113199999Y-86803965D01*
X112685713Y-87546822D02*
X112685713Y-86346822D01*
X112171428Y-87546822D02*
X112171428Y-86918251D01*
X112171428Y-86918251D02*
X112228570Y-86803965D01*
X112228570Y-86803965D02*
X112342856Y-86746822D01*
X112342856Y-86746822D02*
X112514285Y-86746822D01*
X112514285Y-86746822D02*
X112628570Y-86803965D01*
X112628570Y-86803965D02*
X112685713Y-86861108D01*
X111599999Y-87432537D02*
X111542856Y-87489680D01*
X111542856Y-87489680D02*
X111599999Y-87546822D01*
X111599999Y-87546822D02*
X111657142Y-87489680D01*
X111657142Y-87489680D02*
X111599999Y-87432537D01*
X111599999Y-87432537D02*
X111599999Y-87546822D01*
X110514285Y-87489680D02*
X110628570Y-87546822D01*
X110628570Y-87546822D02*
X110857142Y-87546822D01*
X110857142Y-87546822D02*
X110971427Y-87489680D01*
X110971427Y-87489680D02*
X111028570Y-87432537D01*
X111028570Y-87432537D02*
X111085713Y-87318251D01*
X111085713Y-87318251D02*
X111085713Y-86975394D01*
X111085713Y-86975394D02*
X111028570Y-86861108D01*
X111028570Y-86861108D02*
X110971427Y-86803965D01*
X110971427Y-86803965D02*
X110857142Y-86746822D01*
X110857142Y-86746822D02*
X110628570Y-86746822D01*
X110628570Y-86746822D02*
X110514285Y-86803965D01*
X109828571Y-87546822D02*
X109942856Y-87489680D01*
X109942856Y-87489680D02*
X109999999Y-87432537D01*
X109999999Y-87432537D02*
X110057142Y-87318251D01*
X110057142Y-87318251D02*
X110057142Y-86975394D01*
X110057142Y-86975394D02*
X109999999Y-86861108D01*
X109999999Y-86861108D02*
X109942856Y-86803965D01*
X109942856Y-86803965D02*
X109828571Y-86746822D01*
X109828571Y-86746822D02*
X109657142Y-86746822D01*
X109657142Y-86746822D02*
X109542856Y-86803965D01*
X109542856Y-86803965D02*
X109485714Y-86861108D01*
X109485714Y-86861108D02*
X109428571Y-86975394D01*
X109428571Y-86975394D02*
X109428571Y-87318251D01*
X109428571Y-87318251D02*
X109485714Y-87432537D01*
X109485714Y-87432537D02*
X109542856Y-87489680D01*
X109542856Y-87489680D02*
X109657142Y-87546822D01*
X109657142Y-87546822D02*
X109828571Y-87546822D01*
X108914285Y-87546822D02*
X108914285Y-86746822D01*
X108914285Y-86861108D02*
X108857142Y-86803965D01*
X108857142Y-86803965D02*
X108742857Y-86746822D01*
X108742857Y-86746822D02*
X108571428Y-86746822D01*
X108571428Y-86746822D02*
X108457142Y-86803965D01*
X108457142Y-86803965D02*
X108400000Y-86918251D01*
X108400000Y-86918251D02*
X108400000Y-87546822D01*
X108400000Y-86918251D02*
X108342857Y-86803965D01*
X108342857Y-86803965D02*
X108228571Y-86746822D01*
X108228571Y-86746822D02*
X108057142Y-86746822D01*
X108057142Y-86746822D02*
X107942857Y-86803965D01*
X107942857Y-86803965D02*
X107885714Y-86918251D01*
X107885714Y-86918251D02*
X107885714Y-87546822D01*
X122599998Y-91546822D02*
X122599998Y-90746822D01*
X122599998Y-90975394D02*
X122542855Y-90861108D01*
X122542855Y-90861108D02*
X122485713Y-90803965D01*
X122485713Y-90803965D02*
X122371427Y-90746822D01*
X122371427Y-90746822D02*
X122257141Y-90746822D01*
X121971427Y-90746822D02*
X121685713Y-91546822D01*
X121399998Y-90746822D02*
X121685713Y-91546822D01*
X121685713Y-91546822D02*
X121799998Y-91832537D01*
X121799998Y-91832537D02*
X121857141Y-91889680D01*
X121857141Y-91889680D02*
X121971427Y-91946822D01*
X120428570Y-91546822D02*
X120428570Y-90918251D01*
X120428570Y-90918251D02*
X120485712Y-90803965D01*
X120485712Y-90803965D02*
X120599998Y-90746822D01*
X120599998Y-90746822D02*
X120828570Y-90746822D01*
X120828570Y-90746822D02*
X120942855Y-90803965D01*
X120428570Y-91489680D02*
X120542855Y-91546822D01*
X120542855Y-91546822D02*
X120828570Y-91546822D01*
X120828570Y-91546822D02*
X120942855Y-91489680D01*
X120942855Y-91489680D02*
X120999998Y-91375394D01*
X120999998Y-91375394D02*
X120999998Y-91261108D01*
X120999998Y-91261108D02*
X120942855Y-91146822D01*
X120942855Y-91146822D02*
X120828570Y-91089680D01*
X120828570Y-91089680D02*
X120542855Y-91089680D01*
X120542855Y-91089680D02*
X120428570Y-91032537D01*
X119857141Y-90746822D02*
X119857141Y-91546822D01*
X119857141Y-90861108D02*
X119799998Y-90803965D01*
X119799998Y-90803965D02*
X119685713Y-90746822D01*
X119685713Y-90746822D02*
X119514284Y-90746822D01*
X119514284Y-90746822D02*
X119399998Y-90803965D01*
X119399998Y-90803965D02*
X119342856Y-90918251D01*
X119342856Y-90918251D02*
X119342856Y-91546822D01*
X118028570Y-90975394D02*
X118085713Y-90918251D01*
X118085713Y-90918251D02*
X118199999Y-90861108D01*
X118199999Y-90861108D02*
X118314284Y-90861108D01*
X118314284Y-90861108D02*
X118428570Y-90918251D01*
X118428570Y-90918251D02*
X118485713Y-90975394D01*
X118485713Y-90975394D02*
X118542856Y-91089680D01*
X118542856Y-91089680D02*
X118542856Y-91203965D01*
X118542856Y-91203965D02*
X118485713Y-91318251D01*
X118485713Y-91318251D02*
X118428570Y-91375394D01*
X118428570Y-91375394D02*
X118314284Y-91432537D01*
X118314284Y-91432537D02*
X118199999Y-91432537D01*
X118199999Y-91432537D02*
X118085713Y-91375394D01*
X118085713Y-91375394D02*
X118028570Y-91318251D01*
X118028570Y-90861108D02*
X118028570Y-91318251D01*
X118028570Y-91318251D02*
X117971427Y-91375394D01*
X117971427Y-91375394D02*
X117914284Y-91375394D01*
X117914284Y-91375394D02*
X117799999Y-91318251D01*
X117799999Y-91318251D02*
X117742856Y-91203965D01*
X117742856Y-91203965D02*
X117742856Y-90918251D01*
X117742856Y-90918251D02*
X117857142Y-90746822D01*
X117857142Y-90746822D02*
X118028570Y-90632537D01*
X118028570Y-90632537D02*
X118257142Y-90575394D01*
X118257142Y-90575394D02*
X118485713Y-90632537D01*
X118485713Y-90632537D02*
X118657142Y-90746822D01*
X118657142Y-90746822D02*
X118771427Y-90918251D01*
X118771427Y-90918251D02*
X118828570Y-91146822D01*
X118828570Y-91146822D02*
X118771427Y-91375394D01*
X118771427Y-91375394D02*
X118657142Y-91546822D01*
X118657142Y-91546822D02*
X118485713Y-91661108D01*
X118485713Y-91661108D02*
X118257142Y-91718251D01*
X118257142Y-91718251D02*
X118028570Y-91661108D01*
X118028570Y-91661108D02*
X117857142Y-91546822D01*
X117342856Y-90746822D02*
X117057142Y-91546822D01*
X116771427Y-90746822D02*
X117057142Y-91546822D01*
X117057142Y-91546822D02*
X117171427Y-91832537D01*
X117171427Y-91832537D02*
X117228570Y-91889680D01*
X117228570Y-91889680D02*
X117342856Y-91946822D01*
X115857141Y-91489680D02*
X115971427Y-91546822D01*
X115971427Y-91546822D02*
X116199999Y-91546822D01*
X116199999Y-91546822D02*
X116314284Y-91489680D01*
X116314284Y-91489680D02*
X116371427Y-91375394D01*
X116371427Y-91375394D02*
X116371427Y-90918251D01*
X116371427Y-90918251D02*
X116314284Y-90803965D01*
X116314284Y-90803965D02*
X116199999Y-90746822D01*
X116199999Y-90746822D02*
X115971427Y-90746822D01*
X115971427Y-90746822D02*
X115857141Y-90803965D01*
X115857141Y-90803965D02*
X115799999Y-90918251D01*
X115799999Y-90918251D02*
X115799999Y-91032537D01*
X115799999Y-91032537D02*
X116371427Y-91146822D01*
X115285713Y-90746822D02*
X115285713Y-91546822D01*
X115285713Y-90861108D02*
X115228570Y-90803965D01*
X115228570Y-90803965D02*
X115114285Y-90746822D01*
X115114285Y-90746822D02*
X114942856Y-90746822D01*
X114942856Y-90746822D02*
X114828570Y-90803965D01*
X114828570Y-90803965D02*
X114771428Y-90918251D01*
X114771428Y-90918251D02*
X114771428Y-91546822D01*
X114257142Y-91489680D02*
X114142856Y-91546822D01*
X114142856Y-91546822D02*
X113914285Y-91546822D01*
X113914285Y-91546822D02*
X113799999Y-91489680D01*
X113799999Y-91489680D02*
X113742856Y-91375394D01*
X113742856Y-91375394D02*
X113742856Y-91318251D01*
X113742856Y-91318251D02*
X113799999Y-91203965D01*
X113799999Y-91203965D02*
X113914285Y-91146822D01*
X113914285Y-91146822D02*
X114085714Y-91146822D01*
X114085714Y-91146822D02*
X114199999Y-91089680D01*
X114199999Y-91089680D02*
X114257142Y-90975394D01*
X114257142Y-90975394D02*
X114257142Y-90918251D01*
X114257142Y-90918251D02*
X114199999Y-90803965D01*
X114199999Y-90803965D02*
X114085714Y-90746822D01*
X114085714Y-90746822D02*
X113914285Y-90746822D01*
X113914285Y-90746822D02*
X113799999Y-90803965D01*
X112714285Y-91489680D02*
X112828570Y-91546822D01*
X112828570Y-91546822D02*
X113057142Y-91546822D01*
X113057142Y-91546822D02*
X113171427Y-91489680D01*
X113171427Y-91489680D02*
X113228570Y-91432537D01*
X113228570Y-91432537D02*
X113285713Y-91318251D01*
X113285713Y-91318251D02*
X113285713Y-90975394D01*
X113285713Y-90975394D02*
X113228570Y-90861108D01*
X113228570Y-90861108D02*
X113171427Y-90803965D01*
X113171427Y-90803965D02*
X113057142Y-90746822D01*
X113057142Y-90746822D02*
X112828570Y-90746822D01*
X112828570Y-90746822D02*
X112714285Y-90803965D01*
X112199999Y-91546822D02*
X112199999Y-90346822D01*
X111685714Y-91546822D02*
X111685714Y-90918251D01*
X111685714Y-90918251D02*
X111742856Y-90803965D01*
X111742856Y-90803965D02*
X111857142Y-90746822D01*
X111857142Y-90746822D02*
X112028571Y-90746822D01*
X112028571Y-90746822D02*
X112142856Y-90803965D01*
X112142856Y-90803965D02*
X112199999Y-90861108D01*
X111114285Y-91432537D02*
X111057142Y-91489680D01*
X111057142Y-91489680D02*
X111114285Y-91546822D01*
X111114285Y-91546822D02*
X111171428Y-91489680D01*
X111171428Y-91489680D02*
X111114285Y-91432537D01*
X111114285Y-91432537D02*
X111114285Y-91546822D01*
X110028571Y-91489680D02*
X110142856Y-91546822D01*
X110142856Y-91546822D02*
X110371428Y-91546822D01*
X110371428Y-91546822D02*
X110485713Y-91489680D01*
X110485713Y-91489680D02*
X110542856Y-91432537D01*
X110542856Y-91432537D02*
X110599999Y-91318251D01*
X110599999Y-91318251D02*
X110599999Y-90975394D01*
X110599999Y-90975394D02*
X110542856Y-90861108D01*
X110542856Y-90861108D02*
X110485713Y-90803965D01*
X110485713Y-90803965D02*
X110371428Y-90746822D01*
X110371428Y-90746822D02*
X110142856Y-90746822D01*
X110142856Y-90746822D02*
X110028571Y-90803965D01*
X109342857Y-91546822D02*
X109457142Y-91489680D01*
X109457142Y-91489680D02*
X109514285Y-91432537D01*
X109514285Y-91432537D02*
X109571428Y-91318251D01*
X109571428Y-91318251D02*
X109571428Y-90975394D01*
X109571428Y-90975394D02*
X109514285Y-90861108D01*
X109514285Y-90861108D02*
X109457142Y-90803965D01*
X109457142Y-90803965D02*
X109342857Y-90746822D01*
X109342857Y-90746822D02*
X109171428Y-90746822D01*
X109171428Y-90746822D02*
X109057142Y-90803965D01*
X109057142Y-90803965D02*
X109000000Y-90861108D01*
X109000000Y-90861108D02*
X108942857Y-90975394D01*
X108942857Y-90975394D02*
X108942857Y-91318251D01*
X108942857Y-91318251D02*
X109000000Y-91432537D01*
X109000000Y-91432537D02*
X109057142Y-91489680D01*
X109057142Y-91489680D02*
X109171428Y-91546822D01*
X109171428Y-91546822D02*
X109342857Y-91546822D01*
X108428571Y-91546822D02*
X108428571Y-90746822D01*
X108428571Y-90861108D02*
X108371428Y-90803965D01*
X108371428Y-90803965D02*
X108257143Y-90746822D01*
X108257143Y-90746822D02*
X108085714Y-90746822D01*
X108085714Y-90746822D02*
X107971428Y-90803965D01*
X107971428Y-90803965D02*
X107914286Y-90918251D01*
X107914286Y-90918251D02*
X107914286Y-91546822D01*
X107914286Y-90918251D02*
X107857143Y-90803965D01*
X107857143Y-90803965D02*
X107742857Y-90746822D01*
X107742857Y-90746822D02*
X107571428Y-90746822D01*
X107571428Y-90746822D02*
X107457143Y-90803965D01*
X107457143Y-90803965D02*
X107400000Y-90918251D01*
X107400000Y-90918251D02*
X107400000Y-91546822D01*
X118628570Y-73489680D02*
X118457142Y-73546822D01*
X118457142Y-73546822D02*
X118171427Y-73546822D01*
X118171427Y-73546822D02*
X118057142Y-73489680D01*
X118057142Y-73489680D02*
X117999999Y-73432537D01*
X117999999Y-73432537D02*
X117942856Y-73318251D01*
X117942856Y-73318251D02*
X117942856Y-73203965D01*
X117942856Y-73203965D02*
X117999999Y-73089680D01*
X117999999Y-73089680D02*
X118057142Y-73032537D01*
X118057142Y-73032537D02*
X118171427Y-72975394D01*
X118171427Y-72975394D02*
X118399999Y-72918251D01*
X118399999Y-72918251D02*
X118514284Y-72861108D01*
X118514284Y-72861108D02*
X118571427Y-72803965D01*
X118571427Y-72803965D02*
X118628570Y-72689680D01*
X118628570Y-72689680D02*
X118628570Y-72575394D01*
X118628570Y-72575394D02*
X118571427Y-72461108D01*
X118571427Y-72461108D02*
X118514284Y-72403965D01*
X118514284Y-72403965D02*
X118399999Y-72346822D01*
X118399999Y-72346822D02*
X118114284Y-72346822D01*
X118114284Y-72346822D02*
X117942856Y-72403965D01*
X117257142Y-73546822D02*
X117371427Y-73489680D01*
X117371427Y-73489680D02*
X117428570Y-73432537D01*
X117428570Y-73432537D02*
X117485713Y-73318251D01*
X117485713Y-73318251D02*
X117485713Y-72975394D01*
X117485713Y-72975394D02*
X117428570Y-72861108D01*
X117428570Y-72861108D02*
X117371427Y-72803965D01*
X117371427Y-72803965D02*
X117257142Y-72746822D01*
X117257142Y-72746822D02*
X117085713Y-72746822D01*
X117085713Y-72746822D02*
X116971427Y-72803965D01*
X116971427Y-72803965D02*
X116914285Y-72861108D01*
X116914285Y-72861108D02*
X116857142Y-72975394D01*
X116857142Y-72975394D02*
X116857142Y-73318251D01*
X116857142Y-73318251D02*
X116914285Y-73432537D01*
X116914285Y-73432537D02*
X116971427Y-73489680D01*
X116971427Y-73489680D02*
X117085713Y-73546822D01*
X117085713Y-73546822D02*
X117257142Y-73546822D01*
X116514285Y-72746822D02*
X116057142Y-72746822D01*
X116342856Y-73546822D02*
X116342856Y-72518251D01*
X116342856Y-72518251D02*
X116285713Y-72403965D01*
X116285713Y-72403965D02*
X116171428Y-72346822D01*
X116171428Y-72346822D02*
X116057142Y-72346822D01*
X115828571Y-72746822D02*
X115371428Y-72746822D01*
X115657142Y-72346822D02*
X115657142Y-73375394D01*
X115657142Y-73375394D02*
X115599999Y-73489680D01*
X115599999Y-73489680D02*
X115485714Y-73546822D01*
X115485714Y-73546822D02*
X115371428Y-73546822D01*
X115085714Y-72746822D02*
X114857143Y-73546822D01*
X114857143Y-73546822D02*
X114628571Y-72975394D01*
X114628571Y-72975394D02*
X114400000Y-73546822D01*
X114400000Y-73546822D02*
X114171428Y-72746822D01*
X113200000Y-73546822D02*
X113200000Y-72918251D01*
X113200000Y-72918251D02*
X113257142Y-72803965D01*
X113257142Y-72803965D02*
X113371428Y-72746822D01*
X113371428Y-72746822D02*
X113600000Y-72746822D01*
X113600000Y-72746822D02*
X113714285Y-72803965D01*
X113200000Y-73489680D02*
X113314285Y-73546822D01*
X113314285Y-73546822D02*
X113600000Y-73546822D01*
X113600000Y-73546822D02*
X113714285Y-73489680D01*
X113714285Y-73489680D02*
X113771428Y-73375394D01*
X113771428Y-73375394D02*
X113771428Y-73261108D01*
X113771428Y-73261108D02*
X113714285Y-73146822D01*
X113714285Y-73146822D02*
X113600000Y-73089680D01*
X113600000Y-73089680D02*
X113314285Y-73089680D01*
X113314285Y-73089680D02*
X113200000Y-73032537D01*
X112628571Y-73546822D02*
X112628571Y-72746822D01*
X112628571Y-72975394D02*
X112571428Y-72861108D01*
X112571428Y-72861108D02*
X112514286Y-72803965D01*
X112514286Y-72803965D02*
X112400000Y-72746822D01*
X112400000Y-72746822D02*
X112285714Y-72746822D01*
X111428571Y-73489680D02*
X111542857Y-73546822D01*
X111542857Y-73546822D02*
X111771429Y-73546822D01*
X111771429Y-73546822D02*
X111885714Y-73489680D01*
X111885714Y-73489680D02*
X111942857Y-73375394D01*
X111942857Y-73375394D02*
X111942857Y-72918251D01*
X111942857Y-72918251D02*
X111885714Y-72803965D01*
X111885714Y-72803965D02*
X111771429Y-72746822D01*
X111771429Y-72746822D02*
X111542857Y-72746822D01*
X111542857Y-72746822D02*
X111428571Y-72803965D01*
X111428571Y-72803965D02*
X111371429Y-72918251D01*
X111371429Y-72918251D02*
X111371429Y-73032537D01*
X111371429Y-73032537D02*
X111942857Y-73146822D01*
D11*
X80757140Y-94269640D02*
X80571426Y-94331544D01*
X80571426Y-94331544D02*
X80261902Y-94331544D01*
X80261902Y-94331544D02*
X80138093Y-94269640D01*
X80138093Y-94269640D02*
X80076188Y-94207735D01*
X80076188Y-94207735D02*
X80014283Y-94083925D01*
X80014283Y-94083925D02*
X80014283Y-93960116D01*
X80014283Y-93960116D02*
X80076188Y-93836306D01*
X80076188Y-93836306D02*
X80138093Y-93774401D01*
X80138093Y-93774401D02*
X80261902Y-93712497D01*
X80261902Y-93712497D02*
X80509521Y-93650592D01*
X80509521Y-93650592D02*
X80633331Y-93588687D01*
X80633331Y-93588687D02*
X80695236Y-93526782D01*
X80695236Y-93526782D02*
X80757140Y-93402973D01*
X80757140Y-93402973D02*
X80757140Y-93279163D01*
X80757140Y-93279163D02*
X80695236Y-93155354D01*
X80695236Y-93155354D02*
X80633331Y-93093449D01*
X80633331Y-93093449D02*
X80509521Y-93031544D01*
X80509521Y-93031544D02*
X80199998Y-93031544D01*
X80199998Y-93031544D02*
X80014283Y-93093449D01*
X78899998Y-94269640D02*
X79023807Y-94331544D01*
X79023807Y-94331544D02*
X79271426Y-94331544D01*
X79271426Y-94331544D02*
X79395236Y-94269640D01*
X79395236Y-94269640D02*
X79457141Y-94207735D01*
X79457141Y-94207735D02*
X79519045Y-94083925D01*
X79519045Y-94083925D02*
X79519045Y-93712497D01*
X79519045Y-93712497D02*
X79457141Y-93588687D01*
X79457141Y-93588687D02*
X79395236Y-93526782D01*
X79395236Y-93526782D02*
X79271426Y-93464878D01*
X79271426Y-93464878D02*
X79023807Y-93464878D01*
X79023807Y-93464878D02*
X78899998Y-93526782D01*
X77785712Y-94331544D02*
X77785712Y-93650592D01*
X77785712Y-93650592D02*
X77847617Y-93526782D01*
X77847617Y-93526782D02*
X77971426Y-93464878D01*
X77971426Y-93464878D02*
X78219045Y-93464878D01*
X78219045Y-93464878D02*
X78342855Y-93526782D01*
X77785712Y-94269640D02*
X77909521Y-94331544D01*
X77909521Y-94331544D02*
X78219045Y-94331544D01*
X78219045Y-94331544D02*
X78342855Y-94269640D01*
X78342855Y-94269640D02*
X78404759Y-94145830D01*
X78404759Y-94145830D02*
X78404759Y-94022020D01*
X78404759Y-94022020D02*
X78342855Y-93898211D01*
X78342855Y-93898211D02*
X78219045Y-93836306D01*
X78219045Y-93836306D02*
X77909521Y-93836306D01*
X77909521Y-93836306D02*
X77785712Y-93774401D01*
X77166665Y-93464878D02*
X77166665Y-94331544D01*
X77166665Y-93588687D02*
X77104760Y-93526782D01*
X77104760Y-93526782D02*
X76980950Y-93464878D01*
X76980950Y-93464878D02*
X76795236Y-93464878D01*
X76795236Y-93464878D02*
X76671427Y-93526782D01*
X76671427Y-93526782D02*
X76609522Y-93650592D01*
X76609522Y-93650592D02*
X76609522Y-94331544D01*
X74814284Y-94331544D02*
X74938094Y-94269640D01*
X74938094Y-94269640D02*
X74999999Y-94207735D01*
X74999999Y-94207735D02*
X75061903Y-94083925D01*
X75061903Y-94083925D02*
X75061903Y-93712497D01*
X75061903Y-93712497D02*
X74999999Y-93588687D01*
X74999999Y-93588687D02*
X74938094Y-93526782D01*
X74938094Y-93526782D02*
X74814284Y-93464878D01*
X74814284Y-93464878D02*
X74628570Y-93464878D01*
X74628570Y-93464878D02*
X74504761Y-93526782D01*
X74504761Y-93526782D02*
X74442856Y-93588687D01*
X74442856Y-93588687D02*
X74380951Y-93712497D01*
X74380951Y-93712497D02*
X74380951Y-94083925D01*
X74380951Y-94083925D02*
X74442856Y-94207735D01*
X74442856Y-94207735D02*
X74504761Y-94269640D01*
X74504761Y-94269640D02*
X74628570Y-94331544D01*
X74628570Y-94331544D02*
X74814284Y-94331544D01*
X73823809Y-94331544D02*
X73823809Y-93464878D01*
X73823809Y-93712497D02*
X73761904Y-93588687D01*
X73761904Y-93588687D02*
X73699999Y-93526782D01*
X73699999Y-93526782D02*
X73576190Y-93464878D01*
X73576190Y-93464878D02*
X73452380Y-93464878D01*
X72214285Y-93031544D02*
X71471428Y-93031544D01*
X71842856Y-94331544D02*
X71842856Y-93031544D01*
X70480952Y-94331544D02*
X70480952Y-93650592D01*
X70480952Y-93650592D02*
X70542857Y-93526782D01*
X70542857Y-93526782D02*
X70666666Y-93464878D01*
X70666666Y-93464878D02*
X70914285Y-93464878D01*
X70914285Y-93464878D02*
X71038095Y-93526782D01*
X70480952Y-94269640D02*
X70604761Y-94331544D01*
X70604761Y-94331544D02*
X70914285Y-94331544D01*
X70914285Y-94331544D02*
X71038095Y-94269640D01*
X71038095Y-94269640D02*
X71099999Y-94145830D01*
X71099999Y-94145830D02*
X71099999Y-94022020D01*
X71099999Y-94022020D02*
X71038095Y-93898211D01*
X71038095Y-93898211D02*
X70914285Y-93836306D01*
X70914285Y-93836306D02*
X70604761Y-93836306D01*
X70604761Y-93836306D02*
X70480952Y-93774401D01*
X69861905Y-93464878D02*
X69861905Y-94764878D01*
X69861905Y-93526782D02*
X69738095Y-93464878D01*
X69738095Y-93464878D02*
X69490476Y-93464878D01*
X69490476Y-93464878D02*
X69366667Y-93526782D01*
X69366667Y-93526782D02*
X69304762Y-93588687D01*
X69304762Y-93588687D02*
X69242857Y-93712497D01*
X69242857Y-93712497D02*
X69242857Y-94083925D01*
X69242857Y-94083925D02*
X69304762Y-94207735D01*
X69304762Y-94207735D02*
X69366667Y-94269640D01*
X69366667Y-94269640D02*
X69490476Y-94331544D01*
X69490476Y-94331544D02*
X69738095Y-94331544D01*
X69738095Y-94331544D02*
X69861905Y-94269640D01*
D12*
X122904763Y-60912238D02*
X123571430Y-59959857D01*
X124047620Y-60912238D02*
X124047620Y-58912238D01*
X124047620Y-58912238D02*
X123285715Y-58912238D01*
X123285715Y-58912238D02*
X123095239Y-59007476D01*
X123095239Y-59007476D02*
X123000001Y-59102714D01*
X123000001Y-59102714D02*
X122904763Y-59293190D01*
X122904763Y-59293190D02*
X122904763Y-59578904D01*
X122904763Y-59578904D02*
X123000001Y-59769380D01*
X123000001Y-59769380D02*
X123095239Y-59864619D01*
X123095239Y-59864619D02*
X123285715Y-59959857D01*
X123285715Y-59959857D02*
X124047620Y-59959857D01*
X122238096Y-59578904D02*
X121761906Y-60912238D01*
X121285715Y-59578904D02*
X121761906Y-60912238D01*
X121761906Y-60912238D02*
X121952382Y-61388428D01*
X121952382Y-61388428D02*
X122047620Y-61483666D01*
X122047620Y-61483666D02*
X122238096Y-61578904D01*
X119666667Y-60912238D02*
X119666667Y-59864619D01*
X119666667Y-59864619D02*
X119761905Y-59674142D01*
X119761905Y-59674142D02*
X119952381Y-59578904D01*
X119952381Y-59578904D02*
X120333334Y-59578904D01*
X120333334Y-59578904D02*
X120523810Y-59674142D01*
X119666667Y-60817000D02*
X119857143Y-60912238D01*
X119857143Y-60912238D02*
X120333334Y-60912238D01*
X120333334Y-60912238D02*
X120523810Y-60817000D01*
X120523810Y-60817000D02*
X120619048Y-60626523D01*
X120619048Y-60626523D02*
X120619048Y-60436047D01*
X120619048Y-60436047D02*
X120523810Y-60245571D01*
X120523810Y-60245571D02*
X120333334Y-60150333D01*
X120333334Y-60150333D02*
X119857143Y-60150333D01*
X119857143Y-60150333D02*
X119666667Y-60055095D01*
X118714286Y-59578904D02*
X118714286Y-60912238D01*
X118714286Y-59769380D02*
X118619048Y-59674142D01*
X118619048Y-59674142D02*
X118428572Y-59578904D01*
X118428572Y-59578904D02*
X118142857Y-59578904D01*
X118142857Y-59578904D02*
X117952381Y-59674142D01*
X117952381Y-59674142D02*
X117857143Y-59864619D01*
X117857143Y-59864619D02*
X117857143Y-60912238D01*
X115000000Y-59959857D02*
X115000000Y-60912238D01*
X115666666Y-58912238D02*
X115000000Y-59959857D01*
X115000000Y-59959857D02*
X114333333Y-58912238D01*
X112904761Y-60817000D02*
X113095237Y-60912238D01*
X113095237Y-60912238D02*
X113476190Y-60912238D01*
X113476190Y-60912238D02*
X113666666Y-60817000D01*
X113666666Y-60817000D02*
X113761904Y-60626523D01*
X113761904Y-60626523D02*
X113761904Y-59864619D01*
X113761904Y-59864619D02*
X113666666Y-59674142D01*
X113666666Y-59674142D02*
X113476190Y-59578904D01*
X113476190Y-59578904D02*
X113095237Y-59578904D01*
X113095237Y-59578904D02*
X112904761Y-59674142D01*
X112904761Y-59674142D02*
X112809523Y-59864619D01*
X112809523Y-59864619D02*
X112809523Y-60055095D01*
X112809523Y-60055095D02*
X113761904Y-60245571D01*
X111952380Y-59578904D02*
X111952380Y-60912238D01*
X111952380Y-59769380D02*
X111857142Y-59674142D01*
X111857142Y-59674142D02*
X111666666Y-59578904D01*
X111666666Y-59578904D02*
X111380951Y-59578904D01*
X111380951Y-59578904D02*
X111190475Y-59674142D01*
X111190475Y-59674142D02*
X111095237Y-59864619D01*
X111095237Y-59864619D02*
X111095237Y-60912238D01*
X110238094Y-60817000D02*
X110047618Y-60912238D01*
X110047618Y-60912238D02*
X109666666Y-60912238D01*
X109666666Y-60912238D02*
X109476189Y-60817000D01*
X109476189Y-60817000D02*
X109380951Y-60626523D01*
X109380951Y-60626523D02*
X109380951Y-60531285D01*
X109380951Y-60531285D02*
X109476189Y-60340809D01*
X109476189Y-60340809D02*
X109666666Y-60245571D01*
X109666666Y-60245571D02*
X109952380Y-60245571D01*
X109952380Y-60245571D02*
X110142856Y-60150333D01*
X110142856Y-60150333D02*
X110238094Y-59959857D01*
X110238094Y-59959857D02*
X110238094Y-59864619D01*
X110238094Y-59864619D02*
X110142856Y-59674142D01*
X110142856Y-59674142D02*
X109952380Y-59578904D01*
X109952380Y-59578904D02*
X109666666Y-59578904D01*
X109666666Y-59578904D02*
X109476189Y-59674142D01*
X107666665Y-60817000D02*
X107857141Y-60912238D01*
X107857141Y-60912238D02*
X108238094Y-60912238D01*
X108238094Y-60912238D02*
X108428570Y-60817000D01*
X108428570Y-60817000D02*
X108523808Y-60721761D01*
X108523808Y-60721761D02*
X108619046Y-60531285D01*
X108619046Y-60531285D02*
X108619046Y-59959857D01*
X108619046Y-59959857D02*
X108523808Y-59769380D01*
X108523808Y-59769380D02*
X108428570Y-59674142D01*
X108428570Y-59674142D02*
X108238094Y-59578904D01*
X108238094Y-59578904D02*
X107857141Y-59578904D01*
X107857141Y-59578904D02*
X107666665Y-59674142D01*
X106809522Y-60912238D02*
X106809522Y-58912238D01*
X105952379Y-60912238D02*
X105952379Y-59864619D01*
X105952379Y-59864619D02*
X106047617Y-59674142D01*
X106047617Y-59674142D02*
X106238093Y-59578904D01*
X106238093Y-59578904D02*
X106523808Y-59578904D01*
X106523808Y-59578904D02*
X106714284Y-59674142D01*
X106714284Y-59674142D02*
X106809522Y-59769380D01*
D13*
G36*
X66379310Y-86300345D02*
G01*
X66379310Y-86990000D01*
X65000000Y-86990000D01*
X65000000Y-86300345D01*
X65689655Y-86300345D01*
X65689655Y-85610690D01*
X66379310Y-85610690D01*
X66379310Y-86300345D01*
G37*
G36*
X69827586Y-82852069D02*
G01*
X69137931Y-82852069D01*
X69137931Y-82162414D01*
X69827586Y-82162414D01*
X69827586Y-82852069D01*
G37*
G36*
X71896552Y-81472759D02*
G01*
X71896552Y-82852069D01*
X71206897Y-82852069D01*
X71206897Y-83541724D01*
X71206897Y-84231379D01*
X71206897Y-86300345D01*
X71896552Y-86300345D01*
X71896552Y-85610690D01*
X71896552Y-84921034D01*
X72586207Y-84921034D01*
X72586207Y-85610690D01*
X73275862Y-85610690D01*
X73275862Y-84921034D01*
X72586207Y-84921034D01*
X72586207Y-84231379D01*
X73275862Y-84231379D01*
X73275862Y-83541724D01*
X73965517Y-83541724D01*
X73965517Y-84231379D01*
X74655172Y-84231379D01*
X74655172Y-84921034D01*
X75344828Y-84921034D01*
X75344828Y-85610690D01*
X75344828Y-86300345D01*
X74655172Y-86300345D01*
X74655172Y-85610690D01*
X73965517Y-85610690D01*
X73965517Y-86300345D01*
X72586207Y-86300345D01*
X72586207Y-86990000D01*
X70517241Y-86990000D01*
X70517241Y-86300345D01*
X70517241Y-84231379D01*
X68448276Y-84231379D01*
X68448276Y-84921034D01*
X69137931Y-84921034D01*
X69137931Y-85610690D01*
X69827586Y-85610690D01*
X69827586Y-86300345D01*
X68448276Y-86300345D01*
X68448276Y-86990000D01*
X67068966Y-86990000D01*
X67068966Y-86300345D01*
X67758621Y-86300345D01*
X67758621Y-85610690D01*
X67068966Y-85610690D01*
X67068966Y-84921034D01*
X67758621Y-84921034D01*
X67758621Y-84231379D01*
X67758621Y-83541724D01*
X67068966Y-83541724D01*
X67068966Y-82162414D01*
X67758621Y-82162414D01*
X67758621Y-81472759D01*
X68448276Y-81472759D01*
X68448276Y-82162414D01*
X68448276Y-83541724D01*
X70517241Y-83541724D01*
X70517241Y-82852069D01*
X70517241Y-81472759D01*
X68448276Y-81472759D01*
X67758621Y-81472759D01*
X67758621Y-80783103D01*
X67068966Y-80783103D01*
X67068966Y-80093448D01*
X67758621Y-80093448D01*
X67758621Y-79403793D01*
X69137931Y-79403793D01*
X69137931Y-78714138D01*
X69137931Y-78024483D01*
X71206897Y-78024483D01*
X71206897Y-77334828D01*
X71896552Y-77334828D01*
X71896552Y-78024483D01*
X71896552Y-78714138D01*
X71206897Y-78714138D01*
X71206897Y-79403793D01*
X70517241Y-79403793D01*
X70517241Y-80093448D01*
X69137931Y-80093448D01*
X69137931Y-80783103D01*
X71206897Y-80783103D01*
X71206897Y-81472759D01*
X71896552Y-81472759D01*
G37*
G36*
X74655172Y-86990000D02*
G01*
X73965517Y-86990000D01*
X73965517Y-86300345D01*
X74655172Y-86300345D01*
X74655172Y-86990000D01*
G37*
G36*
X76034483Y-86990000D02*
G01*
X75344828Y-86990000D01*
X75344828Y-86300345D01*
X76034483Y-86300345D01*
X76034483Y-86990000D01*
G37*
G36*
X79482759Y-86990000D02*
G01*
X78793103Y-86990000D01*
X78793103Y-86300345D01*
X79482759Y-86300345D01*
X79482759Y-86990000D01*
G37*
G36*
X83620690Y-85610690D02*
G01*
X81551724Y-85610690D01*
X81551724Y-83541724D01*
X83620690Y-83541724D01*
X83620690Y-85610690D01*
G37*
G36*
X85000000Y-86300345D02*
G01*
X85000000Y-86990000D01*
X80172414Y-86990000D01*
X80172414Y-86300345D01*
X80172414Y-82852069D01*
X80862069Y-82852069D01*
X80862069Y-86300345D01*
X84310345Y-86300345D01*
X84310345Y-82852069D01*
X80862069Y-82852069D01*
X80172414Y-82852069D01*
X80172414Y-82162414D01*
X85000000Y-82162414D01*
X85000000Y-82852069D01*
X85000000Y-86300345D01*
G37*
G36*
X77413793Y-86300345D02*
G01*
X76724138Y-86300345D01*
X76724138Y-85610690D01*
X77413793Y-85610690D01*
X77413793Y-86300345D01*
G37*
G36*
X79482759Y-85610690D02*
G01*
X78793103Y-85610690D01*
X78793103Y-86300345D01*
X78103448Y-86300345D01*
X78103448Y-85610690D01*
X78103448Y-84921034D01*
X79482759Y-84921034D01*
X79482759Y-85610690D01*
G37*
G36*
X65689655Y-85610690D02*
G01*
X65000000Y-85610690D01*
X65000000Y-84921034D01*
X65689655Y-84921034D01*
X65689655Y-85610690D01*
G37*
G36*
X67068966Y-84921034D02*
G01*
X66379310Y-84921034D01*
X66379310Y-84231379D01*
X67068966Y-84231379D01*
X67068966Y-84921034D01*
G37*
G36*
X77413793Y-84921034D02*
G01*
X75344828Y-84921034D01*
X75344828Y-84231379D01*
X77413793Y-84231379D01*
X77413793Y-84921034D01*
G37*
G36*
X78103448Y-84231379D02*
G01*
X77413793Y-84231379D01*
X77413793Y-83541724D01*
X78103448Y-83541724D01*
X78103448Y-84231379D01*
G37*
G36*
X79482759Y-84231379D02*
G01*
X78793103Y-84231379D01*
X78793103Y-83541724D01*
X79482759Y-83541724D01*
X79482759Y-84231379D01*
G37*
G36*
X67068966Y-82162414D02*
G01*
X66379310Y-82162414D01*
X66379310Y-82852069D01*
X65689655Y-82852069D01*
X65689655Y-83541724D01*
X65000000Y-83541724D01*
X65000000Y-82852069D01*
X65000000Y-82162414D01*
X65000000Y-81472759D01*
X67068966Y-81472759D01*
X67068966Y-82162414D01*
G37*
G36*
X74655172Y-83541724D02*
G01*
X73965517Y-83541724D01*
X73965517Y-82852069D01*
X74655172Y-82852069D01*
X74655172Y-83541724D01*
G37*
G36*
X76724138Y-82852069D02*
G01*
X76724138Y-83541724D01*
X76034483Y-83541724D01*
X76034483Y-82852069D01*
X75344828Y-82852069D01*
X75344828Y-82162414D01*
X76724138Y-82162414D01*
X76724138Y-82852069D01*
G37*
G36*
X73275862Y-82852069D02*
G01*
X72586207Y-82852069D01*
X72586207Y-82162414D01*
X73275862Y-82162414D01*
X73275862Y-82852069D01*
G37*
G36*
X78793103Y-82852069D02*
G01*
X77413793Y-82852069D01*
X77413793Y-82162414D01*
X78793103Y-82162414D01*
X78793103Y-82852069D01*
G37*
G36*
X73965517Y-69748621D02*
G01*
X73965517Y-70438276D01*
X75344828Y-70438276D01*
X75344828Y-71127931D01*
X75344828Y-71817586D01*
X74655172Y-71817586D01*
X74655172Y-71127931D01*
X73965517Y-71127931D01*
X73965517Y-71817586D01*
X73275862Y-71817586D01*
X73275862Y-71127931D01*
X73275862Y-70438276D01*
X72586207Y-70438276D01*
X72586207Y-71127931D01*
X72586207Y-71817586D01*
X73275862Y-71817586D01*
X73275862Y-72507241D01*
X73965517Y-72507241D01*
X73965517Y-73196897D01*
X74655172Y-73196897D01*
X74655172Y-73886552D01*
X75344828Y-73886552D01*
X75344828Y-74576207D01*
X77413793Y-74576207D01*
X77413793Y-75265862D01*
X75344828Y-75265862D01*
X75344828Y-76645172D01*
X73965517Y-76645172D01*
X73965517Y-75265862D01*
X74655172Y-75265862D01*
X74655172Y-74576207D01*
X73965517Y-74576207D01*
X73965517Y-75265862D01*
X73275862Y-75265862D01*
X73275862Y-78024483D01*
X73965517Y-78024483D01*
X73965517Y-78714138D01*
X74655172Y-78714138D01*
X74655172Y-79403793D01*
X75344828Y-79403793D01*
X75344828Y-78714138D01*
X77413793Y-78714138D01*
X77413793Y-78024483D01*
X76034483Y-78024483D01*
X76034483Y-77334828D01*
X75344828Y-77334828D01*
X75344828Y-76645172D01*
X76724138Y-76645172D01*
X76724138Y-77334828D01*
X77413793Y-77334828D01*
X77413793Y-76645172D01*
X77413793Y-75955517D01*
X78103448Y-75955517D01*
X78103448Y-75265862D01*
X78793103Y-75265862D01*
X78793103Y-75955517D01*
X78793103Y-76645172D01*
X78103448Y-76645172D01*
X78103448Y-77334828D01*
X78103448Y-78024483D01*
X78103448Y-78714138D01*
X78103448Y-79403793D01*
X76724138Y-79403793D01*
X76724138Y-80093448D01*
X77413793Y-80093448D01*
X77413793Y-80783103D01*
X78103448Y-80783103D01*
X78103448Y-81472759D01*
X77413793Y-81472759D01*
X77413793Y-82162414D01*
X76724138Y-82162414D01*
X76724138Y-81472759D01*
X76724138Y-80783103D01*
X75344828Y-80783103D01*
X75344828Y-82162414D01*
X73965517Y-82162414D01*
X73965517Y-80783103D01*
X74655172Y-80783103D01*
X74655172Y-80093448D01*
X75344828Y-80093448D01*
X76034483Y-80093448D01*
X76034483Y-79403793D01*
X75344828Y-79403793D01*
X75344828Y-80093448D01*
X74655172Y-80093448D01*
X73965517Y-80093448D01*
X73965517Y-80783103D01*
X72586207Y-80783103D01*
X72586207Y-81472759D01*
X71896552Y-81472759D01*
X71896552Y-80783103D01*
X71896552Y-80093448D01*
X71896552Y-79403793D01*
X72586207Y-79403793D01*
X72586207Y-78714138D01*
X72586207Y-78024483D01*
X72586207Y-75265862D01*
X72586207Y-74576207D01*
X72586207Y-73886552D01*
X73275862Y-73886552D01*
X73275862Y-73196897D01*
X72586207Y-73196897D01*
X72586207Y-72507241D01*
X71896552Y-72507241D01*
X71896552Y-71817586D01*
X71896552Y-71127931D01*
X71206897Y-71127931D01*
X71206897Y-71817586D01*
X70517241Y-71817586D01*
X70517241Y-71127931D01*
X70517241Y-70438276D01*
X71206897Y-70438276D01*
X71206897Y-69748621D01*
X73275862Y-69748621D01*
X73275862Y-69058966D01*
X73965517Y-69058966D01*
X73965517Y-69748621D01*
G37*
G36*
X84310345Y-80783103D02*
G01*
X83620690Y-80783103D01*
X83620690Y-81472759D01*
X79482759Y-81472759D01*
X79482759Y-82162414D01*
X78793103Y-82162414D01*
X78793103Y-81472759D01*
X78793103Y-80783103D01*
X82931034Y-80783103D01*
X82931034Y-80093448D01*
X84310345Y-80093448D01*
X84310345Y-80783103D01*
G37*
G36*
X85000000Y-81472759D02*
G01*
X84310345Y-81472759D01*
X84310345Y-80783103D01*
X85000000Y-80783103D01*
X85000000Y-81472759D01*
G37*
G36*
X65689655Y-73886552D02*
G01*
X67068966Y-73886552D01*
X67068966Y-74576207D01*
X66379310Y-74576207D01*
X66379310Y-75265862D01*
X66379310Y-75955517D01*
X65689655Y-75955517D01*
X65689655Y-76645172D01*
X66379310Y-76645172D01*
X66379310Y-77334828D01*
X66379310Y-78024483D01*
X66379310Y-78714138D01*
X65689655Y-78714138D01*
X65689655Y-79403793D01*
X66379310Y-79403793D01*
X66379310Y-80093448D01*
X66379310Y-80783103D01*
X65689655Y-80783103D01*
X65689655Y-80093448D01*
X65000000Y-80093448D01*
X65000000Y-79403793D01*
X65000000Y-78714138D01*
X65000000Y-78024483D01*
X65689655Y-78024483D01*
X65689655Y-77334828D01*
X65000000Y-77334828D01*
X65000000Y-76645172D01*
X65000000Y-75955517D01*
X65000000Y-75265862D01*
X65689655Y-75265862D01*
X65689655Y-74576207D01*
X65000000Y-74576207D01*
X65000000Y-73886552D01*
X65000000Y-73196897D01*
X65689655Y-73196897D01*
X65689655Y-73886552D01*
G37*
G36*
X80862069Y-80093448D02*
G01*
X80172414Y-80093448D01*
X80172414Y-79403793D01*
X80862069Y-79403793D01*
X80862069Y-80093448D01*
G37*
G36*
X82241379Y-80093448D02*
G01*
X81551724Y-80093448D01*
X81551724Y-79403793D01*
X82241379Y-79403793D01*
X82241379Y-80093448D01*
G37*
G36*
X85000000Y-80093448D02*
G01*
X84310345Y-80093448D01*
X84310345Y-79403793D01*
X85000000Y-79403793D01*
X85000000Y-80093448D01*
G37*
G36*
X67758621Y-76645172D02*
G01*
X69137931Y-76645172D01*
X69137931Y-77334828D01*
X69137931Y-78024483D01*
X68448276Y-78024483D01*
X68448276Y-77334828D01*
X67758621Y-77334828D01*
X67758621Y-78714138D01*
X67758621Y-79403793D01*
X66379310Y-79403793D01*
X66379310Y-78714138D01*
X67068966Y-78714138D01*
X67068966Y-77334828D01*
X67068966Y-76645172D01*
X67068966Y-75265862D01*
X67758621Y-75265862D01*
X67758621Y-76645172D01*
G37*
G36*
X81551724Y-75955517D02*
G01*
X81551724Y-76645172D01*
X82241379Y-76645172D01*
X82241379Y-77334828D01*
X82241379Y-78024483D01*
X82931034Y-78024483D01*
X82931034Y-78714138D01*
X84310345Y-78714138D01*
X84310345Y-79403793D01*
X82241379Y-79403793D01*
X82241379Y-78714138D01*
X78793103Y-78714138D01*
X78793103Y-78024483D01*
X78793103Y-77334828D01*
X79482759Y-77334828D01*
X79482759Y-78024483D01*
X80862069Y-78024483D01*
X80862069Y-77334828D01*
X80172414Y-77334828D01*
X80172414Y-76645172D01*
X80862069Y-76645172D01*
X80862069Y-75955517D01*
X80172414Y-75955517D01*
X80172414Y-75265862D01*
X81551724Y-75265862D01*
X81551724Y-75955517D01*
G37*
G36*
X74655172Y-78024483D02*
G01*
X73965517Y-78024483D01*
X73965517Y-77334828D01*
X74655172Y-77334828D01*
X74655172Y-78024483D01*
G37*
G36*
X85000000Y-77334828D02*
G01*
X84310345Y-77334828D01*
X84310345Y-78024483D01*
X83620690Y-78024483D01*
X83620690Y-77334828D01*
X83620690Y-76645172D01*
X85000000Y-76645172D01*
X85000000Y-77334828D01*
G37*
G36*
X71206897Y-77334828D02*
G01*
X70517241Y-77334828D01*
X70517241Y-76645172D01*
X71206897Y-76645172D01*
X71206897Y-77334828D01*
G37*
G36*
X71206897Y-73196897D02*
G01*
X71206897Y-73886552D01*
X71206897Y-74576207D01*
X71206897Y-75265862D01*
X71896552Y-75265862D01*
X71896552Y-75955517D01*
X69827586Y-75955517D01*
X69827586Y-76645172D01*
X69137931Y-76645172D01*
X69137931Y-75955517D01*
X69137931Y-75265862D01*
X69137931Y-74576207D01*
X69827586Y-74576207D01*
X69827586Y-73886552D01*
X68448276Y-73886552D01*
X68448276Y-73196897D01*
X70517241Y-73196897D01*
X70517241Y-72507241D01*
X71206897Y-72507241D01*
X71206897Y-73196897D01*
G37*
G36*
X80172414Y-76645172D02*
G01*
X79482759Y-76645172D01*
X79482759Y-75955517D01*
X80172414Y-75955517D01*
X80172414Y-76645172D01*
G37*
G36*
X84310345Y-74576207D02*
G01*
X85000000Y-74576207D01*
X85000000Y-75265862D01*
X85000000Y-75955517D01*
X82931034Y-75955517D01*
X82931034Y-76645172D01*
X82241379Y-76645172D01*
X82241379Y-75955517D01*
X82241379Y-75265862D01*
X81551724Y-75265862D01*
X81551724Y-73886552D01*
X82931034Y-73886552D01*
X82931034Y-75265862D01*
X83620690Y-75265862D01*
X83620690Y-74576207D01*
X83620690Y-73886552D01*
X82931034Y-73886552D01*
X81551724Y-73886552D01*
X80862069Y-73886552D01*
X80862069Y-74576207D01*
X80172414Y-74576207D01*
X80172414Y-75265862D01*
X78793103Y-75265862D01*
X78793103Y-74576207D01*
X79482759Y-74576207D01*
X79482759Y-73886552D01*
X79482759Y-73196897D01*
X80172414Y-73196897D01*
X80172414Y-73886552D01*
X80862069Y-73886552D01*
X80862069Y-73196897D01*
X81551724Y-73196897D01*
X81551724Y-72507241D01*
X82241379Y-72507241D01*
X82241379Y-73196897D01*
X82931034Y-73196897D01*
X82931034Y-72507241D01*
X83620690Y-72507241D01*
X83620690Y-73196897D01*
X84310345Y-73196897D01*
X84310345Y-72507241D01*
X85000000Y-72507241D01*
X85000000Y-73196897D01*
X85000000Y-73886552D01*
X84310345Y-73886552D01*
X84310345Y-74576207D01*
G37*
G36*
X68448276Y-75265862D02*
G01*
X67758621Y-75265862D01*
X67758621Y-74576207D01*
X68448276Y-74576207D01*
X68448276Y-75265862D01*
G37*
G36*
X78103448Y-74576207D02*
G01*
X77413793Y-74576207D01*
X77413793Y-73886552D01*
X78103448Y-73886552D01*
X78103448Y-74576207D01*
G37*
G36*
X67758621Y-73886552D02*
G01*
X67068966Y-73886552D01*
X67068966Y-73196897D01*
X67758621Y-73196897D01*
X67758621Y-73886552D01*
G37*
G36*
X78793103Y-71127931D02*
G01*
X78103448Y-71127931D01*
X78103448Y-71817586D01*
X78103448Y-72507241D01*
X77413793Y-72507241D01*
X77413793Y-73196897D01*
X77413793Y-73886552D01*
X75344828Y-73886552D01*
X75344828Y-73196897D01*
X76034483Y-73196897D01*
X76034483Y-72507241D01*
X76034483Y-71817586D01*
X76034483Y-71127931D01*
X76724138Y-71127931D01*
X76724138Y-71817586D01*
X77413793Y-71817586D01*
X77413793Y-71127931D01*
X77413793Y-70438276D01*
X78793103Y-70438276D01*
X78793103Y-71127931D01*
G37*
G36*
X78793103Y-73886552D02*
G01*
X78103448Y-73886552D01*
X78103448Y-72507241D01*
X78793103Y-72507241D01*
X78793103Y-73886552D01*
G37*
G36*
X66379310Y-73196897D02*
G01*
X65689655Y-73196897D01*
X65689655Y-72507241D01*
X66379310Y-72507241D01*
X66379310Y-73196897D01*
G37*
G36*
X68448276Y-73196897D02*
G01*
X67758621Y-73196897D01*
X67758621Y-72507241D01*
X68448276Y-72507241D01*
X68448276Y-73196897D01*
G37*
G36*
X80862069Y-73196897D02*
G01*
X80172414Y-73196897D01*
X80172414Y-72507241D01*
X80862069Y-72507241D01*
X80862069Y-73196897D01*
G37*
G36*
X74655172Y-72507241D02*
G01*
X73965517Y-72507241D01*
X73965517Y-71817586D01*
X74655172Y-71817586D01*
X74655172Y-72507241D01*
G37*
G36*
X68448276Y-70438276D02*
G01*
X66379310Y-70438276D01*
X66379310Y-68369310D01*
X68448276Y-68369310D01*
X68448276Y-70438276D01*
G37*
G36*
X69827586Y-71127931D02*
G01*
X69827586Y-71817586D01*
X65000000Y-71817586D01*
X65000000Y-71127931D01*
X65000000Y-67679655D01*
X65689655Y-67679655D01*
X65689655Y-71127931D01*
X69137931Y-71127931D01*
X69137931Y-67679655D01*
X65689655Y-67679655D01*
X65000000Y-67679655D01*
X65000000Y-66990000D01*
X69827586Y-66990000D01*
X69827586Y-67679655D01*
X69827586Y-71127931D01*
G37*
G36*
X79482759Y-71817586D02*
G01*
X78793103Y-71817586D01*
X78793103Y-71127931D01*
X79482759Y-71127931D01*
X79482759Y-71817586D01*
G37*
G36*
X83620690Y-70438276D02*
G01*
X81551724Y-70438276D01*
X81551724Y-68369310D01*
X83620690Y-68369310D01*
X83620690Y-70438276D01*
G37*
G36*
X85000000Y-71127931D02*
G01*
X85000000Y-71817586D01*
X80172414Y-71817586D01*
X80172414Y-71127931D01*
X80172414Y-67679655D01*
X80862069Y-67679655D01*
X80862069Y-71127931D01*
X84310345Y-71127931D01*
X84310345Y-67679655D01*
X80862069Y-67679655D01*
X80172414Y-67679655D01*
X80172414Y-66990000D01*
X85000000Y-66990000D01*
X85000000Y-67679655D01*
X85000000Y-71127931D01*
G37*
G36*
X76034483Y-69748621D02*
G01*
X76724138Y-69748621D01*
X76724138Y-70438276D01*
X75344828Y-70438276D01*
X75344828Y-69748621D01*
X75344828Y-69058966D01*
X76034483Y-69058966D01*
X76034483Y-69748621D01*
G37*
G36*
X79482759Y-70438276D02*
G01*
X78793103Y-70438276D01*
X78793103Y-69748621D01*
X79482759Y-69748621D01*
X79482759Y-70438276D01*
G37*
G36*
X77413793Y-69058966D02*
G01*
X77413793Y-69748621D01*
X76724138Y-69748621D01*
X76724138Y-69058966D01*
X76034483Y-69058966D01*
X76034483Y-68369310D01*
X77413793Y-68369310D01*
X77413793Y-69058966D01*
G37*
G36*
X73275862Y-67679655D02*
G01*
X73275862Y-68369310D01*
X71896552Y-68369310D01*
X71896552Y-69058966D01*
X71206897Y-69058966D01*
X71206897Y-68369310D01*
X70517241Y-68369310D01*
X70517241Y-67679655D01*
X71206897Y-67679655D01*
X71206897Y-66990000D01*
X73275862Y-66990000D01*
X73275862Y-67679655D01*
G37*
G36*
X74655172Y-69058966D02*
G01*
X73965517Y-69058966D01*
X73965517Y-68369310D01*
X74655172Y-68369310D01*
X74655172Y-69058966D01*
G37*
G36*
X79482759Y-68369310D02*
G01*
X78793103Y-68369310D01*
X78793103Y-69058966D01*
X78103448Y-69058966D01*
X78103448Y-68369310D01*
X78103448Y-67679655D01*
X79482759Y-67679655D01*
X79482759Y-68369310D01*
G37*
G36*
X76034483Y-68369310D02*
G01*
X75344828Y-68369310D01*
X75344828Y-67679655D01*
X76034483Y-67679655D01*
X76034483Y-68369310D01*
G37*
G36*
X75344828Y-67679655D02*
G01*
X74655172Y-67679655D01*
X74655172Y-66990000D01*
X75344828Y-66990000D01*
X75344828Y-67679655D01*
G37*
G36*
X77413793Y-67679655D02*
G01*
X76034483Y-67679655D01*
X76034483Y-66990000D01*
X77413793Y-66990000D01*
X77413793Y-67679655D01*
G37*
%LPC*%
%LPD*%
M02*
