%TF.GenerationSoftware,KiCad,Pcbnew,10.0.5*%
%TF.CreationDate,2026-09-10T02:55:08+10:00*%
%TF.ProjectId,NFC_Business_Card,4e46435f-4275-4736-996e-6573735f4361,rev?*%
%TF.SameCoordinates,Original*%
%TF.FileFunction,Legend,Top*%
%TF.FilePolarity,Positive*%
%FSLAX46Y46*%
G04 Gerber Fmt 4.6, Leading zero omitted, Abs format (unit mm)*
G04 Created by KiCad (PCBNEW 10.0.5) date 2026-09-10 02:55:08*
%MOMM*%
%LPD*%
G01*
G04 APERTURE LIST*
G04 Aperture macros list*
%AMRoundRect*
0 Rectangle with rounded corners*
0 $1 Rounding radius*
0 $2 $3 $4 $5 $6 $7 $8 $9 X,Y pos of 4 corners*
0 Add a 4 corners polygon primitive as box body*
4,1,4,$2,$3,$4,$5,$6,$7,$8,$9,$2,$3,0*
0 Add four circle primitives for the rounded corners*
1,1,$1+$1,$2,$3*
1,1,$1+$1,$4,$5*
1,1,$1+$1,$6,$7*
1,1,$1+$1,$8,$9*
0 Add four rect primitives between the rounded corners*
20,1,$1+$1,$2,$3,$4,$5,0*
20,1,$1+$1,$4,$5,$6,$7,0*
20,1,$1+$1,$6,$7,$8,$9,0*
20,1,$1+$1,$8,$9,$2,$3,0*%
G04 Aperture macros list end*
%ADD10C,0.160000*%
%ADD11C,0.180000*%
%ADD12C,0.300000*%
%ADD13C,0.120000*%
%ADD14C,0.000000*%
%ADD15RoundRect,0.200000X-0.275000X0.200000X-0.275000X-0.200000X0.275000X-0.200000X0.275000X0.200000X0*%
%ADD16RoundRect,0.200000X-0.200000X-0.275000X0.200000X-0.275000X0.200000X0.275000X-0.200000X0.275000X0*%
%ADD17RoundRect,0.100000X-0.637500X-0.100000X0.637500X-0.100000X0.637500X0.100000X-0.637500X0.100000X0*%
%ADD18RoundRect,0.218750X-0.218750X-0.256250X0.218750X-0.256250X0.218750X0.256250X-0.218750X0.256250X0*%
%ADD19RoundRect,0.200000X0.200000X0.275000X-0.200000X0.275000X-0.200000X-0.275000X0.200000X-0.275000X0*%
%ADD20RoundRect,0.225000X0.250000X-0.225000X0.250000X0.225000X-0.250000X0.225000X-0.250000X-0.225000X0*%
G04 APERTURE END LIST*
D10*
X62390977Y-85844822D02*
X62390977Y-85044822D01*
X62390977Y-85273394D02*
X62448120Y-85159108D01*
X62448120Y-85159108D02*
X62505263Y-85101965D01*
X62505263Y-85101965D02*
X62619548Y-85044822D01*
X62619548Y-85044822D02*
X62733834Y-85044822D01*
X63019548Y-85044822D02*
X63305262Y-85844822D01*
X63590977Y-85044822D02*
X63305262Y-85844822D01*
X63305262Y-85844822D02*
X63190977Y-86130537D01*
X63190977Y-86130537D02*
X63133834Y-86187680D01*
X63133834Y-86187680D02*
X63019548Y-86244822D01*
X64562406Y-85844822D02*
X64562406Y-85216251D01*
X64562406Y-85216251D02*
X64505263Y-85101965D01*
X64505263Y-85101965D02*
X64390977Y-85044822D01*
X64390977Y-85044822D02*
X64162406Y-85044822D01*
X64162406Y-85044822D02*
X64048120Y-85101965D01*
X64562406Y-85787680D02*
X64448120Y-85844822D01*
X64448120Y-85844822D02*
X64162406Y-85844822D01*
X64162406Y-85844822D02*
X64048120Y-85787680D01*
X64048120Y-85787680D02*
X63990977Y-85673394D01*
X63990977Y-85673394D02*
X63990977Y-85559108D01*
X63990977Y-85559108D02*
X64048120Y-85444822D01*
X64048120Y-85444822D02*
X64162406Y-85387680D01*
X64162406Y-85387680D02*
X64448120Y-85387680D01*
X64448120Y-85387680D02*
X64562406Y-85330537D01*
X65133834Y-85044822D02*
X65133834Y-85844822D01*
X65133834Y-85159108D02*
X65190977Y-85101965D01*
X65190977Y-85101965D02*
X65305262Y-85044822D01*
X65305262Y-85044822D02*
X65476691Y-85044822D01*
X65476691Y-85044822D02*
X65590977Y-85101965D01*
X65590977Y-85101965D02*
X65648120Y-85216251D01*
X65648120Y-85216251D02*
X65648120Y-85844822D01*
X66219548Y-85730537D02*
X66276691Y-85787680D01*
X66276691Y-85787680D02*
X66219548Y-85844822D01*
X66219548Y-85844822D02*
X66162405Y-85787680D01*
X66162405Y-85787680D02*
X66219548Y-85730537D01*
X66219548Y-85730537D02*
X66219548Y-85844822D01*
X66676691Y-85044822D02*
X66962405Y-85844822D01*
X67248120Y-85044822D02*
X66962405Y-85844822D01*
X66962405Y-85844822D02*
X66848120Y-86130537D01*
X66848120Y-86130537D02*
X66790977Y-86187680D01*
X66790977Y-86187680D02*
X66676691Y-86244822D01*
X68162406Y-85787680D02*
X68048120Y-85844822D01*
X68048120Y-85844822D02*
X67819549Y-85844822D01*
X67819549Y-85844822D02*
X67705263Y-85787680D01*
X67705263Y-85787680D02*
X67648120Y-85673394D01*
X67648120Y-85673394D02*
X67648120Y-85216251D01*
X67648120Y-85216251D02*
X67705263Y-85101965D01*
X67705263Y-85101965D02*
X67819549Y-85044822D01*
X67819549Y-85044822D02*
X68048120Y-85044822D01*
X68048120Y-85044822D02*
X68162406Y-85101965D01*
X68162406Y-85101965D02*
X68219549Y-85216251D01*
X68219549Y-85216251D02*
X68219549Y-85330537D01*
X68219549Y-85330537D02*
X67648120Y-85444822D01*
X68733834Y-85044822D02*
X68733834Y-85844822D01*
X68733834Y-85159108D02*
X68790977Y-85101965D01*
X68790977Y-85101965D02*
X68905262Y-85044822D01*
X68905262Y-85044822D02*
X69076691Y-85044822D01*
X69076691Y-85044822D02*
X69190977Y-85101965D01*
X69190977Y-85101965D02*
X69248120Y-85216251D01*
X69248120Y-85216251D02*
X69248120Y-85844822D01*
X69762405Y-85787680D02*
X69876691Y-85844822D01*
X69876691Y-85844822D02*
X70105262Y-85844822D01*
X70105262Y-85844822D02*
X70219548Y-85787680D01*
X70219548Y-85787680D02*
X70276691Y-85673394D01*
X70276691Y-85673394D02*
X70276691Y-85616251D01*
X70276691Y-85616251D02*
X70219548Y-85501965D01*
X70219548Y-85501965D02*
X70105262Y-85444822D01*
X70105262Y-85444822D02*
X69933834Y-85444822D01*
X69933834Y-85444822D02*
X69819548Y-85387680D01*
X69819548Y-85387680D02*
X69762405Y-85273394D01*
X69762405Y-85273394D02*
X69762405Y-85216251D01*
X69762405Y-85216251D02*
X69819548Y-85101965D01*
X69819548Y-85101965D02*
X69933834Y-85044822D01*
X69933834Y-85044822D02*
X70105262Y-85044822D01*
X70105262Y-85044822D02*
X70219548Y-85101965D01*
X71305263Y-85787680D02*
X71190977Y-85844822D01*
X71190977Y-85844822D02*
X70962405Y-85844822D01*
X70962405Y-85844822D02*
X70848120Y-85787680D01*
X70848120Y-85787680D02*
X70790977Y-85730537D01*
X70790977Y-85730537D02*
X70733834Y-85616251D01*
X70733834Y-85616251D02*
X70733834Y-85273394D01*
X70733834Y-85273394D02*
X70790977Y-85159108D01*
X70790977Y-85159108D02*
X70848120Y-85101965D01*
X70848120Y-85101965D02*
X70962405Y-85044822D01*
X70962405Y-85044822D02*
X71190977Y-85044822D01*
X71190977Y-85044822D02*
X71305263Y-85101965D01*
X71819548Y-85844822D02*
X71819548Y-84644822D01*
X72333834Y-85844822D02*
X72333834Y-85216251D01*
X72333834Y-85216251D02*
X72276691Y-85101965D01*
X72276691Y-85101965D02*
X72162405Y-85044822D01*
X72162405Y-85044822D02*
X71990976Y-85044822D01*
X71990976Y-85044822D02*
X71876691Y-85101965D01*
X71876691Y-85101965D02*
X71819548Y-85159108D01*
X72905262Y-85730537D02*
X72962405Y-85787680D01*
X72962405Y-85787680D02*
X72905262Y-85844822D01*
X72905262Y-85844822D02*
X72848119Y-85787680D01*
X72848119Y-85787680D02*
X72905262Y-85730537D01*
X72905262Y-85730537D02*
X72905262Y-85844822D01*
X73990977Y-85787680D02*
X73876691Y-85844822D01*
X73876691Y-85844822D02*
X73648119Y-85844822D01*
X73648119Y-85844822D02*
X73533834Y-85787680D01*
X73533834Y-85787680D02*
X73476691Y-85730537D01*
X73476691Y-85730537D02*
X73419548Y-85616251D01*
X73419548Y-85616251D02*
X73419548Y-85273394D01*
X73419548Y-85273394D02*
X73476691Y-85159108D01*
X73476691Y-85159108D02*
X73533834Y-85101965D01*
X73533834Y-85101965D02*
X73648119Y-85044822D01*
X73648119Y-85044822D02*
X73876691Y-85044822D01*
X73876691Y-85044822D02*
X73990977Y-85101965D01*
X74676690Y-85844822D02*
X74562405Y-85787680D01*
X74562405Y-85787680D02*
X74505262Y-85730537D01*
X74505262Y-85730537D02*
X74448119Y-85616251D01*
X74448119Y-85616251D02*
X74448119Y-85273394D01*
X74448119Y-85273394D02*
X74505262Y-85159108D01*
X74505262Y-85159108D02*
X74562405Y-85101965D01*
X74562405Y-85101965D02*
X74676690Y-85044822D01*
X74676690Y-85044822D02*
X74848119Y-85044822D01*
X74848119Y-85044822D02*
X74962405Y-85101965D01*
X74962405Y-85101965D02*
X75019548Y-85159108D01*
X75019548Y-85159108D02*
X75076690Y-85273394D01*
X75076690Y-85273394D02*
X75076690Y-85616251D01*
X75076690Y-85616251D02*
X75019548Y-85730537D01*
X75019548Y-85730537D02*
X74962405Y-85787680D01*
X74962405Y-85787680D02*
X74848119Y-85844822D01*
X74848119Y-85844822D02*
X74676690Y-85844822D01*
X75590976Y-85844822D02*
X75590976Y-85044822D01*
X75590976Y-85159108D02*
X75648119Y-85101965D01*
X75648119Y-85101965D02*
X75762404Y-85044822D01*
X75762404Y-85044822D02*
X75933833Y-85044822D01*
X75933833Y-85044822D02*
X76048119Y-85101965D01*
X76048119Y-85101965D02*
X76105262Y-85216251D01*
X76105262Y-85216251D02*
X76105262Y-85844822D01*
X76105262Y-85216251D02*
X76162404Y-85101965D01*
X76162404Y-85101965D02*
X76276690Y-85044822D01*
X76276690Y-85044822D02*
X76448119Y-85044822D01*
X76448119Y-85044822D02*
X76562404Y-85101965D01*
X76562404Y-85101965D02*
X76619547Y-85216251D01*
X76619547Y-85216251D02*
X76619547Y-85844822D01*
X62390977Y-89844822D02*
X62390977Y-89044822D01*
X62390977Y-89273394D02*
X62448120Y-89159108D01*
X62448120Y-89159108D02*
X62505263Y-89101965D01*
X62505263Y-89101965D02*
X62619548Y-89044822D01*
X62619548Y-89044822D02*
X62733834Y-89044822D01*
X63019548Y-89044822D02*
X63305262Y-89844822D01*
X63590977Y-89044822D02*
X63305262Y-89844822D01*
X63305262Y-89844822D02*
X63190977Y-90130537D01*
X63190977Y-90130537D02*
X63133834Y-90187680D01*
X63133834Y-90187680D02*
X63019548Y-90244822D01*
X64562406Y-89844822D02*
X64562406Y-89216251D01*
X64562406Y-89216251D02*
X64505263Y-89101965D01*
X64505263Y-89101965D02*
X64390977Y-89044822D01*
X64390977Y-89044822D02*
X64162406Y-89044822D01*
X64162406Y-89044822D02*
X64048120Y-89101965D01*
X64562406Y-89787680D02*
X64448120Y-89844822D01*
X64448120Y-89844822D02*
X64162406Y-89844822D01*
X64162406Y-89844822D02*
X64048120Y-89787680D01*
X64048120Y-89787680D02*
X63990977Y-89673394D01*
X63990977Y-89673394D02*
X63990977Y-89559108D01*
X63990977Y-89559108D02*
X64048120Y-89444822D01*
X64048120Y-89444822D02*
X64162406Y-89387680D01*
X64162406Y-89387680D02*
X64448120Y-89387680D01*
X64448120Y-89387680D02*
X64562406Y-89330537D01*
X65133834Y-89044822D02*
X65133834Y-89844822D01*
X65133834Y-89159108D02*
X65190977Y-89101965D01*
X65190977Y-89101965D02*
X65305262Y-89044822D01*
X65305262Y-89044822D02*
X65476691Y-89044822D01*
X65476691Y-89044822D02*
X65590977Y-89101965D01*
X65590977Y-89101965D02*
X65648120Y-89216251D01*
X65648120Y-89216251D02*
X65648120Y-89844822D01*
X66962405Y-89273394D02*
X66905262Y-89216251D01*
X66905262Y-89216251D02*
X66790976Y-89159108D01*
X66790976Y-89159108D02*
X66676691Y-89159108D01*
X66676691Y-89159108D02*
X66562405Y-89216251D01*
X66562405Y-89216251D02*
X66505262Y-89273394D01*
X66505262Y-89273394D02*
X66448119Y-89387680D01*
X66448119Y-89387680D02*
X66448119Y-89501965D01*
X66448119Y-89501965D02*
X66505262Y-89616251D01*
X66505262Y-89616251D02*
X66562405Y-89673394D01*
X66562405Y-89673394D02*
X66676691Y-89730537D01*
X66676691Y-89730537D02*
X66790976Y-89730537D01*
X66790976Y-89730537D02*
X66905262Y-89673394D01*
X66905262Y-89673394D02*
X66962405Y-89616251D01*
X66962405Y-89159108D02*
X66962405Y-89616251D01*
X66962405Y-89616251D02*
X67019548Y-89673394D01*
X67019548Y-89673394D02*
X67076691Y-89673394D01*
X67076691Y-89673394D02*
X67190976Y-89616251D01*
X67190976Y-89616251D02*
X67248119Y-89501965D01*
X67248119Y-89501965D02*
X67248119Y-89216251D01*
X67248119Y-89216251D02*
X67133834Y-89044822D01*
X67133834Y-89044822D02*
X66962405Y-88930537D01*
X66962405Y-88930537D02*
X66733834Y-88873394D01*
X66733834Y-88873394D02*
X66505262Y-88930537D01*
X66505262Y-88930537D02*
X66333834Y-89044822D01*
X66333834Y-89044822D02*
X66219548Y-89216251D01*
X66219548Y-89216251D02*
X66162405Y-89444822D01*
X66162405Y-89444822D02*
X66219548Y-89673394D01*
X66219548Y-89673394D02*
X66333834Y-89844822D01*
X66333834Y-89844822D02*
X66505262Y-89959108D01*
X66505262Y-89959108D02*
X66733834Y-90016251D01*
X66733834Y-90016251D02*
X66962405Y-89959108D01*
X66962405Y-89959108D02*
X67133834Y-89844822D01*
X67648119Y-89044822D02*
X67933833Y-89844822D01*
X68219548Y-89044822D02*
X67933833Y-89844822D01*
X67933833Y-89844822D02*
X67819548Y-90130537D01*
X67819548Y-90130537D02*
X67762405Y-90187680D01*
X67762405Y-90187680D02*
X67648119Y-90244822D01*
X69133834Y-89787680D02*
X69019548Y-89844822D01*
X69019548Y-89844822D02*
X68790977Y-89844822D01*
X68790977Y-89844822D02*
X68676691Y-89787680D01*
X68676691Y-89787680D02*
X68619548Y-89673394D01*
X68619548Y-89673394D02*
X68619548Y-89216251D01*
X68619548Y-89216251D02*
X68676691Y-89101965D01*
X68676691Y-89101965D02*
X68790977Y-89044822D01*
X68790977Y-89044822D02*
X69019548Y-89044822D01*
X69019548Y-89044822D02*
X69133834Y-89101965D01*
X69133834Y-89101965D02*
X69190977Y-89216251D01*
X69190977Y-89216251D02*
X69190977Y-89330537D01*
X69190977Y-89330537D02*
X68619548Y-89444822D01*
X69705262Y-89044822D02*
X69705262Y-89844822D01*
X69705262Y-89159108D02*
X69762405Y-89101965D01*
X69762405Y-89101965D02*
X69876690Y-89044822D01*
X69876690Y-89044822D02*
X70048119Y-89044822D01*
X70048119Y-89044822D02*
X70162405Y-89101965D01*
X70162405Y-89101965D02*
X70219548Y-89216251D01*
X70219548Y-89216251D02*
X70219548Y-89844822D01*
X70733833Y-89787680D02*
X70848119Y-89844822D01*
X70848119Y-89844822D02*
X71076690Y-89844822D01*
X71076690Y-89844822D02*
X71190976Y-89787680D01*
X71190976Y-89787680D02*
X71248119Y-89673394D01*
X71248119Y-89673394D02*
X71248119Y-89616251D01*
X71248119Y-89616251D02*
X71190976Y-89501965D01*
X71190976Y-89501965D02*
X71076690Y-89444822D01*
X71076690Y-89444822D02*
X70905262Y-89444822D01*
X70905262Y-89444822D02*
X70790976Y-89387680D01*
X70790976Y-89387680D02*
X70733833Y-89273394D01*
X70733833Y-89273394D02*
X70733833Y-89216251D01*
X70733833Y-89216251D02*
X70790976Y-89101965D01*
X70790976Y-89101965D02*
X70905262Y-89044822D01*
X70905262Y-89044822D02*
X71076690Y-89044822D01*
X71076690Y-89044822D02*
X71190976Y-89101965D01*
X72276691Y-89787680D02*
X72162405Y-89844822D01*
X72162405Y-89844822D02*
X71933833Y-89844822D01*
X71933833Y-89844822D02*
X71819548Y-89787680D01*
X71819548Y-89787680D02*
X71762405Y-89730537D01*
X71762405Y-89730537D02*
X71705262Y-89616251D01*
X71705262Y-89616251D02*
X71705262Y-89273394D01*
X71705262Y-89273394D02*
X71762405Y-89159108D01*
X71762405Y-89159108D02*
X71819548Y-89101965D01*
X71819548Y-89101965D02*
X71933833Y-89044822D01*
X71933833Y-89044822D02*
X72162405Y-89044822D01*
X72162405Y-89044822D02*
X72276691Y-89101965D01*
X72790976Y-89844822D02*
X72790976Y-88644822D01*
X73305262Y-89844822D02*
X73305262Y-89216251D01*
X73305262Y-89216251D02*
X73248119Y-89101965D01*
X73248119Y-89101965D02*
X73133833Y-89044822D01*
X73133833Y-89044822D02*
X72962404Y-89044822D01*
X72962404Y-89044822D02*
X72848119Y-89101965D01*
X72848119Y-89101965D02*
X72790976Y-89159108D01*
X73876690Y-89730537D02*
X73933833Y-89787680D01*
X73933833Y-89787680D02*
X73876690Y-89844822D01*
X73876690Y-89844822D02*
X73819547Y-89787680D01*
X73819547Y-89787680D02*
X73876690Y-89730537D01*
X73876690Y-89730537D02*
X73876690Y-89844822D01*
X74962405Y-89787680D02*
X74848119Y-89844822D01*
X74848119Y-89844822D02*
X74619547Y-89844822D01*
X74619547Y-89844822D02*
X74505262Y-89787680D01*
X74505262Y-89787680D02*
X74448119Y-89730537D01*
X74448119Y-89730537D02*
X74390976Y-89616251D01*
X74390976Y-89616251D02*
X74390976Y-89273394D01*
X74390976Y-89273394D02*
X74448119Y-89159108D01*
X74448119Y-89159108D02*
X74505262Y-89101965D01*
X74505262Y-89101965D02*
X74619547Y-89044822D01*
X74619547Y-89044822D02*
X74848119Y-89044822D01*
X74848119Y-89044822D02*
X74962405Y-89101965D01*
X75648118Y-89844822D02*
X75533833Y-89787680D01*
X75533833Y-89787680D02*
X75476690Y-89730537D01*
X75476690Y-89730537D02*
X75419547Y-89616251D01*
X75419547Y-89616251D02*
X75419547Y-89273394D01*
X75419547Y-89273394D02*
X75476690Y-89159108D01*
X75476690Y-89159108D02*
X75533833Y-89101965D01*
X75533833Y-89101965D02*
X75648118Y-89044822D01*
X75648118Y-89044822D02*
X75819547Y-89044822D01*
X75819547Y-89044822D02*
X75933833Y-89101965D01*
X75933833Y-89101965D02*
X75990976Y-89159108D01*
X75990976Y-89159108D02*
X76048118Y-89273394D01*
X76048118Y-89273394D02*
X76048118Y-89616251D01*
X76048118Y-89616251D02*
X75990976Y-89730537D01*
X75990976Y-89730537D02*
X75933833Y-89787680D01*
X75933833Y-89787680D02*
X75819547Y-89844822D01*
X75819547Y-89844822D02*
X75648118Y-89844822D01*
X76562404Y-89844822D02*
X76562404Y-89044822D01*
X76562404Y-89159108D02*
X76619547Y-89101965D01*
X76619547Y-89101965D02*
X76733832Y-89044822D01*
X76733832Y-89044822D02*
X76905261Y-89044822D01*
X76905261Y-89044822D02*
X77019547Y-89101965D01*
X77019547Y-89101965D02*
X77076690Y-89216251D01*
X77076690Y-89216251D02*
X77076690Y-89844822D01*
X77076690Y-89216251D02*
X77133832Y-89101965D01*
X77133832Y-89101965D02*
X77248118Y-89044822D01*
X77248118Y-89044822D02*
X77419547Y-89044822D01*
X77419547Y-89044822D02*
X77533832Y-89101965D01*
X77533832Y-89101965D02*
X77590975Y-89216251D01*
X77590975Y-89216251D02*
X77590975Y-89844822D01*
D11*
X62427944Y-68831544D02*
X62427944Y-67531544D01*
X62427944Y-67531544D02*
X62861278Y-68460116D01*
X62861278Y-68460116D02*
X63294611Y-67531544D01*
X63294611Y-67531544D02*
X63294611Y-68831544D01*
X64408896Y-68769640D02*
X64285087Y-68831544D01*
X64285087Y-68831544D02*
X64037468Y-68831544D01*
X64037468Y-68831544D02*
X63913658Y-68769640D01*
X63913658Y-68769640D02*
X63851754Y-68645830D01*
X63851754Y-68645830D02*
X63851754Y-68150592D01*
X63851754Y-68150592D02*
X63913658Y-68026782D01*
X63913658Y-68026782D02*
X64037468Y-67964878D01*
X64037468Y-67964878D02*
X64285087Y-67964878D01*
X64285087Y-67964878D02*
X64408896Y-68026782D01*
X64408896Y-68026782D02*
X64470801Y-68150592D01*
X64470801Y-68150592D02*
X64470801Y-68274401D01*
X64470801Y-68274401D02*
X63851754Y-68398211D01*
X65585087Y-68769640D02*
X65461278Y-68831544D01*
X65461278Y-68831544D02*
X65213659Y-68831544D01*
X65213659Y-68831544D02*
X65089849Y-68769640D01*
X65089849Y-68769640D02*
X65027944Y-68707735D01*
X65027944Y-68707735D02*
X64966040Y-68583925D01*
X64966040Y-68583925D02*
X64966040Y-68212497D01*
X64966040Y-68212497D02*
X65027944Y-68088687D01*
X65027944Y-68088687D02*
X65089849Y-68026782D01*
X65089849Y-68026782D02*
X65213659Y-67964878D01*
X65213659Y-67964878D02*
X65461278Y-67964878D01*
X65461278Y-67964878D02*
X65585087Y-68026782D01*
X66142230Y-68831544D02*
X66142230Y-67531544D01*
X66699373Y-68831544D02*
X66699373Y-68150592D01*
X66699373Y-68150592D02*
X66637468Y-68026782D01*
X66637468Y-68026782D02*
X66513659Y-67964878D01*
X66513659Y-67964878D02*
X66327945Y-67964878D01*
X66327945Y-67964878D02*
X66204135Y-68026782D01*
X66204135Y-68026782D02*
X66142230Y-68088687D01*
X67875563Y-68831544D02*
X67875563Y-68150592D01*
X67875563Y-68150592D02*
X67813658Y-68026782D01*
X67813658Y-68026782D02*
X67689849Y-67964878D01*
X67689849Y-67964878D02*
X67442230Y-67964878D01*
X67442230Y-67964878D02*
X67318420Y-68026782D01*
X67875563Y-68769640D02*
X67751754Y-68831544D01*
X67751754Y-68831544D02*
X67442230Y-68831544D01*
X67442230Y-68831544D02*
X67318420Y-68769640D01*
X67318420Y-68769640D02*
X67256516Y-68645830D01*
X67256516Y-68645830D02*
X67256516Y-68522020D01*
X67256516Y-68522020D02*
X67318420Y-68398211D01*
X67318420Y-68398211D02*
X67442230Y-68336306D01*
X67442230Y-68336306D02*
X67751754Y-68336306D01*
X67751754Y-68336306D02*
X67875563Y-68274401D01*
X68308896Y-67964878D02*
X68804134Y-67964878D01*
X68494610Y-67531544D02*
X68494610Y-68645830D01*
X68494610Y-68645830D02*
X68556515Y-68769640D01*
X68556515Y-68769640D02*
X68680325Y-68831544D01*
X68680325Y-68831544D02*
X68804134Y-68831544D01*
X69237467Y-68831544D02*
X69237467Y-67964878D01*
X69237467Y-68212497D02*
X69299372Y-68088687D01*
X69299372Y-68088687D02*
X69361277Y-68026782D01*
X69361277Y-68026782D02*
X69485086Y-67964878D01*
X69485086Y-67964878D02*
X69608896Y-67964878D01*
X70227944Y-68831544D02*
X70104134Y-68769640D01*
X70104134Y-68769640D02*
X70042229Y-68707735D01*
X70042229Y-68707735D02*
X69980325Y-68583925D01*
X69980325Y-68583925D02*
X69980325Y-68212497D01*
X69980325Y-68212497D02*
X70042229Y-68088687D01*
X70042229Y-68088687D02*
X70104134Y-68026782D01*
X70104134Y-68026782D02*
X70227944Y-67964878D01*
X70227944Y-67964878D02*
X70413658Y-67964878D01*
X70413658Y-67964878D02*
X70537467Y-68026782D01*
X70537467Y-68026782D02*
X70599372Y-68088687D01*
X70599372Y-68088687D02*
X70661277Y-68212497D01*
X70661277Y-68212497D02*
X70661277Y-68583925D01*
X70661277Y-68583925D02*
X70599372Y-68707735D01*
X70599372Y-68707735D02*
X70537467Y-68769640D01*
X70537467Y-68769640D02*
X70413658Y-68831544D01*
X70413658Y-68831544D02*
X70227944Y-68831544D01*
X71218419Y-67964878D02*
X71218419Y-68831544D01*
X71218419Y-68088687D02*
X71280324Y-68026782D01*
X71280324Y-68026782D02*
X71404134Y-67964878D01*
X71404134Y-67964878D02*
X71589848Y-67964878D01*
X71589848Y-67964878D02*
X71713657Y-68026782D01*
X71713657Y-68026782D02*
X71775562Y-68150592D01*
X71775562Y-68150592D02*
X71775562Y-68831544D01*
X72394609Y-68831544D02*
X72394609Y-67964878D01*
X72394609Y-67531544D02*
X72332705Y-67593449D01*
X72332705Y-67593449D02*
X72394609Y-67655354D01*
X72394609Y-67655354D02*
X72456514Y-67593449D01*
X72456514Y-67593449D02*
X72394609Y-67531544D01*
X72394609Y-67531544D02*
X72394609Y-67655354D01*
X73570800Y-68769640D02*
X73446991Y-68831544D01*
X73446991Y-68831544D02*
X73199372Y-68831544D01*
X73199372Y-68831544D02*
X73075562Y-68769640D01*
X73075562Y-68769640D02*
X73013657Y-68707735D01*
X73013657Y-68707735D02*
X72951753Y-68583925D01*
X72951753Y-68583925D02*
X72951753Y-68212497D01*
X72951753Y-68212497D02*
X73013657Y-68088687D01*
X73013657Y-68088687D02*
X73075562Y-68026782D01*
X73075562Y-68026782D02*
X73199372Y-67964878D01*
X73199372Y-67964878D02*
X73446991Y-67964878D01*
X73446991Y-67964878D02*
X73570800Y-68026782D01*
X74066039Y-68769640D02*
X74189848Y-68831544D01*
X74189848Y-68831544D02*
X74437467Y-68831544D01*
X74437467Y-68831544D02*
X74561277Y-68769640D01*
X74561277Y-68769640D02*
X74623181Y-68645830D01*
X74623181Y-68645830D02*
X74623181Y-68583925D01*
X74623181Y-68583925D02*
X74561277Y-68460116D01*
X74561277Y-68460116D02*
X74437467Y-68398211D01*
X74437467Y-68398211D02*
X74251753Y-68398211D01*
X74251753Y-68398211D02*
X74127943Y-68336306D01*
X74127943Y-68336306D02*
X74066039Y-68212497D01*
X74066039Y-68212497D02*
X74066039Y-68150592D01*
X74066039Y-68150592D02*
X74127943Y-68026782D01*
X74127943Y-68026782D02*
X74251753Y-67964878D01*
X74251753Y-67964878D02*
X74437467Y-67964878D01*
X74437467Y-67964878D02*
X74561277Y-68026782D01*
X62366040Y-72769640D02*
X62551754Y-72831544D01*
X62551754Y-72831544D02*
X62861278Y-72831544D01*
X62861278Y-72831544D02*
X62985087Y-72769640D01*
X62985087Y-72769640D02*
X63046992Y-72707735D01*
X63046992Y-72707735D02*
X63108897Y-72583925D01*
X63108897Y-72583925D02*
X63108897Y-72460116D01*
X63108897Y-72460116D02*
X63046992Y-72336306D01*
X63046992Y-72336306D02*
X62985087Y-72274401D01*
X62985087Y-72274401D02*
X62861278Y-72212497D01*
X62861278Y-72212497D02*
X62613659Y-72150592D01*
X62613659Y-72150592D02*
X62489849Y-72088687D01*
X62489849Y-72088687D02*
X62427944Y-72026782D01*
X62427944Y-72026782D02*
X62366040Y-71902973D01*
X62366040Y-71902973D02*
X62366040Y-71779163D01*
X62366040Y-71779163D02*
X62427944Y-71655354D01*
X62427944Y-71655354D02*
X62489849Y-71593449D01*
X62489849Y-71593449D02*
X62613659Y-71531544D01*
X62613659Y-71531544D02*
X62923182Y-71531544D01*
X62923182Y-71531544D02*
X63108897Y-71593449D01*
X63851754Y-72831544D02*
X63727944Y-72769640D01*
X63727944Y-72769640D02*
X63666039Y-72707735D01*
X63666039Y-72707735D02*
X63604135Y-72583925D01*
X63604135Y-72583925D02*
X63604135Y-72212497D01*
X63604135Y-72212497D02*
X63666039Y-72088687D01*
X63666039Y-72088687D02*
X63727944Y-72026782D01*
X63727944Y-72026782D02*
X63851754Y-71964878D01*
X63851754Y-71964878D02*
X64037468Y-71964878D01*
X64037468Y-71964878D02*
X64161277Y-72026782D01*
X64161277Y-72026782D02*
X64223182Y-72088687D01*
X64223182Y-72088687D02*
X64285087Y-72212497D01*
X64285087Y-72212497D02*
X64285087Y-72583925D01*
X64285087Y-72583925D02*
X64223182Y-72707735D01*
X64223182Y-72707735D02*
X64161277Y-72769640D01*
X64161277Y-72769640D02*
X64037468Y-72831544D01*
X64037468Y-72831544D02*
X63851754Y-72831544D01*
X64656515Y-71964878D02*
X65151753Y-71964878D01*
X64842229Y-72831544D02*
X64842229Y-71717259D01*
X64842229Y-71717259D02*
X64904134Y-71593449D01*
X64904134Y-71593449D02*
X65027944Y-71531544D01*
X65027944Y-71531544D02*
X65151753Y-71531544D01*
X65399372Y-71964878D02*
X65894610Y-71964878D01*
X65585086Y-71531544D02*
X65585086Y-72645830D01*
X65585086Y-72645830D02*
X65646991Y-72769640D01*
X65646991Y-72769640D02*
X65770801Y-72831544D01*
X65770801Y-72831544D02*
X65894610Y-72831544D01*
X66204134Y-71964878D02*
X66451753Y-72831544D01*
X66451753Y-72831544D02*
X66699372Y-72212497D01*
X66699372Y-72212497D02*
X66946991Y-72831544D01*
X66946991Y-72831544D02*
X67194610Y-71964878D01*
X68246991Y-72831544D02*
X68246991Y-72150592D01*
X68246991Y-72150592D02*
X68185086Y-72026782D01*
X68185086Y-72026782D02*
X68061277Y-71964878D01*
X68061277Y-71964878D02*
X67813658Y-71964878D01*
X67813658Y-71964878D02*
X67689848Y-72026782D01*
X68246991Y-72769640D02*
X68123182Y-72831544D01*
X68123182Y-72831544D02*
X67813658Y-72831544D01*
X67813658Y-72831544D02*
X67689848Y-72769640D01*
X67689848Y-72769640D02*
X67627944Y-72645830D01*
X67627944Y-72645830D02*
X67627944Y-72522020D01*
X67627944Y-72522020D02*
X67689848Y-72398211D01*
X67689848Y-72398211D02*
X67813658Y-72336306D01*
X67813658Y-72336306D02*
X68123182Y-72336306D01*
X68123182Y-72336306D02*
X68246991Y-72274401D01*
X68866038Y-72831544D02*
X68866038Y-71964878D01*
X68866038Y-72212497D02*
X68927943Y-72088687D01*
X68927943Y-72088687D02*
X68989848Y-72026782D01*
X68989848Y-72026782D02*
X69113657Y-71964878D01*
X69113657Y-71964878D02*
X69237467Y-71964878D01*
X70166038Y-72769640D02*
X70042229Y-72831544D01*
X70042229Y-72831544D02*
X69794610Y-72831544D01*
X69794610Y-72831544D02*
X69670800Y-72769640D01*
X69670800Y-72769640D02*
X69608896Y-72645830D01*
X69608896Y-72645830D02*
X69608896Y-72150592D01*
X69608896Y-72150592D02*
X69670800Y-72026782D01*
X69670800Y-72026782D02*
X69794610Y-71964878D01*
X69794610Y-71964878D02*
X70042229Y-71964878D01*
X70042229Y-71964878D02*
X70166038Y-72026782D01*
X70166038Y-72026782D02*
X70227943Y-72150592D01*
X70227943Y-72150592D02*
X70227943Y-72274401D01*
X70227943Y-72274401D02*
X69608896Y-72398211D01*
X63170801Y-76707735D02*
X63108897Y-76769640D01*
X63108897Y-76769640D02*
X62923182Y-76831544D01*
X62923182Y-76831544D02*
X62799373Y-76831544D01*
X62799373Y-76831544D02*
X62613659Y-76769640D01*
X62613659Y-76769640D02*
X62489849Y-76645830D01*
X62489849Y-76645830D02*
X62427944Y-76522020D01*
X62427944Y-76522020D02*
X62366040Y-76274401D01*
X62366040Y-76274401D02*
X62366040Y-76088687D01*
X62366040Y-76088687D02*
X62427944Y-75841068D01*
X62427944Y-75841068D02*
X62489849Y-75717259D01*
X62489849Y-75717259D02*
X62613659Y-75593449D01*
X62613659Y-75593449D02*
X62799373Y-75531544D01*
X62799373Y-75531544D02*
X62923182Y-75531544D01*
X62923182Y-75531544D02*
X63108897Y-75593449D01*
X63108897Y-75593449D02*
X63170801Y-75655354D01*
X63604135Y-75964878D02*
X63913659Y-76831544D01*
X64223182Y-75964878D02*
X63913659Y-76831544D01*
X63913659Y-76831544D02*
X63789849Y-77141068D01*
X63789849Y-77141068D02*
X63727944Y-77202973D01*
X63727944Y-77202973D02*
X63604135Y-77264878D01*
X64718420Y-76831544D02*
X64718420Y-75531544D01*
X64718420Y-76026782D02*
X64842230Y-75964878D01*
X64842230Y-75964878D02*
X65089849Y-75964878D01*
X65089849Y-75964878D02*
X65213658Y-76026782D01*
X65213658Y-76026782D02*
X65275563Y-76088687D01*
X65275563Y-76088687D02*
X65337468Y-76212497D01*
X65337468Y-76212497D02*
X65337468Y-76583925D01*
X65337468Y-76583925D02*
X65275563Y-76707735D01*
X65275563Y-76707735D02*
X65213658Y-76769640D01*
X65213658Y-76769640D02*
X65089849Y-76831544D01*
X65089849Y-76831544D02*
X64842230Y-76831544D01*
X64842230Y-76831544D02*
X64718420Y-76769640D01*
X66389848Y-76769640D02*
X66266039Y-76831544D01*
X66266039Y-76831544D02*
X66018420Y-76831544D01*
X66018420Y-76831544D02*
X65894610Y-76769640D01*
X65894610Y-76769640D02*
X65832706Y-76645830D01*
X65832706Y-76645830D02*
X65832706Y-76150592D01*
X65832706Y-76150592D02*
X65894610Y-76026782D01*
X65894610Y-76026782D02*
X66018420Y-75964878D01*
X66018420Y-75964878D02*
X66266039Y-75964878D01*
X66266039Y-75964878D02*
X66389848Y-76026782D01*
X66389848Y-76026782D02*
X66451753Y-76150592D01*
X66451753Y-76150592D02*
X66451753Y-76274401D01*
X66451753Y-76274401D02*
X65832706Y-76398211D01*
X67008896Y-76831544D02*
X67008896Y-75964878D01*
X67008896Y-76212497D02*
X67070801Y-76088687D01*
X67070801Y-76088687D02*
X67132706Y-76026782D01*
X67132706Y-76026782D02*
X67256515Y-75964878D01*
X67256515Y-75964878D02*
X67380325Y-75964878D01*
X68742230Y-76769640D02*
X68927944Y-76831544D01*
X68927944Y-76831544D02*
X69237468Y-76831544D01*
X69237468Y-76831544D02*
X69361277Y-76769640D01*
X69361277Y-76769640D02*
X69423182Y-76707735D01*
X69423182Y-76707735D02*
X69485087Y-76583925D01*
X69485087Y-76583925D02*
X69485087Y-76460116D01*
X69485087Y-76460116D02*
X69423182Y-76336306D01*
X69423182Y-76336306D02*
X69361277Y-76274401D01*
X69361277Y-76274401D02*
X69237468Y-76212497D01*
X69237468Y-76212497D02*
X68989849Y-76150592D01*
X68989849Y-76150592D02*
X68866039Y-76088687D01*
X68866039Y-76088687D02*
X68804134Y-76026782D01*
X68804134Y-76026782D02*
X68742230Y-75902973D01*
X68742230Y-75902973D02*
X68742230Y-75779163D01*
X68742230Y-75779163D02*
X68804134Y-75655354D01*
X68804134Y-75655354D02*
X68866039Y-75593449D01*
X68866039Y-75593449D02*
X68989849Y-75531544D01*
X68989849Y-75531544D02*
X69299372Y-75531544D01*
X69299372Y-75531544D02*
X69485087Y-75593449D01*
X70537467Y-76769640D02*
X70413658Y-76831544D01*
X70413658Y-76831544D02*
X70166039Y-76831544D01*
X70166039Y-76831544D02*
X70042229Y-76769640D01*
X70042229Y-76769640D02*
X69980325Y-76645830D01*
X69980325Y-76645830D02*
X69980325Y-76150592D01*
X69980325Y-76150592D02*
X70042229Y-76026782D01*
X70042229Y-76026782D02*
X70166039Y-75964878D01*
X70166039Y-75964878D02*
X70413658Y-75964878D01*
X70413658Y-75964878D02*
X70537467Y-76026782D01*
X70537467Y-76026782D02*
X70599372Y-76150592D01*
X70599372Y-76150592D02*
X70599372Y-76274401D01*
X70599372Y-76274401D02*
X69980325Y-76398211D01*
X71713658Y-76769640D02*
X71589849Y-76831544D01*
X71589849Y-76831544D02*
X71342230Y-76831544D01*
X71342230Y-76831544D02*
X71218420Y-76769640D01*
X71218420Y-76769640D02*
X71156515Y-76707735D01*
X71156515Y-76707735D02*
X71094611Y-76583925D01*
X71094611Y-76583925D02*
X71094611Y-76212497D01*
X71094611Y-76212497D02*
X71156515Y-76088687D01*
X71156515Y-76088687D02*
X71218420Y-76026782D01*
X71218420Y-76026782D02*
X71342230Y-75964878D01*
X71342230Y-75964878D02*
X71589849Y-75964878D01*
X71589849Y-75964878D02*
X71713658Y-76026782D01*
X72827944Y-75964878D02*
X72827944Y-76831544D01*
X72270801Y-75964878D02*
X72270801Y-76645830D01*
X72270801Y-76645830D02*
X72332706Y-76769640D01*
X72332706Y-76769640D02*
X72456516Y-76831544D01*
X72456516Y-76831544D02*
X72642230Y-76831544D01*
X72642230Y-76831544D02*
X72766039Y-76769640D01*
X72766039Y-76769640D02*
X72827944Y-76707735D01*
X73446991Y-76831544D02*
X73446991Y-75964878D01*
X73446991Y-76212497D02*
X73508896Y-76088687D01*
X73508896Y-76088687D02*
X73570801Y-76026782D01*
X73570801Y-76026782D02*
X73694610Y-75964878D01*
X73694610Y-75964878D02*
X73818420Y-75964878D01*
X74251753Y-76831544D02*
X74251753Y-75964878D01*
X74251753Y-75531544D02*
X74189849Y-75593449D01*
X74189849Y-75593449D02*
X74251753Y-75655354D01*
X74251753Y-75655354D02*
X74313658Y-75593449D01*
X74313658Y-75593449D02*
X74251753Y-75531544D01*
X74251753Y-75531544D02*
X74251753Y-75655354D01*
X74685087Y-75964878D02*
X75180325Y-75964878D01*
X74870801Y-75531544D02*
X74870801Y-76645830D01*
X74870801Y-76645830D02*
X74932706Y-76769640D01*
X74932706Y-76769640D02*
X75056516Y-76831544D01*
X75056516Y-76831544D02*
X75180325Y-76831544D01*
X75489849Y-75964878D02*
X75799373Y-76831544D01*
X76108896Y-75964878D02*
X75799373Y-76831544D01*
X75799373Y-76831544D02*
X75675563Y-77141068D01*
X75675563Y-77141068D02*
X75613658Y-77202973D01*
X75613658Y-77202973D02*
X75489849Y-77264878D01*
D12*
X63978320Y-61715161D02*
X63244987Y-60667542D01*
X62721177Y-61715161D02*
X62721177Y-59515161D01*
X62721177Y-59515161D02*
X63559272Y-59515161D01*
X63559272Y-59515161D02*
X63768796Y-59619923D01*
X63768796Y-59619923D02*
X63873558Y-59724685D01*
X63873558Y-59724685D02*
X63978320Y-59934209D01*
X63978320Y-59934209D02*
X63978320Y-60248495D01*
X63978320Y-60248495D02*
X63873558Y-60458019D01*
X63873558Y-60458019D02*
X63768796Y-60562780D01*
X63768796Y-60562780D02*
X63559272Y-60667542D01*
X63559272Y-60667542D02*
X62721177Y-60667542D01*
X64711653Y-60248495D02*
X65235463Y-61715161D01*
X65759272Y-60248495D02*
X65235463Y-61715161D01*
X65235463Y-61715161D02*
X65025939Y-62238971D01*
X65025939Y-62238971D02*
X64921177Y-62343733D01*
X64921177Y-62343733D02*
X64711653Y-62448495D01*
X67540224Y-61715161D02*
X67540224Y-60562780D01*
X67540224Y-60562780D02*
X67435462Y-60353257D01*
X67435462Y-60353257D02*
X67225938Y-60248495D01*
X67225938Y-60248495D02*
X66806891Y-60248495D01*
X66806891Y-60248495D02*
X66597367Y-60353257D01*
X67540224Y-61610400D02*
X67330700Y-61715161D01*
X67330700Y-61715161D02*
X66806891Y-61715161D01*
X66806891Y-61715161D02*
X66597367Y-61610400D01*
X66597367Y-61610400D02*
X66492605Y-61400876D01*
X66492605Y-61400876D02*
X66492605Y-61191352D01*
X66492605Y-61191352D02*
X66597367Y-60981828D01*
X66597367Y-60981828D02*
X66806891Y-60877066D01*
X66806891Y-60877066D02*
X67330700Y-60877066D01*
X67330700Y-60877066D02*
X67540224Y-60772304D01*
X68587843Y-60248495D02*
X68587843Y-61715161D01*
X68587843Y-60458019D02*
X68692605Y-60353257D01*
X68692605Y-60353257D02*
X68902129Y-60248495D01*
X68902129Y-60248495D02*
X69216414Y-60248495D01*
X69216414Y-60248495D02*
X69425938Y-60353257D01*
X69425938Y-60353257D02*
X69530700Y-60562780D01*
X69530700Y-60562780D02*
X69530700Y-61715161D01*
X72673557Y-60667542D02*
X72673557Y-61715161D01*
X71940223Y-59515161D02*
X72673557Y-60667542D01*
X72673557Y-60667542D02*
X73406890Y-59515161D01*
X74978318Y-61610400D02*
X74768794Y-61715161D01*
X74768794Y-61715161D02*
X74349747Y-61715161D01*
X74349747Y-61715161D02*
X74140223Y-61610400D01*
X74140223Y-61610400D02*
X74035461Y-61400876D01*
X74035461Y-61400876D02*
X74035461Y-60562780D01*
X74035461Y-60562780D02*
X74140223Y-60353257D01*
X74140223Y-60353257D02*
X74349747Y-60248495D01*
X74349747Y-60248495D02*
X74768794Y-60248495D01*
X74768794Y-60248495D02*
X74978318Y-60353257D01*
X74978318Y-60353257D02*
X75083080Y-60562780D01*
X75083080Y-60562780D02*
X75083080Y-60772304D01*
X75083080Y-60772304D02*
X74035461Y-60981828D01*
X76025937Y-60248495D02*
X76025937Y-61715161D01*
X76025937Y-60458019D02*
X76130699Y-60353257D01*
X76130699Y-60353257D02*
X76340223Y-60248495D01*
X76340223Y-60248495D02*
X76654508Y-60248495D01*
X76654508Y-60248495D02*
X76864032Y-60353257D01*
X76864032Y-60353257D02*
X76968794Y-60562780D01*
X76968794Y-60562780D02*
X76968794Y-61715161D01*
X77911651Y-61610400D02*
X78121175Y-61715161D01*
X78121175Y-61715161D02*
X78540223Y-61715161D01*
X78540223Y-61715161D02*
X78749746Y-61610400D01*
X78749746Y-61610400D02*
X78854508Y-61400876D01*
X78854508Y-61400876D02*
X78854508Y-61296114D01*
X78854508Y-61296114D02*
X78749746Y-61086590D01*
X78749746Y-61086590D02*
X78540223Y-60981828D01*
X78540223Y-60981828D02*
X78225937Y-60981828D01*
X78225937Y-60981828D02*
X78016413Y-60877066D01*
X78016413Y-60877066D02*
X77911651Y-60667542D01*
X77911651Y-60667542D02*
X77911651Y-60562780D01*
X77911651Y-60562780D02*
X78016413Y-60353257D01*
X78016413Y-60353257D02*
X78225937Y-60248495D01*
X78225937Y-60248495D02*
X78540223Y-60248495D01*
X78540223Y-60248495D02*
X78749746Y-60353257D01*
X80740222Y-61610400D02*
X80530698Y-61715161D01*
X80530698Y-61715161D02*
X80111651Y-61715161D01*
X80111651Y-61715161D02*
X79902127Y-61610400D01*
X79902127Y-61610400D02*
X79797365Y-61505638D01*
X79797365Y-61505638D02*
X79692603Y-61296114D01*
X79692603Y-61296114D02*
X79692603Y-60667542D01*
X79692603Y-60667542D02*
X79797365Y-60458019D01*
X79797365Y-60458019D02*
X79902127Y-60353257D01*
X79902127Y-60353257D02*
X80111651Y-60248495D01*
X80111651Y-60248495D02*
X80530698Y-60248495D01*
X80530698Y-60248495D02*
X80740222Y-60353257D01*
X81683079Y-61715161D02*
X81683079Y-59515161D01*
X82625936Y-61715161D02*
X82625936Y-60562780D01*
X82625936Y-60562780D02*
X82521174Y-60353257D01*
X82521174Y-60353257D02*
X82311650Y-60248495D01*
X82311650Y-60248495D02*
X81997365Y-60248495D01*
X81997365Y-60248495D02*
X81787841Y-60353257D01*
X81787841Y-60353257D02*
X81683079Y-60458019D01*
%TO.C,R3*%
D13*
X123477500Y-76762742D02*
X123477500Y-77237258D01*
X124522500Y-76762742D02*
X124522500Y-77237258D01*
%TO.C,R1*%
X113262742Y-73477500D02*
X113737258Y-73477500D01*
X113262742Y-74522500D02*
X113737258Y-74522500D01*
%TO.C,U1*%
X112690000Y-77390000D02*
X117310000Y-77390000D01*
X112690000Y-77565000D02*
X112690000Y-77390000D01*
X112690000Y-80610000D02*
X112690000Y-80435000D01*
X117310000Y-77390000D02*
X117310000Y-77565000D01*
X117310000Y-80435000D02*
X117310000Y-80610000D01*
X117310000Y-80610000D02*
X112690000Y-80610000D01*
X112130000Y-77560000D02*
X111890000Y-77230000D01*
X112370000Y-77230000D01*
X112130000Y-77560000D01*
G36*
X112130000Y-77560000D02*
G01*
X111890000Y-77230000D01*
X112370000Y-77230000D01*
X112130000Y-77560000D01*
G37*
%TO.C,D1*%
X110161000Y-67205000D02*
X110161000Y-68675000D01*
X110161000Y-68675000D02*
X112446000Y-68675000D01*
X112446000Y-67205000D02*
X110161000Y-67205000D01*
%TO.C,R2*%
X116737258Y-73477500D02*
X116262742Y-73477500D01*
X116737258Y-74522500D02*
X116262742Y-74522500D01*
D14*
%TO.C,G\u002A\u002A\u002A*%
G36*
X104124030Y-84835290D02*
G01*
X103954030Y-84839760D01*
X103948590Y-76105030D01*
X104124030Y-84835290D01*
G37*
G36*
X104118590Y-76108630D02*
G01*
X104124030Y-84835290D01*
X103948590Y-76105030D01*
X104118590Y-76108630D01*
G37*
G36*
X104118590Y-76108630D02*
G01*
X103948590Y-76105030D01*
X103948910Y-76097640D01*
X104118590Y-76108630D01*
G37*
G36*
X104118590Y-76108630D02*
G01*
X103948910Y-76097640D01*
X104133420Y-75937520D01*
X104118590Y-76108630D01*
G37*
G36*
X103954490Y-84848470D02*
G01*
X103954030Y-84839760D01*
X104124030Y-84835290D01*
X103954490Y-84848470D01*
G37*
G36*
X104141910Y-85007760D02*
G01*
X103973700Y-85033800D01*
X103954490Y-84848470D01*
X104141910Y-85007760D01*
G37*
G36*
X104141910Y-85007760D02*
G01*
X103954490Y-84848470D01*
X104124030Y-84835290D01*
X104141910Y-85007760D01*
G37*
G36*
X104133420Y-75937520D02*
G01*
X103948910Y-76097640D01*
X103964660Y-75915770D01*
X104133420Y-75937520D01*
G37*
G36*
X104133420Y-75937520D02*
G01*
X103964660Y-75915770D01*
X103967060Y-75901810D01*
X104133420Y-75937520D01*
G37*
G36*
X103977140Y-85050470D02*
G01*
X103973700Y-85033800D01*
X104141910Y-85007760D01*
X103977140Y-85050470D01*
G37*
G36*
X104031670Y-85224320D02*
G01*
X103977140Y-85050470D01*
X104141910Y-85007760D01*
X104031670Y-85224320D01*
G37*
G36*
X104133420Y-75937520D02*
G01*
X103967060Y-75901810D01*
X104012950Y-75724470D01*
X104133420Y-75937520D01*
G37*
G36*
X104175800Y-75773760D02*
G01*
X104133420Y-75937520D01*
X104012950Y-75724470D01*
X104175800Y-75773760D01*
G37*
G36*
X104175800Y-75773760D02*
G01*
X104012950Y-75724470D01*
X104017480Y-75711440D01*
X104175800Y-75773760D01*
G37*
G36*
X104175800Y-75773760D02*
G01*
X104017480Y-75711440D01*
X104243740Y-75619810D01*
X104175800Y-75773760D01*
G37*
G36*
X104037990Y-85239290D02*
G01*
X104031670Y-85224320D01*
X104191430Y-85165650D01*
X104037990Y-85239290D01*
G37*
G36*
X104191430Y-85165650D02*
G01*
X104031670Y-85224320D01*
X104141910Y-85007760D01*
X104191430Y-85165650D01*
G37*
G36*
X104123540Y-85397610D02*
G01*
X104037990Y-85239290D01*
X104191430Y-85165650D01*
X104123540Y-85397610D01*
G37*
G36*
X104243740Y-75619810D02*
G01*
X104017480Y-75711440D01*
X104091080Y-75544670D01*
X104243740Y-75619810D01*
G37*
G36*
X104243740Y-75619810D02*
G01*
X104091080Y-75544670D01*
X104097860Y-75532250D01*
X104243740Y-75619810D01*
G37*
G36*
X104243740Y-75619810D02*
G01*
X104097860Y-75532250D01*
X104334510Y-75481980D01*
X104243740Y-75619810D01*
G37*
G36*
X104132250Y-85410670D02*
G01*
X104123540Y-85397610D01*
X104269360Y-85309860D01*
X104132250Y-85410670D01*
G37*
G36*
X104269360Y-85309860D02*
G01*
X104123540Y-85397610D01*
X104191430Y-85165650D01*
X104269360Y-85309860D01*
G37*
G36*
X104334510Y-75481980D02*
G01*
X104097860Y-75532250D01*
X104196740Y-75382080D01*
X104334510Y-75481980D01*
G37*
G36*
X104334510Y-75481980D02*
G01*
X104196740Y-75382080D01*
X104206250Y-75370140D01*
X104334510Y-75481980D01*
G37*
G36*
X104334510Y-75481980D02*
G01*
X104206250Y-75370140D01*
X104445040Y-75366190D01*
X104334510Y-75481980D01*
G37*
G36*
X104255390Y-85560570D02*
G01*
X104244530Y-85549420D01*
X104371770Y-85436410D01*
X104255390Y-85560570D01*
G37*
G36*
X104244530Y-85549420D02*
G01*
X104132250Y-85410670D01*
X104269360Y-85309860D01*
X104244530Y-85549420D01*
G37*
G36*
X104371770Y-85436410D02*
G01*
X104244530Y-85549420D01*
X104269360Y-85309860D01*
X104371770Y-85436410D01*
G37*
G36*
X104390120Y-85675700D02*
G01*
X104255390Y-85560570D01*
X104494480Y-85541270D01*
X104390120Y-85675700D01*
G37*
G36*
X104494480Y-85541270D02*
G01*
X104255390Y-85560570D01*
X104371770Y-85436410D01*
X104494480Y-85541270D01*
G37*
G36*
X104445040Y-75366190D02*
G01*
X104206250Y-75370140D01*
X104327990Y-75242600D01*
X104445040Y-75366190D01*
G37*
G36*
X104445040Y-75366190D02*
G01*
X104327990Y-75242600D01*
X104340950Y-75231510D01*
X104445040Y-75366190D01*
G37*
G36*
X104572240Y-75277730D02*
G01*
X104445040Y-75366190D01*
X104340950Y-75231510D01*
X104572240Y-75277730D01*
G37*
G36*
X104403130Y-85684860D02*
G01*
X104390120Y-85675700D01*
X104494480Y-85541270D01*
X104403130Y-85684860D01*
G37*
G36*
X104556010Y-85772320D02*
G01*
X104403130Y-85684860D01*
X104633130Y-85620590D01*
X104556010Y-85772320D01*
G37*
G36*
X104633130Y-85620590D02*
G01*
X104403130Y-85684860D01*
X104494480Y-85541270D01*
X104633130Y-85620590D01*
G37*
G36*
X104572240Y-75277730D02*
G01*
X104340950Y-75231510D01*
X104483120Y-75132640D01*
X104572240Y-75277730D01*
G37*
G36*
X104572240Y-75277730D02*
G01*
X104483120Y-75132640D01*
X104500040Y-75123520D01*
X104572240Y-75277730D01*
G37*
G36*
X104713590Y-75221090D02*
G01*
X104572240Y-75277730D01*
X104500040Y-75123520D01*
X104713590Y-75221090D01*
G37*
G36*
X104571270Y-85779150D02*
G01*
X104556010Y-85772320D01*
X104633130Y-85620590D01*
X104571270Y-85779150D01*
G37*
G36*
X104738010Y-85834900D02*
G01*
X104571270Y-85779150D01*
X104783420Y-85670830D01*
X104738010Y-85834900D01*
G37*
G36*
X104783420Y-85670830D02*
G01*
X104571270Y-85779150D01*
X104633130Y-85620590D01*
X104783420Y-85670830D01*
G37*
G36*
X104713590Y-75221090D02*
G01*
X104500040Y-75123520D01*
X104660210Y-75059340D01*
X104713590Y-75221090D01*
G37*
G36*
X104713590Y-75221090D02*
G01*
X104660210Y-75059340D01*
X104680580Y-75053990D01*
X104713590Y-75221090D01*
G37*
G36*
X104755390Y-85838740D02*
G01*
X104738010Y-85834900D01*
X104783420Y-85670830D01*
X104755390Y-85838740D01*
G37*
G36*
X104931700Y-85858720D02*
G01*
X104755390Y-85838740D01*
X104783420Y-85670830D01*
X104931700Y-85858720D01*
G37*
G36*
X104713590Y-75221090D02*
G01*
X104680580Y-75053990D01*
X104856330Y-75030540D01*
X104713590Y-75221090D01*
G37*
G36*
X104873470Y-75199750D02*
G01*
X104713590Y-75221090D01*
X104856330Y-75030540D01*
X104873470Y-75199750D01*
G37*
G36*
X104873470Y-75199750D02*
G01*
X104856330Y-75030540D01*
X104867060Y-75029790D01*
X104873470Y-75199750D01*
G37*
G36*
X104940910Y-85859260D02*
G01*
X104931700Y-85858720D01*
X104946240Y-85689280D01*
X104940910Y-85859260D01*
G37*
G36*
X104946240Y-85689280D02*
G01*
X104931700Y-85858720D01*
X104783420Y-85670830D01*
X104946240Y-85689280D01*
G37*
G36*
X107134540Y-85868490D02*
G01*
X104940910Y-85859260D01*
X104946240Y-85689280D01*
X107134540Y-85868490D01*
G37*
G36*
X107131170Y-85698470D02*
G01*
X107134540Y-85868490D01*
X104946240Y-85689280D01*
X107131170Y-85698470D01*
G37*
G36*
X107142710Y-85868130D02*
G01*
X107134540Y-85868490D01*
X107131170Y-85698470D01*
X107142710Y-85868130D01*
G37*
G36*
X107142710Y-85868130D02*
G01*
X107131170Y-85698470D01*
X107321400Y-85680910D01*
X107142710Y-85868130D01*
G37*
G36*
X107345360Y-85849420D02*
G01*
X107142710Y-85868130D01*
X107321400Y-85680910D01*
X107345360Y-85849420D01*
G37*
G36*
X104873470Y-75199750D02*
G01*
X104867060Y-75029790D01*
X107177670Y-75016020D01*
X104873470Y-75199750D01*
G37*
G36*
X107174410Y-75186050D02*
G01*
X104873470Y-75199750D01*
X107177670Y-75016020D01*
X107174410Y-75186050D01*
G37*
G36*
X107353150Y-75203020D02*
G01*
X107174410Y-75186050D01*
X107186210Y-75016400D01*
X107353150Y-75203020D01*
G37*
G36*
X107186210Y-75016400D02*
G01*
X107174410Y-75186050D01*
X107177670Y-75016020D01*
X107186210Y-75016400D01*
G37*
G36*
X107361720Y-85846270D02*
G01*
X107345360Y-85849420D01*
X107321400Y-85680910D01*
X107361720Y-85846270D01*
G37*
G36*
X107361720Y-85846270D02*
G01*
X107321400Y-85680910D01*
X107492040Y-85630290D01*
X107361720Y-85846270D01*
G37*
G36*
X107548530Y-85790850D02*
G01*
X107361720Y-85846270D01*
X107492040Y-85630290D01*
X107548530Y-85790850D01*
G37*
G36*
X107377820Y-75034600D02*
G01*
X107353150Y-75203020D01*
X107186210Y-75016400D01*
X107377820Y-75034600D01*
G37*
G36*
X107394680Y-75037940D02*
G01*
X107353150Y-75203020D01*
X107377820Y-75034600D01*
X107394680Y-75037940D01*
G37*
G36*
X107720680Y-70513170D02*
G01*
X107550690Y-70515950D01*
X107532630Y-65173360D01*
X107720680Y-70513170D01*
G37*
G36*
X107702640Y-65174370D02*
G01*
X107720680Y-70513170D01*
X107532630Y-65173360D01*
X107702640Y-65174370D01*
G37*
G36*
X107702640Y-65174370D02*
G01*
X107532630Y-65173360D01*
X107532680Y-65170190D01*
X107702640Y-65174370D01*
G37*
G36*
X107702640Y-65174370D02*
G01*
X107532680Y-65170190D01*
X107711200Y-64921860D01*
X107702640Y-65174370D01*
G37*
G36*
X107711200Y-64921860D02*
G01*
X107532680Y-65170190D01*
X107541430Y-64912140D01*
X107711200Y-64921860D01*
G37*
G36*
X107711200Y-64921860D02*
G01*
X107541430Y-64912140D01*
X107542070Y-64904250D01*
X107711200Y-64921860D01*
G37*
G36*
X107711200Y-64921860D02*
G01*
X107542070Y-64904250D01*
X107742260Y-64678730D01*
X107711200Y-64921860D01*
G37*
G36*
X107564180Y-85784460D02*
G01*
X107548530Y-85790850D01*
X107492040Y-85630290D01*
X107564180Y-85784460D01*
G37*
G36*
X107550810Y-70520350D02*
G01*
X107550690Y-70515950D01*
X107720680Y-70513170D01*
X107550810Y-70520350D01*
G37*
G36*
X107732850Y-70733350D02*
G01*
X107563350Y-70747090D01*
X107550810Y-70520350D01*
X107732850Y-70733350D01*
G37*
G36*
X107732850Y-70733350D02*
G01*
X107550810Y-70520350D01*
X107720680Y-70513170D01*
X107732850Y-70733350D01*
G37*
G36*
X107564270Y-70755760D02*
G01*
X107563350Y-70747090D01*
X107732850Y-70733350D01*
X107564270Y-70755760D01*
G37*
G36*
X107564180Y-85784460D02*
G01*
X107492040Y-85630290D01*
X107644610Y-85549390D01*
X107564180Y-85784460D01*
G37*
G36*
X107731770Y-85695590D02*
G01*
X107564180Y-85784460D01*
X107644610Y-85549390D01*
X107731770Y-85695590D01*
G37*
G36*
X107599540Y-70977340D02*
G01*
X107564270Y-70755760D01*
X107732850Y-70733350D01*
X107599540Y-70977340D01*
G37*
G36*
X107514610Y-75252480D02*
G01*
X107353150Y-75203020D01*
X107572570Y-75092440D01*
X107514610Y-75252480D01*
G37*
G36*
X107572570Y-75092440D02*
G01*
X107353150Y-75203020D01*
X107394680Y-75037940D01*
X107572570Y-75092440D01*
G37*
G36*
X107742260Y-64678730D02*
G01*
X107542070Y-64904250D01*
X107574130Y-64653260D01*
X107742260Y-64678730D01*
G37*
G36*
X107742260Y-64678730D02*
G01*
X107574130Y-64653260D01*
X107575500Y-64645450D01*
X107742260Y-64678730D01*
G37*
G36*
X107588220Y-75099010D02*
G01*
X107514610Y-75252480D01*
X107572570Y-75092440D01*
X107588220Y-75099010D01*
G37*
G36*
X107601300Y-70985690D02*
G01*
X107599540Y-70977340D01*
X107766750Y-70946410D01*
X107601300Y-70985690D01*
G37*
G36*
X107766750Y-70946410D02*
G01*
X107599540Y-70977340D01*
X107732850Y-70733350D01*
X107766750Y-70946410D01*
G37*
G36*
X107658120Y-71200820D02*
G01*
X107601300Y-70985690D01*
X107766750Y-70946410D01*
X107658120Y-71200820D01*
G37*
G36*
X107742260Y-64678730D02*
G01*
X107575500Y-64645450D01*
X107629890Y-64402600D01*
X107742260Y-64678730D01*
G37*
G36*
X107794910Y-64443620D02*
G01*
X107742260Y-64678730D01*
X107629890Y-64402600D01*
X107794910Y-64443620D01*
G37*
G36*
X107794910Y-64443620D02*
G01*
X107629890Y-64402600D01*
X107631980Y-64394970D01*
X107794910Y-64443620D01*
G37*
G36*
X107660640Y-71208770D02*
G01*
X107658120Y-71200820D01*
X107821410Y-71153370D01*
X107660640Y-71208770D01*
G37*
G36*
X107821410Y-71153370D02*
G01*
X107658120Y-71200820D01*
X107766750Y-70946410D01*
X107821410Y-71153370D01*
G37*
G36*
X107737840Y-71416130D02*
G01*
X107660640Y-71208770D01*
X107821410Y-71153370D01*
X107737840Y-71416130D01*
G37*
G36*
X107794910Y-64443620D02*
G01*
X107631980Y-64394970D01*
X107707710Y-64161350D01*
X107794910Y-64443620D01*
G37*
G36*
X107868210Y-64217530D02*
G01*
X107794910Y-64443620D01*
X107707710Y-64161350D01*
X107868210Y-64217530D01*
G37*
G36*
X107868210Y-64217530D02*
G01*
X107707710Y-64161350D01*
X107710490Y-64153960D01*
X107868210Y-64217530D01*
G37*
G36*
X107745880Y-85686200D02*
G01*
X107731770Y-85695590D01*
X107644610Y-85549390D01*
X107745880Y-85686200D01*
G37*
G36*
X107741060Y-71423640D02*
G01*
X107737840Y-71416130D01*
X107895730Y-71352990D01*
X107741060Y-71423640D01*
G37*
G36*
X107895730Y-71352990D02*
G01*
X107737840Y-71416130D01*
X107821410Y-71153370D01*
X107895730Y-71352990D01*
G37*
G36*
X107837470Y-71621930D02*
G01*
X107741060Y-71423640D01*
X107895730Y-71352990D01*
X107837470Y-71621930D01*
G37*
G36*
X107890790Y-85567250D02*
G01*
X107745880Y-85686200D01*
X107644610Y-85549390D01*
X107890790Y-85567250D01*
G37*
G36*
X107660250Y-75331540D02*
G01*
X107514610Y-75252480D01*
X107748730Y-75186140D01*
X107660250Y-75331540D01*
G37*
G36*
X107748730Y-75186140D02*
G01*
X107514610Y-75252480D01*
X107588220Y-75099010D01*
X107748730Y-75186140D01*
G37*
G36*
X107762560Y-75195520D02*
G01*
X107660250Y-75331540D01*
X107748730Y-75186140D01*
X107762560Y-75195520D01*
G37*
G36*
X107868210Y-64217530D02*
G01*
X107710490Y-64153960D01*
X107806580Y-63930650D01*
X107868210Y-64217530D01*
G37*
G36*
X107961180Y-64001470D02*
G01*
X107868210Y-64217530D01*
X107806580Y-63930650D01*
X107961180Y-64001470D01*
G37*
G36*
X107961180Y-64001470D02*
G01*
X107806580Y-63930650D01*
X107810020Y-63923580D01*
X107961180Y-64001470D01*
G37*
G36*
X107841320Y-71628980D02*
G01*
X107837470Y-71621930D01*
X107988600Y-71543980D01*
X107841320Y-71628980D01*
G37*
G36*
X107988600Y-71543980D02*
G01*
X107837470Y-71621930D01*
X107895730Y-71352990D01*
X107988600Y-71543980D01*
G37*
G36*
X107955760Y-71816890D02*
G01*
X107841320Y-71628980D01*
X107988600Y-71543980D01*
X107955760Y-71816890D01*
G37*
G36*
X107890790Y-85567250D02*
G01*
X107644610Y-85549390D01*
X107776360Y-85441240D01*
X107890790Y-85567250D01*
G37*
G36*
X107902750Y-85555250D02*
G01*
X107890790Y-85567250D01*
X107776360Y-85441240D01*
X107902750Y-85555250D01*
G37*
G36*
X107786910Y-75436980D02*
G01*
X107660250Y-75331540D01*
X107902060Y-75311640D01*
X107786910Y-75436980D01*
G37*
G36*
X107902060Y-75311640D02*
G01*
X107660250Y-75331540D01*
X107762560Y-75195520D01*
X107902060Y-75311640D01*
G37*
G36*
X107913670Y-75323400D02*
G01*
X107786910Y-75436980D01*
X107902060Y-75311640D01*
X107913670Y-75323400D01*
G37*
G36*
X107902750Y-85555250D02*
G01*
X107776360Y-85441240D01*
X108021510Y-85409570D01*
X107902750Y-85555250D01*
G37*
G36*
X107961180Y-64001470D02*
G01*
X107810020Y-63923580D01*
X107925500Y-63711680D01*
X107961180Y-64001470D01*
G37*
G36*
X108072900Y-63796480D02*
G01*
X107961180Y-64001470D01*
X107925500Y-63711680D01*
X108072900Y-63796480D01*
G37*
G36*
X108072900Y-63796480D02*
G01*
X107925500Y-63711680D01*
X107929570Y-63704980D01*
X108072900Y-63796480D01*
G37*
G36*
X107960200Y-71823460D02*
G01*
X107955760Y-71816890D01*
X108098890Y-71725070D01*
X107960200Y-71823460D01*
G37*
G36*
X108098890Y-71725070D02*
G01*
X107955760Y-71816890D01*
X107988600Y-71543980D01*
X108098890Y-71725070D01*
G37*
G36*
X108091500Y-71999680D02*
G01*
X107960200Y-71823460D01*
X108098890Y-71725070D01*
X108091500Y-71999680D01*
G37*
G36*
X108021510Y-85409570D02*
G01*
X107776360Y-85441240D01*
X107884390Y-85308720D01*
X108021510Y-85409570D01*
G37*
G36*
X108030810Y-85395510D02*
G01*
X108021510Y-85409570D01*
X107884390Y-85308720D01*
X108030810Y-85395510D01*
G37*
G36*
X108028500Y-75464850D02*
G01*
X107891290Y-75565570D01*
X107786910Y-75436980D01*
X108028500Y-75464850D01*
G37*
G36*
X108028500Y-75464850D02*
G01*
X107786910Y-75436980D01*
X107913670Y-75323400D01*
X108028500Y-75464850D01*
G37*
G36*
X108030350Y-84890610D02*
G01*
X108037530Y-76062320D01*
X108207540Y-76058310D01*
X108030350Y-84890610D01*
G37*
G36*
X108030810Y-85395510D02*
G01*
X107884390Y-85308720D01*
X108119950Y-85226450D01*
X108030810Y-85395510D01*
G37*
G36*
X107970030Y-75714040D02*
G01*
X107891290Y-75565570D01*
X108037600Y-75478600D01*
X107970030Y-75714040D01*
G37*
G36*
X108037600Y-75478600D02*
G01*
X107891290Y-75565570D01*
X108028500Y-75464850D01*
X108037600Y-75478600D01*
G37*
G36*
X108072900Y-63796480D02*
G01*
X107929570Y-63704980D01*
X108063440Y-63505570D01*
X108072900Y-63796480D01*
G37*
G36*
X108202400Y-63603580D02*
G01*
X108072900Y-63796480D01*
X108063440Y-63505570D01*
X108202400Y-63603580D01*
G37*
G36*
X108202400Y-63603580D02*
G01*
X108063440Y-63505570D01*
X108068100Y-63499290D01*
X108202400Y-63603580D01*
G37*
G36*
X108096500Y-72005770D02*
G01*
X108091500Y-71999680D01*
X108225470Y-71894940D01*
X108096500Y-72005770D01*
G37*
G36*
X108225470Y-71894940D02*
G01*
X108091500Y-71999680D01*
X108098890Y-71725070D01*
X108225470Y-71894940D01*
G37*
G36*
X108367170Y-72052300D02*
G01*
X108096500Y-72005770D01*
X108225470Y-71894940D01*
X108367170Y-72052300D01*
G37*
G36*
X108119950Y-85226450D02*
G01*
X107884390Y-85308720D01*
X107965660Y-85154590D01*
X108119950Y-85226450D01*
G37*
G36*
X108126260Y-85210960D02*
G01*
X108119950Y-85226450D01*
X107965660Y-85154590D01*
X108126260Y-85210960D01*
G37*
G36*
X108124110Y-75641730D02*
G01*
X107970030Y-75714040D01*
X108037600Y-75478600D01*
X108124110Y-75641730D01*
G37*
G36*
X108126260Y-85210960D02*
G01*
X107965660Y-85154590D01*
X108182310Y-85021880D01*
X108126260Y-85210960D01*
G37*
G36*
X108019780Y-75879230D02*
G01*
X107970030Y-75714040D01*
X108130410Y-75657050D01*
X108019780Y-75879230D01*
G37*
G36*
X108130410Y-75657050D02*
G01*
X107970030Y-75714040D01*
X108124110Y-75641730D01*
X108130410Y-75657050D01*
G37*
G36*
X108182310Y-85021880D02*
G01*
X107965660Y-85154590D01*
X108017560Y-84979490D01*
X108182310Y-85021880D01*
G37*
G36*
X108184950Y-85009830D02*
G01*
X108182310Y-85021880D01*
X108017560Y-84979490D01*
X108184950Y-85009830D01*
G37*
G36*
X108184950Y-85009830D02*
G01*
X108017560Y-84979490D01*
X108199480Y-84908830D01*
X108184950Y-85009830D01*
G37*
G36*
X108184970Y-75838200D02*
G01*
X108019780Y-75879230D01*
X108130410Y-75657050D01*
X108184970Y-75838200D01*
G37*
G36*
X108188180Y-75854510D02*
G01*
X108019780Y-75879230D01*
X108184970Y-75838200D01*
X108188180Y-75854510D01*
G37*
G36*
X108199480Y-84908830D02*
G01*
X108017560Y-84979490D01*
X108030350Y-84890610D01*
X108199480Y-84908830D01*
G37*
G36*
X108200350Y-84896790D02*
G01*
X108199480Y-84908830D01*
X108030350Y-84890610D01*
X108200350Y-84896790D01*
G37*
G36*
X108200350Y-84896790D02*
G01*
X108030350Y-84890610D01*
X108207540Y-76058310D01*
X108200350Y-84896790D01*
G37*
G36*
X108207140Y-76050040D02*
G01*
X108037530Y-76062320D01*
X108019780Y-75879230D01*
X108207140Y-76050040D01*
G37*
G36*
X108207140Y-76050040D02*
G01*
X108019780Y-75879230D01*
X108188180Y-75854510D01*
X108207140Y-76050040D01*
G37*
G36*
X108207540Y-76058310D02*
G01*
X108037530Y-76062320D01*
X108207140Y-76050040D01*
X108207540Y-76058310D01*
G37*
G36*
X108202400Y-63603580D02*
G01*
X108068100Y-63499290D01*
X108219390Y-63313460D01*
X108202400Y-63603580D01*
G37*
G36*
X108348750Y-63423830D02*
G01*
X108202400Y-63603580D01*
X108219390Y-63313460D01*
X108348750Y-63423830D01*
G37*
G36*
X108348750Y-63423830D02*
G01*
X108219390Y-63313460D01*
X108224590Y-63307640D01*
X108348750Y-63423830D01*
G37*
G36*
X108348750Y-63423830D02*
G01*
X108224590Y-63307640D01*
X108511000Y-63258260D01*
X108348750Y-63423830D01*
G37*
G36*
X108249030Y-72174600D02*
G01*
X108243490Y-72168990D01*
X108367170Y-72052300D01*
X108249030Y-72174600D01*
G37*
G36*
X108367170Y-72052300D02*
G01*
X108243490Y-72168990D01*
X108096500Y-72005770D01*
X108367170Y-72052300D01*
G37*
G36*
X108522850Y-72195840D02*
G01*
X108410530Y-72323510D01*
X108249030Y-72174600D01*
X108522850Y-72195840D01*
G37*
G36*
X108522850Y-72195840D02*
G01*
X108249030Y-72174600D01*
X108367170Y-72052300D01*
X108522850Y-72195840D01*
G37*
G36*
X108511000Y-63258260D02*
G01*
X108224590Y-63307640D01*
X108392320Y-63136480D01*
X108511000Y-63258260D01*
G37*
G36*
X108511000Y-63258260D02*
G01*
X108392320Y-63136480D01*
X108398040Y-63131160D01*
X108511000Y-63258260D01*
G37*
G36*
X108511000Y-63258260D02*
G01*
X108398040Y-63131160D01*
X108688200Y-63107930D01*
X108511000Y-63258260D01*
G37*
G36*
X108416610Y-72328620D02*
G01*
X108410530Y-72323510D01*
X108522850Y-72195840D01*
X108416610Y-72328620D01*
G37*
G36*
X108591450Y-72461920D02*
G01*
X108416610Y-72328620D01*
X108691320Y-72324290D01*
X108591450Y-72461920D01*
G37*
G36*
X108691320Y-72324290D02*
G01*
X108416610Y-72328620D01*
X108522850Y-72195840D01*
X108691320Y-72324290D01*
G37*
G36*
X108527560Y-90917080D02*
G01*
X108527190Y-90909010D01*
X108697200Y-90905340D01*
X108527560Y-90917080D01*
G37*
G36*
X108706710Y-91007450D02*
G01*
X108538180Y-91031200D01*
X108527560Y-90917080D01*
X108706710Y-91007450D01*
G37*
G36*
X108706710Y-91007450D02*
G01*
X108527560Y-90917080D01*
X108697200Y-90905340D01*
X108706710Y-91007450D01*
G37*
G36*
X108697200Y-90905340D02*
G01*
X108527190Y-90909010D01*
X108532300Y-88586780D01*
X108697200Y-90905340D01*
G37*
G36*
X108702290Y-88591080D02*
G01*
X108697200Y-90905340D01*
X108532300Y-88586780D01*
X108702290Y-88591080D01*
G37*
G36*
X108702290Y-88591080D02*
G01*
X108532300Y-88586780D01*
X108532680Y-88578950D01*
X108702290Y-88591080D01*
G37*
G36*
X108702290Y-88591080D02*
G01*
X108532680Y-88578950D01*
X108713320Y-88474710D01*
X108702290Y-88591080D01*
G37*
G36*
X108541150Y-91046900D02*
G01*
X108538180Y-91031200D01*
X108706710Y-91007450D01*
X108541150Y-91046900D01*
G37*
G36*
X108572380Y-91155040D02*
G01*
X108541150Y-91046900D01*
X108706710Y-91007450D01*
X108572380Y-91155040D01*
G37*
G36*
X108713320Y-88474710D02*
G01*
X108532680Y-88578950D01*
X108544860Y-88450490D01*
X108713320Y-88474710D01*
G37*
G36*
X108713320Y-88474710D02*
G01*
X108544860Y-88450490D01*
X108547960Y-88434420D01*
X108713320Y-88474710D01*
G37*
G36*
X108713320Y-88474710D02*
G01*
X108547960Y-88434420D01*
X108743220Y-88373510D01*
X108713320Y-88474710D01*
G37*
G36*
X108738090Y-75983190D02*
G01*
X108574510Y-81924290D01*
X108568080Y-75976640D01*
X108738090Y-75983190D01*
G37*
G36*
X108738090Y-75983190D02*
G01*
X108568080Y-75976640D01*
X108569120Y-75963250D01*
X108738090Y-75983190D01*
G37*
G36*
X108578150Y-91169750D02*
G01*
X108572380Y-91155040D01*
X108733500Y-91100250D01*
X108578150Y-91169750D01*
G37*
G36*
X108733500Y-91100250D02*
G01*
X108572380Y-91155040D01*
X108706710Y-91007450D01*
X108733500Y-91100250D01*
G37*
G36*
X108574960Y-81932940D02*
G01*
X108574510Y-81924290D01*
X108744500Y-81919780D01*
X108574960Y-81932940D01*
G37*
G36*
X108744500Y-81919780D02*
G01*
X108574510Y-81924290D01*
X108738090Y-75983190D01*
X108744500Y-81919780D01*
G37*
G36*
X108767140Y-82138780D02*
G01*
X108598690Y-82162530D01*
X108574960Y-81932940D01*
X108767140Y-82138780D01*
G37*
G36*
X108767140Y-82138780D02*
G01*
X108574960Y-81932940D01*
X108744500Y-81919780D01*
X108767140Y-82138780D01*
G37*
G36*
X108776430Y-91185350D02*
G01*
X108628250Y-91269050D01*
X108578150Y-91169750D01*
X108776430Y-91185350D01*
G37*
G36*
X108776430Y-91185350D02*
G01*
X108578150Y-91169750D01*
X108733500Y-91100250D01*
X108776430Y-91185350D01*
G37*
G36*
X108688200Y-63107930D02*
G01*
X108398040Y-63131160D01*
X108581210Y-62975760D01*
X108688200Y-63107930D01*
G37*
G36*
X108743220Y-88373510D02*
G01*
X108547960Y-88434420D01*
X108582610Y-88317170D01*
X108743220Y-88373510D01*
G37*
G36*
X108688200Y-63107930D02*
G01*
X108581210Y-62975760D01*
X108587410Y-62970970D01*
X108688200Y-63107930D01*
G37*
G36*
X108879420Y-62973880D02*
G01*
X108688200Y-63107930D01*
X108587410Y-62970970D01*
X108879420Y-62973880D01*
G37*
G36*
X108743220Y-88373510D02*
G01*
X108582610Y-88317170D01*
X108589010Y-88301450D01*
X108743220Y-88373510D01*
G37*
G36*
X108743220Y-88373510D02*
G01*
X108589010Y-88301450D01*
X108790390Y-88284500D01*
X108743220Y-88373510D01*
G37*
G36*
X108598070Y-72466490D02*
G01*
X108591450Y-72461920D01*
X108691320Y-72324290D01*
X108598070Y-72466490D01*
G37*
G36*
X108738090Y-75983190D02*
G01*
X108569120Y-75963250D01*
X108592870Y-75813310D01*
X108738090Y-75983190D01*
G37*
G36*
X108760130Y-75843970D02*
G01*
X108738090Y-75983190D01*
X108592870Y-75813310D01*
X108760130Y-75843970D01*
G37*
G36*
X108760130Y-75843970D02*
G01*
X108592870Y-75813310D01*
X108594550Y-75805250D01*
X108760130Y-75843970D01*
G37*
G36*
X108760130Y-75843970D02*
G01*
X108594550Y-75805250D01*
X108795150Y-75709060D01*
X108760130Y-75843970D01*
G37*
G36*
X108785060Y-72582880D02*
G01*
X108598070Y-72466490D01*
X108871410Y-72436380D01*
X108785060Y-72582880D01*
G37*
G36*
X108871410Y-72436380D02*
G01*
X108598070Y-72466490D01*
X108691320Y-72324290D01*
X108871410Y-72436380D01*
G37*
G36*
X108600910Y-82174930D02*
G01*
X108598690Y-82162530D01*
X108767140Y-82138780D01*
X108600910Y-82174930D01*
G37*
G36*
X108629510Y-82286340D02*
G01*
X108600910Y-82174930D01*
X108767140Y-82138780D01*
X108629510Y-82286340D01*
G37*
G36*
X108636710Y-91282520D02*
G01*
X108628250Y-91269050D01*
X108776430Y-91185350D01*
X108636710Y-91282520D01*
G37*
G36*
X108633290Y-82297700D02*
G01*
X108629510Y-82286340D01*
X108792680Y-82238270D01*
X108633290Y-82297700D01*
G37*
G36*
X108792680Y-82238270D02*
G01*
X108629510Y-82286340D01*
X108767140Y-82138780D01*
X108792680Y-82238270D01*
G37*
G36*
X108795150Y-75709060D02*
G01*
X108594550Y-75805250D01*
X108631650Y-75662320D01*
X108795150Y-75709060D01*
G37*
G36*
X108721030Y-82509820D02*
G01*
X108633290Y-82297700D01*
X108792680Y-82238270D01*
X108721030Y-82509820D01*
G37*
G36*
X108795150Y-75709060D02*
G01*
X108631650Y-75662320D01*
X108634130Y-75654380D01*
X108795150Y-75709060D01*
G37*
G36*
X108795150Y-75709060D02*
G01*
X108634130Y-75654380D01*
X108841330Y-75583290D01*
X108795150Y-75709060D01*
G37*
G36*
X108703970Y-91370150D02*
G01*
X108636710Y-91282520D01*
X108833840Y-91260150D01*
X108703970Y-91370150D01*
G37*
G36*
X108833840Y-91260150D02*
G01*
X108636710Y-91282520D01*
X108776430Y-91185350D01*
X108833840Y-91260150D01*
G37*
G36*
X108790390Y-88284500D02*
G01*
X108589010Y-88301450D01*
X108644240Y-88197220D01*
X108790390Y-88284500D01*
G37*
G36*
X108790390Y-88284500D02*
G01*
X108644240Y-88197220D01*
X108653850Y-88182850D01*
X108790390Y-88284500D01*
G37*
G36*
X108853230Y-88208520D02*
G01*
X108790390Y-88284500D01*
X108653850Y-88182850D01*
X108853230Y-88208520D01*
G37*
G36*
X108841330Y-75583290D02*
G01*
X108634130Y-75654380D01*
X108683890Y-75518840D01*
X108841330Y-75583290D01*
G37*
G36*
X108841330Y-75583290D02*
G01*
X108683890Y-75518840D01*
X108689030Y-75507490D01*
X108841330Y-75583290D01*
G37*
G36*
X108841330Y-75583290D02*
G01*
X108689030Y-75507490D01*
X108969100Y-75348560D01*
X108841330Y-75583290D01*
G37*
G36*
X108797790Y-91455200D02*
G01*
X108715100Y-91382080D01*
X108904030Y-91322200D01*
X108797790Y-91455200D01*
G37*
G36*
X108715100Y-91382080D02*
G01*
X108703970Y-91370150D01*
X108833840Y-91260150D01*
X108715100Y-91382080D01*
G37*
G36*
X108904030Y-91322200D02*
G01*
X108715100Y-91382080D01*
X108833840Y-91260150D01*
X108904030Y-91322200D01*
G37*
G36*
X108726210Y-82520240D02*
G01*
X108721030Y-82509820D01*
X108875900Y-82439450D01*
X108726210Y-82520240D01*
G37*
G36*
X108875900Y-82439450D02*
G01*
X108721030Y-82509820D01*
X108792680Y-82238270D01*
X108875900Y-82439450D01*
G37*
G36*
X108784180Y-82619360D02*
G01*
X108726210Y-82520240D01*
X108875900Y-82439450D01*
X108784180Y-82619360D01*
G37*
G36*
X108853230Y-88208520D02*
G01*
X108653850Y-88182850D01*
X108727780Y-88093460D01*
X108853230Y-88208520D01*
G37*
G36*
X108853230Y-88208520D02*
G01*
X108727780Y-88093460D01*
X108740130Y-88081310D01*
X108853230Y-88208520D01*
G37*
G36*
X108790620Y-82628840D02*
G01*
X108784180Y-82619360D01*
X108928030Y-82528580D01*
X108790620Y-82628840D01*
G37*
G36*
X108928030Y-82528580D02*
G01*
X108784180Y-82619360D01*
X108875900Y-82439450D01*
X108928030Y-82528580D01*
G37*
G36*
X108879420Y-62973880D02*
G01*
X108587410Y-62970970D01*
X108785060Y-62832420D01*
X108879420Y-62973880D01*
G37*
G36*
X108792220Y-72586870D02*
G01*
X108785060Y-72582880D01*
X108871410Y-72436380D01*
X108792220Y-72586870D01*
G37*
G36*
X109060930Y-82698380D02*
G01*
X108931840Y-82809270D01*
X108790620Y-82628840D01*
X109060930Y-82698380D01*
G37*
G36*
X109060930Y-82698380D02*
G01*
X108790620Y-82628840D01*
X108928030Y-82528580D01*
X109060930Y-82698380D01*
G37*
G36*
X108879420Y-62973880D02*
G01*
X108785060Y-62832420D01*
X108791680Y-62828220D01*
X108879420Y-62973880D01*
G37*
G36*
X109083720Y-62857160D02*
G01*
X108879420Y-62973880D01*
X108791680Y-62828220D01*
X109083720Y-62857160D01*
G37*
G36*
X108990200Y-72685020D02*
G01*
X108792220Y-72586870D01*
X109061960Y-72530850D01*
X108990200Y-72685020D01*
G37*
G36*
X109061960Y-72530850D02*
G01*
X108792220Y-72586870D01*
X108871410Y-72436380D01*
X109061960Y-72530850D01*
G37*
G36*
X108811540Y-91465100D02*
G01*
X108797790Y-91455200D01*
X108904030Y-91322200D01*
X108811540Y-91465100D01*
G37*
G36*
X108907950Y-91520860D02*
G01*
X108811540Y-91465100D01*
X108985410Y-91369280D01*
X108907950Y-91520860D01*
G37*
G36*
X108985410Y-91369280D02*
G01*
X108811540Y-91465100D01*
X108904030Y-91322200D01*
X108985410Y-91369280D01*
G37*
G36*
X108969100Y-75348560D02*
G01*
X108689030Y-75507490D01*
X108823730Y-75260030D01*
X108969100Y-75348560D01*
G37*
G36*
X108853230Y-88208520D02*
G01*
X108740130Y-88081310D01*
X108830860Y-88008600D01*
X108853230Y-88208520D01*
G37*
G36*
X108930460Y-88146640D02*
G01*
X108853230Y-88208520D01*
X108830860Y-88008600D01*
X108930460Y-88146640D01*
G37*
G36*
X108969100Y-75348560D02*
G01*
X108823730Y-75260030D01*
X108832940Y-75246430D01*
X108969100Y-75348560D01*
G37*
G36*
X108930460Y-88146640D02*
G01*
X108830860Y-88008600D01*
X108845210Y-87999310D01*
X108930460Y-88146640D01*
G37*
G36*
X108924010Y-91528050D02*
G01*
X108907950Y-91520860D01*
X108985410Y-91369280D01*
X108924010Y-91528050D01*
G37*
G36*
X109032420Y-91563620D02*
G01*
X108924010Y-91528050D01*
X109076830Y-91399270D01*
X109032420Y-91563620D01*
G37*
G36*
X109076830Y-91399270D02*
G01*
X108924010Y-91528050D01*
X108985410Y-91369280D01*
X109076830Y-91399270D01*
G37*
G36*
X108942430Y-82820530D02*
G01*
X108931840Y-82809270D01*
X109060930Y-82698380D01*
X108942430Y-82820530D01*
G37*
G36*
X109113460Y-82971940D02*
G01*
X108942430Y-82820530D01*
X109060930Y-82698380D01*
X109113460Y-82971940D01*
G37*
G36*
X108930460Y-88146640D02*
G01*
X108845210Y-87999310D01*
X108950870Y-87945110D01*
X108930460Y-88146640D01*
G37*
G36*
X109021030Y-88100180D02*
G01*
X108930460Y-88146640D01*
X108950870Y-87945110D01*
X109021030Y-88100180D01*
G37*
G36*
X109021030Y-88100180D02*
G01*
X108950870Y-87945110D01*
X108966340Y-87939000D01*
X109021030Y-88100180D01*
G37*
G36*
X108997880Y-72688370D02*
G01*
X108990200Y-72685020D01*
X109061960Y-72530850D01*
X108997880Y-72688370D01*
G37*
G36*
X109205670Y-72766990D02*
G01*
X108997880Y-72688370D01*
X109261810Y-72606470D01*
X109205670Y-72766990D01*
G37*
G36*
X109261810Y-72606470D02*
G01*
X108997880Y-72688370D01*
X109061960Y-72530850D01*
X109261810Y-72606470D01*
G37*
G36*
X109083720Y-62857160D02*
G01*
X108791680Y-62828220D01*
X109002820Y-62707600D01*
X109083720Y-62857160D01*
G37*
G36*
X109083720Y-62857160D02*
G01*
X109002820Y-62707600D01*
X109009820Y-62704010D01*
X109083720Y-62857160D01*
G37*
G36*
X109300180Y-62758820D02*
G01*
X109083720Y-62857160D01*
X109009820Y-62704010D01*
X109300180Y-62758820D01*
G37*
G36*
X108969100Y-75348560D02*
G01*
X108832940Y-75246430D01*
X109009880Y-75032940D01*
X108969100Y-75348560D01*
G37*
G36*
X109136920Y-75146070D02*
G01*
X108969100Y-75348560D01*
X109009880Y-75032940D01*
X109136920Y-75146070D01*
G37*
G36*
X109136920Y-75146070D02*
G01*
X109009880Y-75032940D01*
X109018200Y-75024240D01*
X109136920Y-75146070D01*
G37*
G36*
X109050000Y-91567390D02*
G01*
X109032420Y-91563620D01*
X109076830Y-91399270D01*
X109050000Y-91567390D01*
G37*
G36*
X109168680Y-91579910D02*
G01*
X109050000Y-91567390D01*
X109076830Y-91399270D01*
X109168680Y-91579910D01*
G37*
G36*
X109021030Y-88100180D02*
G01*
X108966340Y-87939000D01*
X109085030Y-87905130D01*
X109021030Y-88100180D01*
G37*
G36*
X109123980Y-88070800D02*
G01*
X109021030Y-88100180D01*
X109085030Y-87905130D01*
X109123980Y-88070800D01*
G37*
G36*
X109123980Y-88070800D02*
G01*
X109085030Y-87905130D01*
X109100720Y-87902210D01*
X109123980Y-88070800D01*
G37*
G36*
X109122980Y-82979240D02*
G01*
X109113460Y-82971940D01*
X109221640Y-82840670D01*
X109122980Y-82979240D01*
G37*
G36*
X109221640Y-82840670D02*
G01*
X109113460Y-82971940D01*
X109060930Y-82698380D01*
X109221640Y-82840670D01*
G37*
G36*
X109136920Y-75146070D02*
G01*
X109018200Y-75024240D01*
X109120770Y-74931150D01*
X109136920Y-75146070D01*
G37*
G36*
X109230680Y-75060980D02*
G01*
X109136920Y-75146070D01*
X109120770Y-74931150D01*
X109230680Y-75060980D01*
G37*
G36*
X109218200Y-83042090D02*
G01*
X109122980Y-82979240D01*
X109306560Y-82896710D01*
X109218200Y-83042090D01*
G37*
G36*
X109306560Y-82896710D02*
G01*
X109122980Y-82979240D01*
X109221640Y-82840670D01*
X109306560Y-82896710D01*
G37*
G36*
X109230680Y-75060980D02*
G01*
X109120770Y-74931150D01*
X109129940Y-74923910D01*
X109230680Y-75060980D01*
G37*
G36*
X109230680Y-75060980D02*
G01*
X109129940Y-74923910D01*
X109449390Y-74911570D01*
X109230680Y-75060980D01*
G37*
G36*
X109177570Y-91580380D02*
G01*
X109168680Y-91579910D01*
X109182090Y-91410390D01*
X109177570Y-91580380D01*
G37*
G36*
X109182090Y-91410390D02*
G01*
X109168680Y-91579910D01*
X109076830Y-91399270D01*
X109182090Y-91410390D01*
G37*
G36*
X113988770Y-91412280D02*
G01*
X109177570Y-91580380D01*
X109182090Y-91410390D01*
X113988770Y-91412280D01*
G37*
G36*
X113998850Y-91582280D02*
G01*
X109177570Y-91580380D01*
X113988770Y-91412280D01*
X113998850Y-91582280D01*
G37*
G36*
X109213820Y-72769610D02*
G01*
X109205670Y-72766990D01*
X109261810Y-72606470D01*
X109213820Y-72769610D01*
G37*
G36*
X109430250Y-72827390D02*
G01*
X109213820Y-72769610D01*
X109469860Y-72662010D01*
X109430250Y-72827390D01*
G37*
G36*
X109469860Y-72662010D02*
G01*
X109213820Y-72769610D01*
X109261810Y-72606470D01*
X109469860Y-72662010D01*
G37*
G36*
X109229250Y-83048250D02*
G01*
X109218200Y-83042090D01*
X109306560Y-82896710D01*
X109229250Y-83048250D01*
G37*
G36*
X109436200Y-83144290D02*
G01*
X109229250Y-83048250D01*
X109501740Y-82987290D01*
X109436200Y-83144290D01*
G37*
G36*
X109501740Y-82987290D02*
G01*
X109229250Y-83048250D01*
X109306560Y-82896710D01*
X109501740Y-82987290D01*
G37*
G36*
X109123980Y-88070800D02*
G01*
X109100720Y-87902210D01*
X109230550Y-87890490D01*
X109123980Y-88070800D01*
G37*
G36*
X109242030Y-88060150D02*
G01*
X109123980Y-88070800D01*
X109230550Y-87890490D01*
X109242030Y-88060150D01*
G37*
G36*
X109300180Y-62758820D02*
G01*
X109009820Y-62704010D01*
X109233460Y-62602410D01*
X109300180Y-62758820D01*
G37*
G36*
X109242030Y-88060150D02*
G01*
X109230550Y-87890490D01*
X109238170Y-87890150D01*
X109242030Y-88060150D01*
G37*
G36*
X113918180Y-88058910D02*
G01*
X109242030Y-88060150D01*
X109238170Y-87890150D01*
X113918180Y-88058910D01*
G37*
G36*
X109300180Y-62758820D02*
G01*
X109233460Y-62602410D01*
X109240790Y-62599490D01*
X109300180Y-62758820D01*
G37*
G36*
X109527880Y-62679920D02*
G01*
X109300180Y-62758820D01*
X109240790Y-62599490D01*
X109527880Y-62679920D01*
G37*
G36*
X109449390Y-74911570D02*
G01*
X109129940Y-74923910D01*
X109359760Y-74766920D01*
X109449390Y-74911570D01*
G37*
G36*
X109449390Y-74911570D02*
G01*
X109359760Y-74766920D01*
X109372950Y-74759530D01*
X109449390Y-74911570D01*
G37*
G36*
X109569580Y-87526780D02*
G01*
X109399580Y-87611780D01*
X109399580Y-83546990D01*
X109569580Y-87526780D01*
G37*
G36*
X109569580Y-83631990D02*
G01*
X109569580Y-87526780D01*
X109399580Y-83546990D01*
X109569580Y-83631990D01*
G37*
G36*
X109413910Y-87659000D02*
G01*
X109401220Y-87628360D01*
X109399580Y-87611780D01*
X109413910Y-87659000D01*
G37*
G36*
X109399580Y-83546990D02*
G01*
X109401220Y-83530400D01*
X109424480Y-83486880D01*
X109399580Y-83546990D01*
G37*
G36*
X109401220Y-83530400D02*
G01*
X109413910Y-83499760D01*
X109424480Y-83486880D01*
X109401220Y-83530400D01*
G37*
G36*
X109452060Y-87690310D02*
G01*
X109424480Y-87671880D01*
X109413910Y-87659000D01*
X109452060Y-87690310D01*
G37*
G36*
X109438810Y-72829210D02*
G01*
X109430250Y-72827390D01*
X109469860Y-72662010D01*
X109438810Y-72829210D01*
G37*
G36*
X109448610Y-83148910D02*
G01*
X109436200Y-83144290D01*
X109501740Y-82987290D01*
X109448610Y-83148910D01*
G37*
G36*
X109662700Y-72864830D02*
G01*
X109438810Y-72829210D01*
X109685000Y-72696240D01*
X109662700Y-72864830D01*
G37*
G36*
X109685000Y-72696240D02*
G01*
X109438810Y-72829210D01*
X109469860Y-72662010D01*
X109685000Y-72696240D01*
G37*
G36*
X109559170Y-83180520D02*
G01*
X109448610Y-83148910D01*
X109599150Y-83015140D01*
X109559170Y-83180520D01*
G37*
G36*
X109599150Y-83015140D02*
G01*
X109448610Y-83148910D01*
X109501740Y-82987290D01*
X109599150Y-83015140D01*
G37*
G36*
X109399580Y-83546990D02*
G01*
X109424480Y-83486880D01*
X109452060Y-83468460D01*
X109399580Y-83546990D01*
G37*
G36*
X109452060Y-87690310D02*
G01*
X109413910Y-87659000D01*
X109399580Y-87611780D01*
X109452060Y-87690310D01*
G37*
G36*
X109468000Y-87695150D02*
G01*
X109452060Y-87690310D01*
X109399580Y-87611780D01*
X109468000Y-87695150D01*
G37*
G36*
X109628110Y-68713770D02*
G01*
X109458110Y-68717700D01*
X109456790Y-67161850D01*
X109628110Y-68713770D01*
G37*
G36*
X109626800Y-67165400D02*
G01*
X109628110Y-68713770D01*
X109456790Y-67161850D01*
X109626800Y-67165400D01*
G37*
G36*
X109626800Y-67165400D02*
G01*
X109456790Y-67161850D01*
X109457110Y-67154470D01*
X109626800Y-67165400D01*
G37*
G36*
X109626800Y-67165400D02*
G01*
X109457110Y-67154470D01*
X109632490Y-67099370D01*
X109626800Y-67165400D01*
G37*
G36*
X109458450Y-68725240D02*
G01*
X109458110Y-68717700D01*
X109628110Y-68713770D01*
X109458450Y-68725240D01*
G37*
G36*
X109633930Y-68778430D02*
G01*
X109465340Y-68801730D01*
X109458450Y-68725240D01*
X109633930Y-68778430D01*
G37*
G36*
X109633930Y-68778430D02*
G01*
X109458450Y-68725240D01*
X109628110Y-68713770D01*
X109633930Y-68778430D01*
G37*
G36*
X109632490Y-67099370D02*
G01*
X109457110Y-67154470D01*
X109463820Y-67076690D01*
X109632490Y-67099370D01*
G37*
G36*
X109468300Y-68817590D02*
G01*
X109465340Y-68801730D01*
X109633930Y-68778430D01*
X109468300Y-68817590D01*
G37*
G36*
X109632490Y-67099370D02*
G01*
X109463820Y-67076690D01*
X109466720Y-67060830D01*
X109632490Y-67099370D01*
G37*
G36*
X109632490Y-67099370D02*
G01*
X109466720Y-67060830D01*
X109647490Y-67046420D01*
X109632490Y-67099370D01*
G37*
G36*
X109484580Y-87696780D02*
G01*
X109468000Y-87695150D01*
X109399580Y-87611780D01*
X109484580Y-87696780D01*
G37*
G36*
X109649090Y-68831200D02*
G01*
X109488090Y-68886470D01*
X109468300Y-68817590D01*
X109649090Y-68831200D01*
G37*
G36*
X109649090Y-68831200D02*
G01*
X109468300Y-68817590D01*
X109633930Y-68778430D01*
X109649090Y-68831200D01*
G37*
G36*
X109527880Y-62679920D02*
G01*
X109240790Y-62599490D01*
X109475950Y-62517990D01*
X109527880Y-62679920D01*
G37*
G36*
X109527880Y-62679920D02*
G01*
X109475950Y-62517990D01*
X109483520Y-62515760D01*
X109527880Y-62679920D01*
G37*
G36*
X109569580Y-83631990D02*
G01*
X109399580Y-83546990D01*
X109484580Y-83461990D01*
X109569580Y-83631990D01*
G37*
G36*
X109399580Y-83546990D02*
G01*
X109452060Y-83468460D01*
X109484580Y-83461990D01*
X109399580Y-83546990D01*
G37*
G36*
X113440550Y-83631990D02*
G01*
X109569580Y-83631990D01*
X109484580Y-83461990D01*
X113440550Y-83631990D01*
G37*
G36*
X109484580Y-87696780D02*
G01*
X109399580Y-87611780D01*
X109569580Y-87526780D01*
X109484580Y-87696780D01*
G37*
G36*
X113525550Y-87696780D02*
G01*
X109484580Y-87696780D01*
X109569580Y-87526780D01*
X113525550Y-87696780D01*
G37*
G36*
X109647490Y-67046420D02*
G01*
X109466720Y-67060830D01*
X109486340Y-66991590D01*
X109647490Y-67046420D01*
G37*
G36*
X109494500Y-68902450D02*
G01*
X109488090Y-68886470D01*
X109649090Y-68831200D01*
X109494500Y-68902450D01*
G37*
G36*
X109647490Y-67046420D02*
G01*
X109486340Y-66991590D01*
X109492850Y-66975260D01*
X109647490Y-67046420D01*
G37*
G36*
X109670640Y-67002310D02*
G01*
X109647490Y-67046420D01*
X109492850Y-66975260D01*
X109670640Y-67002310D01*
G37*
G36*
X109526190Y-68962920D02*
G01*
X109494500Y-68902450D01*
X109672600Y-68876060D01*
X109526190Y-68962920D01*
G37*
G36*
X109672600Y-68876060D02*
G01*
X109494500Y-68902450D01*
X109649090Y-68831200D01*
X109672600Y-68876060D01*
G37*
G36*
X109670640Y-67002310D02*
G01*
X109492850Y-66975260D01*
X109524410Y-66915110D01*
X109670640Y-67002310D01*
G37*
G36*
X109536090Y-68977770D02*
G01*
X109526190Y-68962920D01*
X109672600Y-68876060D01*
X109536090Y-68977770D01*
G37*
G36*
X109670640Y-67002310D02*
G01*
X109524410Y-66915110D01*
X109534690Y-66899830D01*
X109670640Y-67002310D01*
G37*
G36*
X109701250Y-66965990D02*
G01*
X109670640Y-67002310D01*
X109534690Y-66899830D01*
X109701250Y-66965990D01*
G37*
G36*
X109703680Y-68913480D02*
G01*
X109536090Y-68977770D01*
X109672600Y-68876060D01*
X109703680Y-68913480D01*
G37*
G36*
X109572920Y-83183250D02*
G01*
X109559170Y-83180520D01*
X109599150Y-83015140D01*
X109572920Y-83183250D01*
G37*
G36*
X109805280Y-83209710D02*
G01*
X109572920Y-83183250D01*
X109599150Y-83015140D01*
X109805280Y-83209710D01*
G37*
G36*
X109701250Y-66965990D02*
G01*
X109534690Y-66899830D01*
X109577240Y-66849350D01*
X109701250Y-66965990D01*
G37*
G36*
X109591500Y-69041530D02*
G01*
X109578660Y-69029030D01*
X109703680Y-68913480D01*
X109591500Y-69041530D01*
G37*
G36*
X109578660Y-69029030D02*
G01*
X109536090Y-68977770D01*
X109703680Y-68913480D01*
X109578660Y-69029030D01*
G37*
G36*
X109701250Y-66965990D02*
G01*
X109577240Y-66849350D01*
X109590560Y-66836640D01*
X109701250Y-66965990D01*
G37*
G36*
X109736050Y-66939350D02*
G01*
X109701250Y-66965990D01*
X109590560Y-66836640D01*
X109736050Y-66939350D01*
G37*
G36*
X109643960Y-69082790D02*
G01*
X109591500Y-69041530D01*
X109738780Y-68941090D01*
X109643960Y-69082790D01*
G37*
G36*
X109738780Y-68941090D02*
G01*
X109591500Y-69041530D01*
X109703680Y-68913480D01*
X109738780Y-68941090D01*
G37*
G36*
X109449390Y-74911570D02*
G01*
X109372950Y-74759530D01*
X109631020Y-74643900D01*
X109449390Y-74911570D01*
G37*
G36*
X109693820Y-74802050D02*
G01*
X109449390Y-74911570D01*
X109631020Y-74643900D01*
X109693820Y-74802050D01*
G37*
G36*
X109736050Y-66939350D02*
G01*
X109590560Y-66836640D01*
X109643140Y-66796390D01*
X109736050Y-66939350D01*
G37*
G36*
X109666460Y-69095490D02*
G01*
X109643960Y-69082790D01*
X109738780Y-68941090D01*
X109666460Y-69095490D01*
G37*
G36*
X109693820Y-74802050D02*
G01*
X109631020Y-74643900D01*
X109644850Y-74639090D01*
X109693820Y-74802050D01*
G37*
G36*
X109671570Y-72865770D02*
G01*
X109662700Y-72864830D01*
X109685000Y-72696240D01*
X109671570Y-72865770D01*
G37*
G36*
X109736050Y-66939350D02*
G01*
X109643140Y-66796390D01*
X109665890Y-66783950D01*
X109736050Y-66939350D01*
G37*
G36*
X109796950Y-69144810D02*
G01*
X109666460Y-69095490D01*
X109738780Y-68941090D01*
X109796950Y-69144810D01*
G37*
G36*
X109901750Y-72877930D02*
G01*
X109671570Y-72865770D01*
X109685000Y-72696240D01*
X109901750Y-72877930D01*
G37*
G36*
X109527880Y-62679920D02*
G01*
X109483520Y-62515760D01*
X109729220Y-62455460D01*
X109527880Y-62679920D01*
G37*
G36*
X109765900Y-62621500D02*
G01*
X109527880Y-62679920D01*
X109729220Y-62455460D01*
X109765900Y-62621500D01*
G37*
G36*
X109765900Y-62621500D02*
G01*
X109729220Y-62455460D01*
X109736960Y-62453940D01*
X109765900Y-62621500D01*
G37*
G36*
X110010920Y-62585020D02*
G01*
X109765900Y-62621500D01*
X109736960Y-62453940D01*
X110010920Y-62585020D01*
G37*
G36*
X109819800Y-69149990D02*
G01*
X109796950Y-69144810D01*
X109845980Y-68981600D01*
X109819800Y-69149990D01*
G37*
G36*
X109845980Y-68981600D02*
G01*
X109796950Y-69144810D01*
X109738780Y-68941090D01*
X109845980Y-68981600D01*
G37*
G36*
X109736050Y-66939350D02*
G01*
X109665890Y-66783950D01*
X109797280Y-66736420D01*
X109736050Y-66939350D01*
G37*
G36*
X109844370Y-66900170D02*
G01*
X109736050Y-66939350D01*
X109797280Y-66736420D01*
X109844370Y-66900170D01*
G37*
G36*
X109814760Y-83210260D02*
G01*
X109805280Y-83209710D01*
X109819790Y-83040270D01*
X109814760Y-83210260D01*
G37*
G36*
X109819790Y-83040270D02*
G01*
X109805280Y-83209710D01*
X109599150Y-83015140D01*
X109819790Y-83040270D01*
G37*
G36*
X120002710Y-83226250D02*
G01*
X109814760Y-83210260D01*
X109819790Y-83040270D01*
X120002710Y-83226250D01*
G37*
G36*
X109844370Y-66900170D02*
G01*
X109797280Y-66736420D01*
X109819420Y-66731620D01*
X109844370Y-66900170D01*
G37*
G36*
X109895820Y-69156450D02*
G01*
X109819800Y-69149990D01*
X109845980Y-68981600D01*
X109895820Y-69156450D01*
G37*
G36*
X109903040Y-69156760D02*
G01*
X109895820Y-69156450D01*
X109906610Y-68986760D01*
X109903040Y-69156760D01*
G37*
G36*
X109906610Y-68986760D02*
G01*
X109895820Y-69156450D01*
X109845980Y-68981600D01*
X109906610Y-68986760D01*
G37*
G36*
X109844370Y-66900170D02*
G01*
X109819420Y-66731620D01*
X109896320Y-66725470D01*
X109844370Y-66900170D01*
G37*
G36*
X109906510Y-66895200D02*
G01*
X109844370Y-66900170D01*
X109896320Y-66725470D01*
X109906510Y-66895200D01*
G37*
G36*
X109906230Y-72878050D02*
G01*
X109901750Y-72877930D01*
X109908480Y-72708050D01*
X109906230Y-72878050D01*
G37*
G36*
X109908480Y-72708050D02*
G01*
X109901750Y-72877930D01*
X109685000Y-72696240D01*
X109908480Y-72708050D01*
G37*
G36*
X109903040Y-69156760D02*
G01*
X109906610Y-68986760D01*
X113394540Y-68986020D01*
X109903040Y-69156760D01*
G37*
G36*
X113401180Y-69156020D02*
G01*
X109903040Y-69156760D01*
X113394540Y-68986020D01*
X113401180Y-69156020D01*
G37*
G36*
X109906510Y-66895200D02*
G01*
X109896320Y-66725470D01*
X109903080Y-66725200D01*
X109906510Y-66895200D01*
G37*
G36*
X113394950Y-66894370D02*
G01*
X109906510Y-66895200D01*
X109903080Y-66725200D01*
X113394950Y-66894370D01*
G37*
G36*
X120082480Y-72877890D02*
G01*
X109906230Y-72878050D01*
X109908480Y-72708050D01*
X120082480Y-72877890D01*
G37*
G36*
X109693820Y-74802050D02*
G01*
X109644850Y-74639090D01*
X109925570Y-74567780D01*
X109693820Y-74802050D01*
G37*
G36*
X109960480Y-74734310D02*
G01*
X109693820Y-74802050D01*
X109925570Y-74567780D01*
X109960480Y-74734310D01*
G37*
G36*
X109960480Y-74734310D02*
G01*
X109925570Y-74567780D01*
X109939660Y-74565430D01*
X109960480Y-74734310D01*
G37*
G36*
X110010920Y-62585020D02*
G01*
X109736960Y-62453940D01*
X109992220Y-62415930D01*
X110010920Y-62585020D01*
G37*
G36*
X110010920Y-62585020D02*
G01*
X109992220Y-62415930D01*
X110004970Y-62415000D01*
X110010920Y-62585020D01*
G37*
G36*
X109960480Y-74734310D02*
G01*
X109939660Y-74565430D01*
X110237450Y-74541400D01*
X109960480Y-74734310D01*
G37*
G36*
X110245620Y-74711290D02*
G01*
X109960480Y-74734310D01*
X110237450Y-74541400D01*
X110245620Y-74711290D01*
G37*
G36*
X110245620Y-74711290D02*
G01*
X110237450Y-74541400D01*
X110248490Y-74541230D01*
X110245620Y-74711290D01*
G37*
G36*
X110450850Y-74551230D02*
G01*
X110245620Y-74711290D01*
X110248490Y-74541230D01*
X110450850Y-74551230D01*
G37*
G36*
X110438190Y-74720820D02*
G01*
X110245620Y-74711290D01*
X110450850Y-74551230D01*
X110438190Y-74720820D01*
G37*
G36*
X110459330Y-74552080D02*
G01*
X110438190Y-74720820D01*
X110450850Y-74551230D01*
X110459330Y-74552080D01*
G37*
G36*
X110624380Y-74748900D02*
G01*
X110438190Y-74720820D01*
X110459330Y-74552080D01*
X110624380Y-74748900D01*
G37*
G36*
X110654260Y-74581480D02*
G01*
X110624380Y-74748900D01*
X110459330Y-74552080D01*
X110654260Y-74581480D01*
G37*
G36*
X110801810Y-74795570D02*
G01*
X110624380Y-74748900D01*
X110663200Y-74583330D01*
X110801810Y-74795570D01*
G37*
G36*
X110663200Y-74583330D02*
G01*
X110624380Y-74748900D01*
X110654260Y-74581480D01*
X110663200Y-74583330D01*
G37*
G36*
X110849750Y-74632400D02*
G01*
X110801810Y-74795570D01*
X110663200Y-74583330D01*
X110849750Y-74632400D01*
G37*
G36*
X110858970Y-74635390D02*
G01*
X110801810Y-74795570D01*
X110849750Y-74632400D01*
X110858970Y-74635390D01*
G37*
G36*
X110969760Y-74860970D02*
G01*
X110801810Y-74795570D01*
X110858970Y-74635390D01*
X110969760Y-74860970D01*
G37*
G36*
X111036190Y-74704410D02*
G01*
X110969760Y-74860970D01*
X110858970Y-74635390D01*
X111036190Y-74704410D01*
G37*
G36*
X111045420Y-74708650D02*
G01*
X110969760Y-74860970D01*
X111036190Y-74704410D01*
X111045420Y-74708650D01*
G37*
G36*
X111127600Y-74945340D02*
G01*
X110969760Y-74860970D01*
X111045420Y-74708650D01*
X111127600Y-74945340D01*
G37*
G36*
X111212350Y-74797880D02*
G01*
X111127600Y-74945340D01*
X111045420Y-74708650D01*
X111212350Y-74797880D01*
G37*
G36*
X111221250Y-74803360D02*
G01*
X111127600Y-74945340D01*
X111212350Y-74797880D01*
X111221250Y-74803360D01*
G37*
G36*
X111274710Y-75049000D02*
G01*
X111127600Y-74945340D01*
X111221250Y-74803360D01*
X111274710Y-75049000D01*
G37*
G36*
X111376950Y-74913080D02*
G01*
X111274710Y-75049000D01*
X111221250Y-74803360D01*
X111376950Y-74913080D01*
G37*
G36*
X111385170Y-74919670D02*
G01*
X111274710Y-75049000D01*
X111376950Y-74913080D01*
X111385170Y-74919670D01*
G37*
G36*
X111528690Y-75050150D02*
G01*
X111274710Y-75049000D01*
X111385170Y-74919670D01*
X111528690Y-75050150D01*
G37*
G36*
X111528690Y-75050150D02*
G01*
X111410470Y-75172430D01*
X111274710Y-75049000D01*
X111528690Y-75050150D01*
G37*
G36*
X111535940Y-75057600D02*
G01*
X111410470Y-75172430D01*
X111528690Y-75050150D01*
X111535940Y-75057600D01*
G37*
G36*
X111583740Y-75347610D02*
G01*
X111550770Y-75332480D01*
X111537460Y-75320010D01*
X111583740Y-75347610D01*
G37*
G36*
X111640890Y-75179570D02*
G01*
X111537460Y-75320010D01*
X111410470Y-75172430D01*
X111640890Y-75179570D01*
G37*
G36*
X111583740Y-75347610D02*
G01*
X111566440Y-75341830D01*
X111550770Y-75332480D01*
X111583740Y-75347610D01*
G37*
G36*
X111601880Y-75349570D02*
G01*
X111583740Y-75347610D01*
X111537460Y-75320010D01*
X111601880Y-75349570D01*
G37*
G36*
X111601880Y-75349570D02*
G01*
X111537460Y-75320010D01*
X111640890Y-75179570D01*
X111601880Y-75349570D01*
G37*
G36*
X118405440Y-75350310D02*
G01*
X111601880Y-75349570D01*
X111640890Y-75179570D01*
X118405440Y-75350310D01*
G37*
G36*
X111640890Y-75179570D02*
G01*
X111410470Y-75172430D01*
X111535940Y-75057600D01*
X111640890Y-75179570D01*
G37*
G36*
X111727440Y-74653800D02*
G01*
X111725690Y-74636540D01*
X111895710Y-74628090D01*
X111727440Y-74653800D01*
G37*
G36*
X111905280Y-74674600D02*
G01*
X111742360Y-74726360D01*
X111727440Y-74653800D01*
X111905280Y-74674600D01*
G37*
G36*
X111905280Y-74674600D02*
G01*
X111727440Y-74653800D01*
X111895710Y-74628090D01*
X111905280Y-74674600D01*
G37*
G36*
X111895710Y-74628090D02*
G01*
X111725690Y-74636540D01*
X111727590Y-73438540D01*
X111895710Y-74628090D01*
G37*
G36*
X111897580Y-73446400D02*
G01*
X111895710Y-74628090D01*
X111727590Y-73438540D01*
X111897580Y-73446400D01*
G37*
G36*
X111897580Y-73446400D02*
G01*
X111727590Y-73438540D01*
X111728960Y-73423460D01*
X111897580Y-73446400D01*
G37*
G36*
X111897580Y-73446400D02*
G01*
X111728960Y-73423460D01*
X111909370Y-73381570D01*
X111897580Y-73446400D01*
G37*
G36*
X111756300Y-74758420D02*
G01*
X111747670Y-74743110D01*
X111742360Y-74726360D01*
X111756300Y-74758420D01*
G37*
G36*
X111756300Y-74758420D02*
G01*
X111742360Y-74726360D01*
X111905280Y-74674600D01*
X111756300Y-74758420D01*
G37*
G36*
X111909370Y-73381570D02*
G01*
X111728960Y-73423460D01*
X111745480Y-73332620D01*
X111909370Y-73381570D01*
G37*
G36*
X111797490Y-74816460D02*
G01*
X111756300Y-74758420D01*
X111905280Y-74674600D01*
X111797490Y-74816460D01*
G37*
G36*
X111909370Y-73381570D02*
G01*
X111745480Y-73332620D01*
X111759730Y-73298730D01*
X111909370Y-73381570D01*
G37*
G36*
X111745480Y-73332620D02*
G01*
X111750750Y-73314900D01*
X111759730Y-73298730D01*
X111745480Y-73332620D01*
G37*
G36*
X111933870Y-73346950D02*
G01*
X111909370Y-73381570D01*
X111759730Y-73298730D01*
X111933870Y-73346950D01*
G37*
G36*
X111926930Y-74705120D02*
G01*
X111797490Y-74816460D01*
X111905280Y-74674600D01*
X111926930Y-74705120D01*
G37*
G36*
X111933870Y-73346950D02*
G01*
X111759730Y-73298730D01*
X111806390Y-73232800D01*
X111933870Y-73346950D01*
G37*
G36*
X111881630Y-74878950D02*
G01*
X111819950Y-74838190D01*
X111926930Y-74705120D01*
X111881630Y-74878950D01*
G37*
G36*
X111819950Y-74838190D02*
G01*
X111797490Y-74816460D01*
X111926930Y-74705120D01*
X111819950Y-74838190D01*
G37*
G36*
X111933870Y-73346950D02*
G01*
X111806390Y-73232800D01*
X111834780Y-73207440D01*
X111933870Y-73346950D01*
G37*
G36*
X111806390Y-73232800D02*
G01*
X111819150Y-73218510D01*
X111834780Y-73207440D01*
X111806390Y-73232800D01*
G37*
G36*
X111906250Y-74890070D02*
G01*
X111881630Y-74878950D01*
X111963940Y-74729570D01*
X111906250Y-74890070D01*
G37*
G36*
X111963940Y-74729570D02*
G01*
X111881630Y-74878950D01*
X111926930Y-74705120D01*
X111963940Y-74729570D01*
G37*
G36*
X111982670Y-74910780D02*
G01*
X111906250Y-74890070D01*
X111963940Y-74729570D01*
X111982670Y-74910780D01*
G37*
G36*
X111933870Y-73346950D02*
G01*
X111834780Y-73207440D01*
X111907780Y-73167250D01*
X111933870Y-73346950D01*
G37*
G36*
X111976140Y-73323680D02*
G01*
X111933870Y-73346950D01*
X111907780Y-73167250D01*
X111976140Y-73323680D01*
G37*
G36*
X111976140Y-73323680D02*
G01*
X111907780Y-73167250D01*
X111936810Y-73157560D01*
X111976140Y-73323680D01*
G37*
G36*
X112004970Y-74913740D02*
G01*
X111982670Y-74910780D01*
X112016190Y-74743740D01*
X112004970Y-74913740D01*
G37*
G36*
X112016190Y-74743740D02*
G01*
X111982670Y-74910780D01*
X111963940Y-74729570D01*
X112016190Y-74743740D01*
G37*
G36*
X118020060Y-74908880D02*
G01*
X112004970Y-74913740D01*
X112016190Y-74743740D01*
X118020060Y-74908880D01*
G37*
G36*
X111976140Y-73323680D02*
G01*
X111936810Y-73157560D01*
X112032340Y-73143980D01*
X111976140Y-73323680D01*
G37*
G36*
X112050310Y-73313140D02*
G01*
X111976140Y-73323680D01*
X112032340Y-73143980D01*
X112050310Y-73313140D01*
G37*
G36*
X112050310Y-73313140D02*
G01*
X112032340Y-73143980D01*
X112044330Y-73143130D01*
X112050310Y-73313140D01*
G37*
G36*
X118001070Y-73314620D02*
G01*
X112050310Y-73313140D01*
X112044330Y-73143130D01*
X118001070Y-73314620D01*
G37*
G36*
X113414310Y-69154990D02*
G01*
X113401180Y-69156020D01*
X113394540Y-68986020D01*
X113414310Y-69154990D01*
G37*
G36*
X113394950Y-66894370D02*
G01*
X109903080Y-66725200D01*
X113401390Y-66724370D01*
X113394950Y-66894370D01*
G37*
G36*
X113508750Y-66911800D02*
G01*
X113394950Y-66894370D01*
X113414280Y-66725350D01*
X113508750Y-66911800D01*
G37*
G36*
X113414280Y-66725350D02*
G01*
X113394950Y-66894370D01*
X113401390Y-66724370D01*
X113414280Y-66725350D01*
G37*
G36*
X113414310Y-69154990D02*
G01*
X113394540Y-68986020D01*
X113508340Y-68968200D01*
X113414310Y-69154990D01*
G37*
G36*
X113545220Y-69134500D02*
G01*
X113414310Y-69154990D01*
X113508340Y-68968200D01*
X113545220Y-69134500D01*
G37*
G36*
X113440550Y-87526780D02*
G01*
X113440550Y-83631990D01*
X113610550Y-83546990D01*
X113440550Y-87526780D01*
G37*
G36*
X113440550Y-83631990D02*
G01*
X109484580Y-83461990D01*
X113525550Y-83461990D01*
X113440550Y-83631990D01*
G37*
G36*
X113610550Y-83546990D02*
G01*
X113440550Y-83631990D01*
X113525550Y-83461990D01*
X113610550Y-83546990D01*
G37*
G36*
X113525550Y-87696780D02*
G01*
X109569580Y-87526780D01*
X113440550Y-87526780D01*
X113525550Y-87696780D01*
G37*
G36*
X113542140Y-87695150D02*
G01*
X113525550Y-87696780D01*
X113610550Y-87611780D01*
X113542140Y-87695150D01*
G37*
G36*
X113610550Y-87611780D02*
G01*
X113525550Y-87696780D01*
X113440550Y-87526780D01*
X113610550Y-87611780D01*
G37*
G36*
X113542140Y-83463620D02*
G01*
X113610550Y-83546990D01*
X113525550Y-83461990D01*
X113542140Y-83463620D01*
G37*
G36*
X113558080Y-87690310D02*
G01*
X113542140Y-87695150D01*
X113610550Y-87611780D01*
X113558080Y-87690310D01*
G37*
G36*
X113544950Y-66745360D02*
G01*
X113508750Y-66911800D01*
X113414280Y-66725350D01*
X113544950Y-66745360D01*
G37*
G36*
X113565650Y-69128610D02*
G01*
X113545220Y-69134500D01*
X113508340Y-68968200D01*
X113565650Y-69128610D01*
G37*
G36*
X113585660Y-87671880D02*
G01*
X113558080Y-87690310D01*
X113596230Y-87659000D01*
X113585660Y-87671880D01*
G37*
G36*
X113596230Y-87659000D02*
G01*
X113558080Y-87690310D01*
X113610550Y-87611780D01*
X113596230Y-87659000D01*
G37*
G36*
X113546160Y-66927620D02*
G01*
X113508750Y-66911800D01*
X113565180Y-66751090D01*
X113546160Y-66927620D01*
G37*
G36*
X113565180Y-66751090D02*
G01*
X113508750Y-66911800D01*
X113544950Y-66745360D01*
X113565180Y-66751090D01*
G37*
G36*
X113565650Y-69128610D02*
G01*
X113508340Y-68968200D01*
X113545800Y-68952100D01*
X113565650Y-69128610D01*
G37*
G36*
X113624220Y-69103430D02*
G01*
X113565650Y-69128610D01*
X113545800Y-68952100D01*
X113624220Y-69103430D01*
G37*
G36*
X113585660Y-83486880D02*
G01*
X113610550Y-83546990D01*
X113542140Y-83463620D01*
X113585660Y-83486880D01*
G37*
G36*
X113572780Y-83476310D02*
G01*
X113585660Y-83486880D01*
X113542140Y-83463620D01*
X113572780Y-83476310D01*
G37*
G36*
X113604080Y-83514460D02*
G01*
X113610550Y-83546990D01*
X113585660Y-83486880D01*
X113604080Y-83514460D01*
G37*
G36*
X113608920Y-87628360D02*
G01*
X113596230Y-87659000D01*
X113610550Y-87611780D01*
X113608920Y-87628360D01*
G37*
G36*
X113610550Y-87611780D02*
G01*
X113440550Y-87526780D01*
X113610550Y-83546990D01*
X113610550Y-87611780D01*
G37*
G36*
X113623720Y-66775840D02*
G01*
X113546160Y-66927620D01*
X113565180Y-66751090D01*
X113623720Y-66775840D01*
G37*
G36*
X113644940Y-69090740D02*
G01*
X113624220Y-69103430D01*
X113545800Y-68952100D01*
X113644940Y-69090740D01*
G37*
G36*
X113620780Y-66988990D02*
G01*
X113546160Y-66927620D01*
X113644620Y-66788480D01*
X113620780Y-66988990D01*
G37*
G36*
X113644620Y-66788480D02*
G01*
X113546160Y-66927620D01*
X113623720Y-66775840D01*
X113644620Y-66788480D01*
G37*
G36*
X113644940Y-69090740D02*
G01*
X113545800Y-68952100D01*
X113620640Y-68889960D01*
X113644940Y-69090740D01*
G37*
G36*
X113739850Y-69011940D02*
G01*
X113644940Y-69090740D01*
X113620640Y-68889960D01*
X113739850Y-69011940D01*
G37*
G36*
X113661890Y-68757180D02*
G01*
X113661970Y-67122580D01*
X113831970Y-67118170D01*
X113661890Y-68757180D01*
G37*
G36*
X113757720Y-66887300D02*
G01*
X113620780Y-66988990D01*
X113739560Y-66866570D01*
X113757720Y-66887300D01*
G37*
G36*
X113739560Y-66866570D02*
G01*
X113620780Y-66988990D01*
X113644620Y-66788480D01*
X113739560Y-66866570D01*
G37*
G36*
X113757760Y-68991400D02*
G01*
X113739850Y-69011940D01*
X113620640Y-68889960D01*
X113757760Y-68991400D01*
G37*
G36*
X113790700Y-68938370D02*
G01*
X113757760Y-68991400D01*
X113620640Y-68889960D01*
X113790700Y-68938370D01*
G37*
G36*
X113641190Y-67021790D02*
G01*
X113620780Y-66988990D01*
X113790700Y-66940290D01*
X113641190Y-67021790D01*
G37*
G36*
X113790700Y-66940290D02*
G01*
X113620780Y-66988990D01*
X113757720Y-66887300D01*
X113790700Y-66940290D01*
G37*
G36*
X113790700Y-68938370D02*
G01*
X113620640Y-68889960D01*
X113641170Y-68856920D01*
X113790700Y-68938370D01*
G37*
G36*
X113798970Y-68920900D02*
G01*
X113790700Y-68938370D01*
X113641170Y-68856920D01*
X113798970Y-68920900D01*
G37*
G36*
X113819980Y-68859170D02*
G01*
X113798970Y-68920900D01*
X113641170Y-68856920D01*
X113819980Y-68859170D01*
G37*
G36*
X113799030Y-66957900D02*
G01*
X113641190Y-67021790D01*
X113790700Y-66940290D01*
X113799030Y-66957900D01*
G37*
G36*
X113819980Y-68859170D02*
G01*
X113641170Y-68856920D01*
X113655970Y-68813420D01*
X113819980Y-68859170D01*
G37*
G36*
X113824040Y-68840680D02*
G01*
X113819980Y-68859170D01*
X113655970Y-68813420D01*
X113824040Y-68840680D01*
G37*
G36*
X113656020Y-67065530D02*
G01*
X113641190Y-67021790D01*
X113820070Y-67019950D01*
X113656020Y-67065530D01*
G37*
G36*
X113820070Y-67019950D02*
G01*
X113641190Y-67021790D01*
X113799030Y-66957900D01*
X113820070Y-67019950D01*
G37*
G36*
X113824040Y-68840680D02*
G01*
X113655970Y-68813420D01*
X113831420Y-68770540D01*
X113824040Y-68840680D01*
G37*
G36*
X113824120Y-67038430D02*
G01*
X113656020Y-67065530D01*
X113820070Y-67019950D01*
X113824120Y-67038430D01*
G37*
G36*
X113831420Y-68770540D02*
G01*
X113655970Y-68813420D01*
X113661890Y-68757180D01*
X113831420Y-68770540D01*
G37*
G36*
X113831890Y-68761650D02*
G01*
X113831420Y-68770540D01*
X113661890Y-68757180D01*
X113831890Y-68761650D01*
G37*
G36*
X113831510Y-67109360D02*
G01*
X113661970Y-67122580D01*
X113656020Y-67065530D01*
X113831510Y-67109360D01*
G37*
G36*
X113831510Y-67109360D02*
G01*
X113656020Y-67065530D01*
X113824120Y-67038430D01*
X113831510Y-67109360D01*
G37*
G36*
X113831890Y-68761650D02*
G01*
X113661890Y-68757180D01*
X113831970Y-67118170D01*
X113831890Y-68761650D01*
G37*
G36*
X113831970Y-67118170D02*
G01*
X113661970Y-67122580D01*
X113831510Y-67109360D01*
X113831970Y-67118170D01*
G37*
G36*
X113918180Y-88058910D02*
G01*
X109238170Y-87890150D01*
X113922040Y-87888910D01*
X113918180Y-88058910D01*
G37*
G36*
X114024000Y-88068620D02*
G01*
X113918180Y-88058910D01*
X113929820Y-87889270D01*
X114024000Y-88068620D01*
G37*
G36*
X113929820Y-87889270D02*
G01*
X113918180Y-88058910D01*
X113922040Y-87888910D01*
X113929820Y-87889270D01*
G37*
G36*
X114018870Y-91579900D02*
G01*
X113998850Y-91582280D01*
X113988770Y-91412280D01*
X114018870Y-91579900D01*
G37*
G36*
X114132330Y-91552460D02*
G01*
X114018870Y-91579900D01*
X113988770Y-91412280D01*
X114132330Y-91552460D01*
G37*
G36*
X114047330Y-87900040D02*
G01*
X114024000Y-88068620D01*
X113929820Y-87889270D01*
X114047330Y-87900040D01*
G37*
G36*
X114119650Y-88095640D02*
G01*
X114024000Y-88068620D01*
X114062670Y-87902890D01*
X114119650Y-88095640D01*
G37*
G36*
X114062670Y-87902890D02*
G01*
X114024000Y-88068620D01*
X114047330Y-87900040D01*
X114062670Y-87902890D01*
G37*
G36*
X114132330Y-91552460D02*
G01*
X113988770Y-91412280D01*
X114085790Y-91388810D01*
X114132330Y-91552460D01*
G37*
G36*
X114145140Y-91548250D02*
G01*
X114132330Y-91552460D01*
X114085790Y-91388810D01*
X114145140Y-91548250D01*
G37*
G36*
X114145140Y-91548250D02*
G01*
X114085790Y-91388810D01*
X114174980Y-91351500D01*
X114145140Y-91548250D01*
G37*
G36*
X114247210Y-91505560D02*
G01*
X114145140Y-91548250D01*
X114174980Y-91351500D01*
X114247210Y-91505560D01*
G37*
G36*
X114173420Y-87934170D02*
G01*
X114119650Y-88095640D01*
X114062670Y-87902890D01*
X114173420Y-87934170D01*
G37*
G36*
X114206700Y-88138710D02*
G01*
X114119650Y-88095640D01*
X114188010Y-87939790D01*
X114206700Y-88138710D01*
G37*
G36*
X114188010Y-87939790D02*
G01*
X114119650Y-88095640D01*
X114173420Y-87934170D01*
X114188010Y-87939790D01*
G37*
G36*
X114259910Y-91498940D02*
G01*
X114247210Y-91505560D01*
X114174980Y-91351500D01*
X114259910Y-91498940D01*
G37*
G36*
X114259910Y-91498940D02*
G01*
X114174980Y-91351500D01*
X114252030Y-91302660D01*
X114259910Y-91498940D01*
G37*
G36*
X114349430Y-91442200D02*
G01*
X114259910Y-91498940D01*
X114252030Y-91302660D01*
X114349430Y-91442200D01*
G37*
G36*
X114289260Y-87989890D02*
G01*
X114206700Y-88138710D01*
X114188010Y-87939790D01*
X114289260Y-87989890D01*
G37*
G36*
X114282740Y-88196170D02*
G01*
X114206700Y-88138710D01*
X114302800Y-87998260D01*
X114282740Y-88196170D01*
G37*
G36*
X114302800Y-87998260D02*
G01*
X114206700Y-88138710D01*
X114289260Y-87989890D01*
X114302800Y-87998260D01*
G37*
G36*
X114361400Y-91433040D02*
G01*
X114349430Y-91442200D01*
X114252030Y-91302660D01*
X114361400Y-91433040D01*
G37*
G36*
X114361400Y-91433040D02*
G01*
X114252030Y-91302660D01*
X114316480Y-91243530D01*
X114361400Y-91433040D01*
G37*
G36*
X114437210Y-91363470D02*
G01*
X114361400Y-91433040D01*
X114316480Y-91243530D01*
X114437210Y-91363470D01*
G37*
G36*
X114403910Y-88076640D02*
G01*
X114282740Y-88196170D01*
X114391810Y-88065510D01*
X114403910Y-88076640D01*
G37*
G36*
X114391810Y-88065510D02*
G01*
X114282740Y-88196170D01*
X114302800Y-87998260D01*
X114391810Y-88065510D01*
G37*
G36*
X114345530Y-88266320D02*
G01*
X114282740Y-88196170D01*
X114403910Y-88076640D01*
X114345530Y-88266320D01*
G37*
G36*
X114447720Y-91351870D02*
G01*
X114437210Y-91363470D01*
X114316480Y-91243530D01*
X114447720Y-91351870D01*
G37*
G36*
X114607750Y-90918310D02*
G01*
X114437750Y-90914830D01*
X114434460Y-88544790D01*
X114607750Y-90918310D01*
G37*
G36*
X114447720Y-91351870D02*
G01*
X114316480Y-91243530D01*
X114367900Y-91175030D01*
X114447720Y-91351870D01*
G37*
G36*
X114508660Y-91270680D02*
G01*
X114447720Y-91351870D01*
X114367900Y-91175030D01*
X114508660Y-91270680D01*
G37*
G36*
X114477950Y-88159360D02*
G01*
X114345530Y-88266320D01*
X114403910Y-88076640D01*
X114477950Y-88159360D01*
G37*
G36*
X114393010Y-88347680D02*
G01*
X114345530Y-88266320D01*
X114488020Y-88173200D01*
X114393010Y-88347680D01*
G37*
G36*
X114488020Y-88173200D02*
G01*
X114345530Y-88266320D01*
X114477950Y-88159360D01*
X114488020Y-88173200D01*
G37*
G36*
X114517000Y-91257080D02*
G01*
X114508660Y-91270680D01*
X114367900Y-91175030D01*
X114517000Y-91257080D01*
G37*
G36*
X114517000Y-91257080D02*
G01*
X114367900Y-91175030D01*
X114561930Y-91165470D01*
X114517000Y-91257080D01*
G37*
G36*
X114544340Y-88269710D02*
G01*
X114393010Y-88347680D01*
X114488020Y-88173200D01*
X114544340Y-88269710D01*
G37*
G36*
X114423230Y-88439200D02*
G01*
X114393010Y-88347680D01*
X114551640Y-88285900D01*
X114423230Y-88439200D01*
G37*
G36*
X114551640Y-88285900D02*
G01*
X114393010Y-88347680D01*
X114544340Y-88269710D01*
X114551640Y-88285900D01*
G37*
G36*
X114561930Y-91165470D02*
G01*
X114367900Y-91175030D01*
X114405770Y-91097790D01*
X114561930Y-91165470D01*
G37*
G36*
X114567560Y-91150600D02*
G01*
X114561930Y-91165470D01*
X114405770Y-91097790D01*
X114567560Y-91150600D01*
G37*
G36*
X114567560Y-91150600D02*
G01*
X114405770Y-91097790D01*
X114595300Y-91049790D01*
X114567560Y-91150600D01*
G37*
G36*
X114587500Y-88394520D02*
G01*
X114423230Y-88439200D01*
X114551640Y-88285900D01*
X114587500Y-88394520D01*
G37*
G36*
X114591310Y-88412180D02*
G01*
X114423230Y-88439200D01*
X114587500Y-88394520D01*
X114591310Y-88412180D01*
G37*
G36*
X114595300Y-91049790D02*
G01*
X114405770Y-91097790D01*
X114429330Y-91012180D01*
X114595300Y-91049790D01*
G37*
G36*
X114598030Y-91034550D02*
G01*
X114595300Y-91049790D01*
X114429330Y-91012180D01*
X114598030Y-91034550D01*
G37*
G36*
X114598030Y-91034550D02*
G01*
X114429330Y-91012180D01*
X114607440Y-90925750D01*
X114598030Y-91034550D01*
G37*
G36*
X114603980Y-88531240D02*
G01*
X114434460Y-88544790D01*
X114423230Y-88439200D01*
X114603980Y-88531240D01*
G37*
G36*
X114603980Y-88531240D02*
G01*
X114423230Y-88439200D01*
X114591310Y-88412180D01*
X114603980Y-88531240D01*
G37*
G36*
X114604450Y-88540110D02*
G01*
X114434460Y-88544790D01*
X114603980Y-88531240D01*
X114604450Y-88540110D01*
G37*
G36*
X114607440Y-90925750D02*
G01*
X114429330Y-91012180D01*
X114437750Y-90914830D01*
X114607440Y-90925750D01*
G37*
G36*
X114607750Y-90918310D02*
G01*
X114607440Y-90925750D01*
X114437750Y-90914830D01*
X114607750Y-90918310D01*
G37*
G36*
X114607750Y-90918310D02*
G01*
X114434460Y-88544790D01*
X114604450Y-88540110D01*
X114607750Y-90918310D01*
G37*
G36*
X115431650Y-90877130D02*
G01*
X115431320Y-90869090D01*
X115601350Y-90866310D01*
X115431650Y-90877130D01*
G37*
G36*
X115601350Y-90866310D02*
G01*
X115431320Y-90869090D01*
X115618520Y-88542720D01*
X115601350Y-90866310D01*
G37*
G36*
X115612210Y-90990270D02*
G01*
X115443610Y-91013660D01*
X115431650Y-90877130D01*
X115612210Y-90990270D01*
G37*
G36*
X115612210Y-90990270D02*
G01*
X115431650Y-90877130D01*
X115601350Y-90866310D01*
X115612210Y-90990270D01*
G37*
G36*
X115446810Y-91030460D02*
G01*
X115443610Y-91013660D01*
X115612210Y-90990270D01*
X115446810Y-91030460D01*
G37*
G36*
X115643690Y-91096210D02*
G01*
X115483290Y-91153250D01*
X115446810Y-91030460D01*
X115643690Y-91096210D01*
G37*
G36*
X115643690Y-91096210D02*
G01*
X115446810Y-91030460D01*
X115612210Y-90990270D01*
X115643690Y-91096210D01*
G37*
G36*
X115618520Y-88542720D02*
G01*
X115431320Y-90869090D01*
X115448550Y-88537290D01*
X115618520Y-88542720D01*
G37*
G36*
X115618520Y-88542720D02*
G01*
X115448550Y-88537290D01*
X115449020Y-88528980D01*
X115618520Y-88542720D01*
G37*
G36*
X115618520Y-88542720D02*
G01*
X115449020Y-88528980D01*
X115629040Y-88443260D01*
X115618520Y-88542720D01*
G37*
G36*
X115629040Y-88443260D02*
G01*
X115449020Y-88528980D01*
X115460860Y-88417070D01*
X115629040Y-88443260D01*
G37*
G36*
X115629040Y-88443260D02*
G01*
X115460860Y-88417070D01*
X115464220Y-88400800D01*
X115629040Y-88443260D01*
G37*
G36*
X115490160Y-91169750D02*
G01*
X115483290Y-91153250D01*
X115643690Y-91096210D01*
X115490160Y-91169750D01*
G37*
G36*
X115693790Y-91188020D02*
G01*
X115548910Y-91277430D01*
X115490160Y-91169750D01*
X115693790Y-91188020D01*
G37*
G36*
X115693790Y-91188020D02*
G01*
X115490160Y-91169750D01*
X115643690Y-91096210D01*
X115693790Y-91188020D01*
G37*
G36*
X115629040Y-88443260D02*
G01*
X115464220Y-88400800D01*
X115496730Y-88296110D01*
X115629040Y-88443260D01*
G37*
G36*
X115656650Y-88354370D02*
G01*
X115629040Y-88443260D01*
X115496730Y-88296110D01*
X115656650Y-88354370D01*
G37*
G36*
X115656650Y-88354370D02*
G01*
X115496730Y-88296110D01*
X115503050Y-88281040D01*
X115656650Y-88354370D01*
G37*
G36*
X115559210Y-91292280D02*
G01*
X115548910Y-91277430D01*
X115693790Y-91188020D01*
X115559210Y-91292280D01*
G37*
G36*
X115656650Y-88354370D02*
G01*
X115503050Y-88281040D01*
X115554230Y-88185930D01*
X115656650Y-88354370D01*
G37*
G36*
X115700090Y-88273640D02*
G01*
X115656650Y-88354370D01*
X115554230Y-88185930D01*
X115700090Y-88273640D01*
G37*
G36*
X115700090Y-88273640D02*
G01*
X115554230Y-88185930D01*
X115563220Y-88172470D01*
X115700090Y-88273640D01*
G37*
G36*
X115757630Y-88203100D02*
G01*
X115700090Y-88273640D01*
X115563220Y-88172470D01*
X115757630Y-88203100D01*
G37*
G36*
X115757630Y-88203100D02*
G01*
X115563220Y-88172470D01*
X115631060Y-88089320D01*
X115757630Y-88203100D01*
G37*
G36*
X115650900Y-91395590D02*
G01*
X115637980Y-91383460D01*
X115760800Y-91265580D01*
X115650900Y-91395590D01*
G37*
G36*
X115637980Y-91383460D02*
G01*
X115559210Y-91292280D01*
X115693790Y-91188020D01*
X115637980Y-91383460D01*
G37*
G36*
X115760800Y-91265580D02*
G01*
X115637980Y-91383460D01*
X115693790Y-91188020D01*
X115760800Y-91265580D01*
G37*
G36*
X115757630Y-88203100D02*
G01*
X115631060Y-88089320D01*
X115642470Y-88077780D01*
X115757630Y-88203100D01*
G37*
G36*
X115827500Y-88144820D02*
G01*
X115757630Y-88203100D01*
X115642470Y-88077780D01*
X115827500Y-88144820D01*
G37*
G36*
X115747440Y-91468880D02*
G01*
X115650900Y-91395590D01*
X115760800Y-91265580D01*
X115747440Y-91468880D01*
G37*
G36*
X115827500Y-88144820D02*
G01*
X115642470Y-88077780D01*
X115724960Y-88008970D01*
X115827500Y-88144820D01*
G37*
G36*
X115827500Y-88144820D02*
G01*
X115724960Y-88008970D01*
X115738580Y-87999690D01*
X115827500Y-88144820D01*
G37*
G36*
X115907940Y-88100770D02*
G01*
X115827500Y-88144820D01*
X115738580Y-87999690D01*
X115907940Y-88100770D01*
G37*
G36*
X115761920Y-91477750D02*
G01*
X115747440Y-91468880D01*
X115843450Y-91328330D01*
X115761920Y-91477750D01*
G37*
G36*
X115843450Y-91328330D02*
G01*
X115747440Y-91468880D01*
X115760800Y-91265580D01*
X115843450Y-91328330D01*
G37*
G36*
X115873960Y-91531790D02*
G01*
X115761920Y-91477750D01*
X115843450Y-91328330D01*
X115873960Y-91531790D01*
G37*
G36*
X115907940Y-88100770D02*
G01*
X115738580Y-87999690D01*
X115833710Y-87947590D01*
X115907940Y-88100770D01*
G37*
G36*
X115907940Y-88100770D02*
G01*
X115833710Y-87947590D01*
X115849220Y-87941010D01*
X115907940Y-88100770D01*
G37*
G36*
X115997390Y-88072860D02*
G01*
X115907940Y-88100770D01*
X115849220Y-87941010D01*
X115997390Y-88072860D01*
G37*
G36*
X115888990Y-91537360D02*
G01*
X115873960Y-91531790D01*
X115940560Y-91375170D01*
X115888990Y-91537360D01*
G37*
G36*
X115940560Y-91375170D02*
G01*
X115873960Y-91531790D01*
X115843450Y-91328330D01*
X115940560Y-91375170D01*
G37*
G36*
X116014300Y-91570750D02*
G01*
X115888990Y-91537360D01*
X115940560Y-91375170D01*
X116014300Y-91570750D01*
G37*
G36*
X115997390Y-88072860D02*
G01*
X115849220Y-87941010D01*
X115954970Y-87908010D01*
X115997390Y-88072860D01*
G37*
G36*
X115997390Y-88072860D02*
G01*
X115954970Y-87908010D01*
X115971770Y-87904580D01*
X115997390Y-88072860D01*
G37*
G36*
X116029120Y-91573330D02*
G01*
X116014300Y-91570750D01*
X116050780Y-91404550D01*
X116029120Y-91573330D01*
G37*
G36*
X116050780Y-91404550D02*
G01*
X116014300Y-91570750D01*
X115940560Y-91375170D01*
X116050780Y-91404550D01*
G37*
G36*
X116165420Y-91584710D02*
G01*
X116029120Y-91573330D01*
X116050780Y-91404550D01*
X116165420Y-91584710D01*
G37*
G36*
X115997390Y-88072860D02*
G01*
X115971770Y-87904580D01*
X116086150Y-87893050D01*
X115997390Y-88072860D01*
G37*
G36*
X116098950Y-88062620D02*
G01*
X115997390Y-88072860D01*
X116086150Y-87893050D01*
X116098950Y-88062620D01*
G37*
G36*
X116098950Y-88062620D02*
G01*
X116086150Y-87893050D01*
X116094660Y-87892620D01*
X116098950Y-88062620D01*
G37*
G36*
X120904330Y-88061960D02*
G01*
X116098950Y-88062620D01*
X116094660Y-87892620D01*
X120904330Y-88061960D01*
G37*
G36*
X116172550Y-91585000D02*
G01*
X116165420Y-91584710D01*
X116176000Y-91415000D01*
X116172550Y-91585000D01*
G37*
G36*
X116176000Y-91415000D02*
G01*
X116165420Y-91584710D01*
X116050780Y-91404550D01*
X116176000Y-91415000D01*
G37*
G36*
X116169900Y-68733620D02*
G01*
X116168850Y-68720180D01*
X116338870Y-68713750D01*
X116169900Y-68733620D01*
G37*
G36*
X116338870Y-68713750D02*
G01*
X116168850Y-68720180D01*
X116341890Y-67120860D01*
X116338870Y-68713750D01*
G37*
G36*
X116356460Y-68825000D02*
G01*
X116190180Y-68861900D01*
X116169900Y-68733620D01*
X116356460Y-68825000D01*
G37*
G36*
X116356460Y-68825000D02*
G01*
X116169900Y-68733620D01*
X116338870Y-68713750D01*
X116356460Y-68825000D01*
G37*
G36*
X116341890Y-67120860D02*
G01*
X116168850Y-68720180D01*
X116171900Y-67112150D01*
X116341890Y-67120860D01*
G37*
G36*
X116172550Y-91585000D02*
G01*
X116176000Y-91415000D01*
X120853870Y-91411790D01*
X116172550Y-91585000D01*
G37*
G36*
X120857740Y-91581790D02*
G01*
X116172550Y-91585000D01*
X120853870Y-91411790D01*
X120857740Y-91581790D01*
G37*
G36*
X116341890Y-67120860D02*
G01*
X116171900Y-67112150D01*
X116173570Y-67095550D01*
X116341890Y-67120860D01*
G37*
G36*
X116341890Y-67120860D02*
G01*
X116173570Y-67095550D01*
X116361290Y-67024430D01*
X116341890Y-67120860D01*
G37*
G36*
X116195930Y-68881910D02*
G01*
X116190180Y-68861900D01*
X116356460Y-68825000D01*
X116195930Y-68881910D01*
G37*
G36*
X116220970Y-68940770D02*
G01*
X116195930Y-68881910D01*
X116372780Y-68863350D01*
X116220970Y-68940770D01*
G37*
G36*
X116372780Y-68863350D02*
G01*
X116195930Y-68881910D01*
X116356460Y-68825000D01*
X116372780Y-68863350D01*
G37*
G36*
X116361290Y-67024430D02*
G01*
X116173570Y-67095550D01*
X116197110Y-66978540D01*
X116361290Y-67024430D01*
G37*
G36*
X116361290Y-67024430D02*
G01*
X116197110Y-66978540D01*
X116205570Y-66955060D01*
X116361290Y-67024430D01*
G37*
G36*
X116232990Y-68960810D02*
G01*
X116220970Y-68940770D01*
X116372780Y-68863350D01*
X116232990Y-68960810D01*
G37*
G36*
X116311230Y-69057920D02*
G01*
X116232990Y-68960810D01*
X116435140Y-68940750D01*
X116311230Y-69057920D01*
G37*
G36*
X116435140Y-68940750D02*
G01*
X116232990Y-68960810D01*
X116372780Y-68863350D01*
X116435140Y-68940750D01*
G37*
G36*
X116361290Y-67024430D02*
G01*
X116205570Y-66955060D01*
X116233130Y-66903790D01*
X116361290Y-67024430D01*
G37*
G36*
X116377040Y-66995130D02*
G01*
X116361290Y-67024430D01*
X116233130Y-66903790D01*
X116377040Y-66995130D01*
G37*
G36*
X116377040Y-66995130D02*
G01*
X116233130Y-66903790D01*
X116247630Y-66884190D01*
X116377040Y-66995130D01*
G37*
G36*
X116437610Y-66934020D02*
G01*
X116377040Y-66995130D01*
X116247630Y-66884190D01*
X116437610Y-66934020D01*
G37*
G36*
X116437610Y-66934020D02*
G01*
X116247630Y-66884190D01*
X116328700Y-66802420D01*
X116437610Y-66934020D01*
G37*
G36*
X116383540Y-69110040D02*
G01*
X116331010Y-69075800D01*
X116435140Y-68940750D01*
X116383540Y-69110040D01*
G37*
G36*
X116331010Y-69075800D02*
G01*
X116311230Y-69057920D01*
X116435140Y-68940750D01*
X116331010Y-69075800D01*
G37*
G36*
X116525320Y-87526860D02*
G01*
X116355320Y-87611860D01*
X116355320Y-83546490D01*
X116525320Y-87526860D01*
G37*
G36*
X116525320Y-83631490D02*
G01*
X116525320Y-87526860D01*
X116355320Y-83546490D01*
X116525320Y-83631490D01*
G37*
G36*
X116369640Y-87659090D02*
G01*
X116356950Y-87628440D01*
X116355320Y-87611860D01*
X116369640Y-87659090D01*
G37*
G36*
X116437610Y-66934020D02*
G01*
X116328700Y-66802420D01*
X116355980Y-66783960D01*
X116437610Y-66934020D01*
G37*
G36*
X116355320Y-83546490D02*
G01*
X116361790Y-83513960D01*
X116380210Y-83486390D01*
X116355320Y-83546490D01*
G37*
G36*
X116407790Y-87690390D02*
G01*
X116380210Y-87671970D01*
X116369640Y-87659090D01*
X116407790Y-87690390D01*
G37*
G36*
X116401110Y-69118790D02*
G01*
X116383540Y-69110040D01*
X116468080Y-68962220D01*
X116401110Y-69118790D01*
G37*
G36*
X116468080Y-68962220D02*
G01*
X116383540Y-69110040D01*
X116435140Y-68940750D01*
X116468080Y-68962220D01*
G37*
G36*
X116462140Y-69140800D02*
G01*
X116401110Y-69118790D01*
X116510420Y-68977490D01*
X116462140Y-69140800D01*
G37*
G36*
X116510420Y-68977490D02*
G01*
X116401110Y-69118790D01*
X116468080Y-68962220D01*
X116510420Y-68977490D01*
G37*
G36*
X116355320Y-83546490D02*
G01*
X116380210Y-83486390D01*
X116407790Y-83467960D01*
X116355320Y-83546490D01*
G37*
G36*
X116407790Y-87690390D02*
G01*
X116369640Y-87659090D01*
X116355320Y-87611860D01*
X116407790Y-87690390D01*
G37*
G36*
X116423740Y-87695230D02*
G01*
X116407790Y-87690390D01*
X116355320Y-87611860D01*
X116423740Y-87695230D01*
G37*
G36*
X116440320Y-87696860D02*
G01*
X116423740Y-87695230D01*
X116355320Y-87611860D01*
X116440320Y-87696860D01*
G37*
G36*
X116525320Y-83631490D02*
G01*
X116355320Y-83546490D01*
X116440320Y-83461490D01*
X116525320Y-83631490D01*
G37*
G36*
X116355320Y-83546490D02*
G01*
X116407790Y-83467960D01*
X116440320Y-83461490D01*
X116355320Y-83546490D01*
G37*
G36*
X120399580Y-83631490D02*
G01*
X116525320Y-83631490D01*
X116440320Y-83461490D01*
X120399580Y-83631490D01*
G37*
G36*
X116440320Y-87696860D02*
G01*
X116355320Y-87611860D01*
X116525320Y-87526860D01*
X116440320Y-87696860D01*
G37*
G36*
X120484580Y-87696860D02*
G01*
X116440320Y-87696860D01*
X116525320Y-87526860D01*
X120484580Y-87696860D01*
G37*
G36*
X116481480Y-69145310D02*
G01*
X116462140Y-69140800D01*
X116510420Y-68977490D01*
X116481480Y-69145310D01*
G37*
G36*
X116437610Y-66934020D02*
G01*
X116355980Y-66783960D01*
X116464160Y-66738250D01*
X116437610Y-66934020D01*
G37*
G36*
X116518520Y-66899840D02*
G01*
X116437610Y-66934020D01*
X116464160Y-66738250D01*
X116518520Y-66899840D01*
G37*
G36*
X116550670Y-69153090D02*
G01*
X116481480Y-69145310D01*
X116510420Y-68977490D01*
X116550670Y-69153090D01*
G37*
G36*
X116518520Y-66899840D02*
G01*
X116464160Y-66738250D01*
X116488730Y-66731970D01*
X116518520Y-66899840D01*
G37*
G36*
X116518520Y-66899840D02*
G01*
X116488730Y-66731970D01*
X116550180Y-66725790D01*
X116518520Y-66899840D01*
G37*
G36*
X116562970Y-66895360D02*
G01*
X116518520Y-66899840D01*
X116550180Y-66725790D01*
X116562970Y-66895360D01*
G37*
G36*
X116560170Y-69153630D02*
G01*
X116550670Y-69153090D01*
X116564940Y-68983630D01*
X116560170Y-69153630D01*
G37*
G36*
X116564940Y-68983630D02*
G01*
X116550670Y-69153090D01*
X116510420Y-68977490D01*
X116564940Y-68983630D01*
G37*
G36*
X116562970Y-66895360D02*
G01*
X116550180Y-66725790D01*
X116558680Y-66725360D01*
X116562970Y-66895360D01*
G37*
G36*
X120155800Y-68983790D02*
G01*
X116560170Y-69153630D01*
X116564940Y-68983630D01*
X120155800Y-68983790D01*
G37*
G36*
X120168450Y-69153790D02*
G01*
X116560170Y-69153630D01*
X120155800Y-68983790D01*
X120168450Y-69153790D01*
G37*
G36*
X118009710Y-73144620D02*
G01*
X118001070Y-73314620D01*
X112044330Y-73143130D01*
X118009710Y-73144620D01*
G37*
G36*
X118020060Y-74908880D02*
G01*
X112016190Y-74743740D01*
X118014410Y-74738890D01*
X118020060Y-74908880D01*
G37*
G36*
X118031040Y-74908160D02*
G01*
X118020060Y-74908880D01*
X118014410Y-74738890D01*
X118031040Y-74908160D01*
G37*
G36*
X118056110Y-73325880D02*
G01*
X118001070Y-73314620D01*
X118026720Y-73146340D01*
X118056110Y-73325880D01*
G37*
G36*
X118026720Y-73146340D02*
G01*
X118001070Y-73314620D01*
X118009710Y-73144620D01*
X118026720Y-73146340D01*
G37*
G36*
X118031040Y-74908160D02*
G01*
X118014410Y-74738890D01*
X118039840Y-74735550D01*
X118031040Y-74908160D01*
G37*
G36*
X118079500Y-74901810D02*
G01*
X118031040Y-74908160D01*
X118039840Y-74735550D01*
X118079500Y-74901810D01*
G37*
G36*
X118096460Y-74897780D02*
G01*
X118079500Y-74901810D01*
X118112240Y-74890380D01*
X118096460Y-74897780D01*
G37*
G36*
X118112240Y-74890380D02*
G01*
X118079500Y-74901810D01*
X118039840Y-74735550D01*
X118112240Y-74890380D01*
G37*
G36*
X118108450Y-73163060D02*
G01*
X118056110Y-73325880D01*
X118026720Y-73146340D01*
X118108450Y-73163060D01*
G37*
G36*
X118183840Y-74847350D02*
G01*
X118112240Y-74890380D01*
X118039840Y-74735550D01*
X118183840Y-74847350D01*
G37*
G36*
X118286410Y-73414910D02*
G01*
X118117660Y-73436760D01*
X118108610Y-73384540D01*
X118286410Y-73414910D01*
G37*
G36*
X118287660Y-73429420D02*
G01*
X118117660Y-73436760D01*
X118286410Y-73414910D01*
X118287660Y-73429420D01*
G37*
G36*
X118141730Y-73177830D02*
G01*
X118056110Y-73325880D01*
X118108450Y-73163060D01*
X118141730Y-73177830D01*
G37*
G36*
X118125890Y-73168650D02*
G01*
X118141730Y-73177830D01*
X118108450Y-73163060D01*
X118125890Y-73168650D01*
G37*
G36*
X118183840Y-74847350D02*
G01*
X118039840Y-74735550D01*
X118082290Y-74710040D01*
X118183840Y-74847350D01*
G37*
G36*
X118207700Y-74825970D02*
G01*
X118183840Y-74847350D01*
X118082290Y-74710040D01*
X118207700Y-74825970D01*
G37*
G36*
X118087660Y-73349050D02*
G01*
X118056110Y-73325880D01*
X118202340Y-73222350D01*
X118087660Y-73349050D01*
G37*
G36*
X118225220Y-73247650D02*
G01*
X118087660Y-73349050D01*
X118202340Y-73222350D01*
X118225220Y-73247650D01*
G37*
G36*
X118202340Y-73222350D02*
G01*
X118056110Y-73325880D01*
X118141730Y-73177830D01*
X118202340Y-73222350D01*
G37*
G36*
X118232150Y-74793840D02*
G01*
X118207700Y-74825970D01*
X118082290Y-74710040D01*
X118232150Y-74793840D01*
G37*
G36*
X118232150Y-74793840D02*
G01*
X118082290Y-74710040D01*
X118089910Y-74700030D01*
X118232150Y-74793840D01*
G37*
G36*
X118243390Y-74774030D02*
G01*
X118232150Y-74793840D01*
X118089910Y-74700030D01*
X118243390Y-74774030D01*
G37*
G36*
X118273050Y-74700140D02*
G01*
X118243390Y-74774030D01*
X118089910Y-74700030D01*
X118273050Y-74700140D01*
G37*
G36*
X118108610Y-73384540D02*
G01*
X118087660Y-73349050D01*
X118262900Y-73311510D01*
X118108610Y-73384540D01*
G37*
G36*
X118262900Y-73311510D02*
G01*
X118087660Y-73349050D01*
X118225220Y-73247650D01*
X118262900Y-73311510D01*
G37*
G36*
X118273050Y-74700140D02*
G01*
X118089910Y-74700030D01*
X118111140Y-74647160D01*
X118273050Y-74700140D01*
G37*
G36*
X118278550Y-74678720D02*
G01*
X118273050Y-74700140D01*
X118111140Y-74647160D01*
X118278550Y-74678720D01*
G37*
G36*
X118273450Y-73340180D02*
G01*
X118108610Y-73384540D01*
X118262900Y-73311510D01*
X118273450Y-73340180D01*
G37*
G36*
X118278550Y-74678720D02*
G01*
X118111140Y-74647160D01*
X118287210Y-74607430D01*
X118278550Y-74678720D01*
G37*
G36*
X118286410Y-73414910D02*
G01*
X118108610Y-73384540D01*
X118273450Y-73340180D01*
X118286410Y-73414910D01*
G37*
G36*
X118287210Y-74607430D02*
G01*
X118111140Y-74647160D01*
X118117830Y-74592050D01*
X118287210Y-74607430D01*
G37*
G36*
X118287830Y-74597180D02*
G01*
X118287210Y-74607430D01*
X118117830Y-74592050D01*
X118287830Y-74597180D01*
G37*
G36*
X118287830Y-74597180D02*
G01*
X118117830Y-74592050D01*
X118117660Y-73436760D01*
X118287830Y-74597180D01*
G37*
G36*
X118287830Y-74597180D02*
G01*
X118117660Y-73436760D01*
X118287660Y-73429420D01*
X118287830Y-74597180D01*
G37*
G36*
X118469630Y-75321040D02*
G01*
X118366680Y-75180310D01*
X118597560Y-75173690D01*
X118469630Y-75321040D01*
G37*
G36*
X118597560Y-75173690D02*
G01*
X118366680Y-75180310D01*
X118472570Y-75058350D01*
X118597560Y-75173690D01*
G37*
G36*
X118366680Y-75180310D02*
G01*
X118405440Y-75350310D01*
X111640890Y-75179570D01*
X118366680Y-75180310D01*
G37*
G36*
X118423490Y-75348380D02*
G01*
X118405440Y-75350310D01*
X118469630Y-75321040D01*
X118423490Y-75348380D01*
G37*
G36*
X118469630Y-75321040D02*
G01*
X118405440Y-75350310D01*
X118366680Y-75180310D01*
X118469630Y-75321040D01*
G37*
G36*
X118440720Y-75342650D02*
G01*
X118423490Y-75348380D01*
X118456340Y-75333400D01*
X118440720Y-75342650D01*
G37*
G36*
X118456340Y-75333400D02*
G01*
X118423490Y-75348380D01*
X118469630Y-75321040D01*
X118456340Y-75333400D01*
G37*
G36*
X118597560Y-75173690D02*
G01*
X118472570Y-75058350D01*
X118479780Y-75051000D01*
X118597560Y-75173690D01*
G37*
G36*
X118733870Y-75050570D02*
G01*
X118479780Y-75051000D01*
X118623800Y-74920910D01*
X118733870Y-75050570D01*
G37*
G36*
X118597560Y-75173690D02*
G01*
X118479780Y-75051000D01*
X118733870Y-75050570D01*
X118597560Y-75173690D01*
G37*
G36*
X118733870Y-75050570D02*
G01*
X118623800Y-74920910D01*
X118631970Y-74914400D01*
X118733870Y-75050570D01*
G37*
G36*
X118733870Y-75050570D02*
G01*
X118631970Y-74914400D01*
X118787860Y-74805050D01*
X118733870Y-75050570D01*
G37*
G36*
X118881250Y-74947200D02*
G01*
X118733870Y-75050570D01*
X118787860Y-74805050D01*
X118881250Y-74947200D01*
G37*
G36*
X118881250Y-74947200D02*
G01*
X118787860Y-74805050D01*
X118796680Y-74799630D01*
X118881250Y-74947200D01*
G37*
G36*
X118881250Y-74947200D02*
G01*
X118796680Y-74799630D01*
X118963610Y-74710610D01*
X118881250Y-74947200D01*
G37*
G36*
X119039180Y-74862970D02*
G01*
X118881250Y-74947200D01*
X118963610Y-74710610D01*
X119039180Y-74862970D01*
G37*
G36*
X119039180Y-74862970D02*
G01*
X118963610Y-74710610D01*
X118972710Y-74706430D01*
X119039180Y-74862970D01*
G37*
G36*
X119039180Y-74862970D02*
G01*
X118972710Y-74706430D01*
X119149830Y-74637320D01*
X119039180Y-74862970D01*
G37*
G36*
X119207190Y-74797420D02*
G01*
X119039180Y-74862970D01*
X119149830Y-74637320D01*
X119207190Y-74797420D01*
G37*
G36*
X119207190Y-74797420D02*
G01*
X119149830Y-74637320D01*
X119158880Y-74634360D01*
X119207190Y-74797420D01*
G37*
G36*
X119207190Y-74797420D02*
G01*
X119158880Y-74634360D01*
X119345360Y-74584760D01*
X119207190Y-74797420D01*
G37*
G36*
X119384750Y-74750190D02*
G01*
X119207190Y-74797420D01*
X119345360Y-74584760D01*
X119384750Y-74750190D01*
G37*
G36*
X119384750Y-74750190D02*
G01*
X119345360Y-74584760D01*
X119354070Y-74582920D01*
X119384750Y-74750190D01*
G37*
G36*
X119384750Y-74750190D02*
G01*
X119354070Y-74582920D01*
X119549060Y-74552410D01*
X119384750Y-74750190D01*
G37*
G36*
X119571270Y-74721000D02*
G01*
X119384750Y-74750190D01*
X119549060Y-74552410D01*
X119571270Y-74721000D01*
G37*
G36*
X119571270Y-74721000D02*
G01*
X119549060Y-74552410D01*
X119557240Y-74551530D01*
X119571270Y-74721000D01*
G37*
G36*
X119571270Y-74721000D02*
G01*
X119557240Y-74551530D01*
X119759910Y-74539700D01*
X119571270Y-74721000D01*
G37*
G36*
X119766170Y-74709620D02*
G01*
X119571270Y-74721000D01*
X119759910Y-74539700D01*
X119766170Y-74709620D01*
G37*
G36*
X119766170Y-74709620D02*
G01*
X119759910Y-74539700D01*
X119767190Y-74539590D01*
X119766170Y-74709620D01*
G37*
G36*
X119903450Y-74713390D02*
G01*
X119766170Y-74709620D01*
X119911540Y-74543550D01*
X119903450Y-74713390D01*
G37*
G36*
X119911540Y-74543550D02*
G01*
X119766170Y-74709620D01*
X119767190Y-74539590D01*
X119911540Y-74543550D01*
G37*
G36*
X120036370Y-74727830D02*
G01*
X119903450Y-74713390D01*
X119918400Y-74544010D01*
X120036370Y-74727830D01*
G37*
G36*
X119918400Y-74544010D02*
G01*
X119903450Y-74713390D01*
X119911540Y-74543550D01*
X119918400Y-74544010D01*
G37*
G36*
X120001230Y-83056250D02*
G01*
X120002710Y-83226250D01*
X109819790Y-83040270D01*
X120001230Y-83056250D01*
G37*
G36*
X120006200Y-83226180D02*
G01*
X120002710Y-83226250D01*
X120001230Y-83056250D01*
X120006200Y-83226180D01*
G37*
G36*
X120004560Y-62442200D02*
G01*
X110010920Y-62585020D01*
X110004970Y-62415000D01*
X120004560Y-62442200D01*
G37*
G36*
X120001660Y-62612200D02*
G01*
X110010920Y-62585020D01*
X120004560Y-62442200D01*
X120001660Y-62612200D01*
G37*
G36*
X120006200Y-83226180D02*
G01*
X120001230Y-83056250D01*
X120127570Y-83051260D01*
X120006200Y-83226180D01*
G37*
G36*
X120139570Y-83220920D02*
G01*
X120006200Y-83226180D01*
X120127570Y-83051260D01*
X120139570Y-83220920D01*
G37*
G36*
X120237600Y-62626360D02*
G01*
X120001660Y-62612200D01*
X120009420Y-62442360D01*
X120237600Y-62626360D01*
G37*
G36*
X120009420Y-62442360D02*
G01*
X120001660Y-62612200D01*
X120004560Y-62442200D01*
X120009420Y-62442360D01*
G37*
G36*
X120059910Y-74559390D02*
G01*
X120036370Y-74727830D01*
X119918400Y-74544010D01*
X120059910Y-74559390D01*
G37*
G36*
X120296170Y-74788810D02*
G01*
X120036370Y-74727830D01*
X120070150Y-74561140D01*
X120296170Y-74788810D01*
G37*
G36*
X120070150Y-74561140D02*
G01*
X120036370Y-74727830D01*
X120059910Y-74559390D01*
X120070150Y-74561140D01*
G37*
G36*
X120082480Y-72877890D02*
G01*
X109908480Y-72708050D01*
X120080260Y-72707890D01*
X120082480Y-72877890D01*
G37*
G36*
X120086890Y-72877770D02*
G01*
X120082480Y-72877890D01*
X120080260Y-72707890D01*
X120086890Y-72877770D01*
G37*
G36*
X120086890Y-72877770D02*
G01*
X120080260Y-72707890D01*
X120307700Y-72696050D01*
X120086890Y-72877770D01*
G37*
G36*
X120320930Y-72865590D02*
G01*
X120086890Y-72877770D01*
X120307700Y-72696050D01*
X120320930Y-72865590D01*
G37*
G36*
X116562970Y-66895360D02*
G01*
X116558680Y-66725360D01*
X120104800Y-66724870D01*
X116562970Y-66895360D01*
G37*
G36*
X120101380Y-66894870D02*
G01*
X116562970Y-66895360D01*
X120104800Y-66724870D01*
X120101380Y-66894870D01*
G37*
G36*
X120163080Y-66899870D02*
G01*
X120101380Y-66894870D01*
X120111690Y-66725150D01*
X120163080Y-66899870D01*
G37*
G36*
X120111690Y-66725150D02*
G01*
X120101380Y-66894870D01*
X120104800Y-66724870D01*
X120111690Y-66725150D01*
G37*
G36*
X120150100Y-83219850D02*
G01*
X120139570Y-83220920D01*
X120127570Y-83051260D01*
X120150100Y-83219850D01*
G37*
G36*
X120150100Y-83219850D02*
G01*
X120127570Y-83051260D01*
X120372250Y-83010750D01*
X120150100Y-83219850D01*
G37*
G36*
X120407280Y-83177260D02*
G01*
X120150100Y-83219850D01*
X120372250Y-83010750D01*
X120407280Y-83177260D01*
G37*
G36*
X120193210Y-69150100D02*
G01*
X120168450Y-69153790D01*
X120155800Y-68983790D01*
X120193210Y-69150100D01*
G37*
G36*
X120188210Y-66731350D02*
G01*
X120163080Y-66899870D01*
X120111690Y-66725150D01*
X120188210Y-66731350D01*
G37*
G36*
X120263910Y-69128580D02*
G01*
X120193210Y-69150100D01*
X120155800Y-68983790D01*
X120263910Y-69128580D01*
G37*
G36*
X120272040Y-66939410D02*
G01*
X120163080Y-66899870D01*
X120210320Y-66736170D01*
X120272040Y-66939410D01*
G37*
G36*
X120210320Y-66736170D02*
G01*
X120163080Y-66899870D01*
X120188210Y-66731350D01*
X120210320Y-66736170D01*
G37*
G36*
X120252600Y-62456950D02*
G01*
X120237600Y-62626360D01*
X120009420Y-62442360D01*
X120252600Y-62456950D01*
G37*
G36*
X120262160Y-62458070D02*
G01*
X120237600Y-62626360D01*
X120252600Y-62456950D01*
X120262160Y-62458070D01*
G37*
G36*
X120263910Y-69128580D02*
G01*
X120155800Y-68983790D01*
X120205300Y-68968720D01*
X120263910Y-69128580D01*
G37*
G36*
X120281240Y-69121110D02*
G01*
X120263910Y-69128580D01*
X120205300Y-68968720D01*
X120281240Y-69121110D01*
G37*
G36*
X120281240Y-69121110D02*
G01*
X120205300Y-68968720D01*
X120295970Y-68917030D01*
X120281240Y-69121110D01*
G37*
G36*
X120393600Y-69057060D02*
G01*
X120281240Y-69121110D01*
X120295970Y-68917030D01*
X120393600Y-69057060D01*
G37*
G36*
X120329690Y-72864680D02*
G01*
X120320930Y-72865590D01*
X120307700Y-72696050D01*
X120329690Y-72864680D01*
G37*
G36*
X120556950Y-72829030D02*
G01*
X120329690Y-72864680D01*
X120307700Y-72696050D01*
X120556950Y-72829030D01*
G37*
G36*
X120341930Y-74624940D02*
G01*
X120296170Y-74788810D01*
X120070150Y-74561140D01*
X120341930Y-74624940D01*
G37*
G36*
X120342170Y-66784010D02*
G01*
X120272040Y-66939410D01*
X120210320Y-66736170D01*
X120342170Y-66784010D01*
G37*
G36*
X120535140Y-74889070D02*
G01*
X120296170Y-74788810D01*
X120355380Y-74629300D01*
X120535140Y-74889070D01*
G37*
G36*
X120355380Y-74629300D02*
G01*
X120296170Y-74788810D01*
X120341930Y-74624940D01*
X120355380Y-74629300D01*
G37*
G36*
X120364610Y-66796240D02*
G01*
X120272040Y-66939410D01*
X120342170Y-66784010D01*
X120364610Y-66796240D01*
G37*
G36*
X120382280Y-68712240D02*
G01*
X120383670Y-67165330D01*
X120553680Y-67161690D01*
X120382280Y-68712240D01*
G37*
G36*
X120416910Y-69037500D02*
G01*
X120393600Y-69057060D01*
X120295970Y-68917030D01*
X120416910Y-69037500D01*
G37*
G36*
X120399580Y-87526860D02*
G01*
X120399580Y-83631490D01*
X120569580Y-83546490D01*
X120399580Y-87526860D01*
G37*
G36*
X120421470Y-83173630D02*
G01*
X120407280Y-83177260D01*
X120372250Y-83010750D01*
X120421470Y-83173630D01*
G37*
G36*
X120491150Y-68948040D02*
G01*
X120416910Y-69037500D01*
X120295970Y-68917030D01*
X120491150Y-68948040D01*
G37*
G36*
X120307650Y-66966470D02*
G01*
X120272040Y-66939410D01*
X120417780Y-66836640D01*
X120307650Y-66966470D01*
G37*
G36*
X120430970Y-66849100D02*
G01*
X120307650Y-66966470D01*
X120417780Y-66836640D01*
X120430970Y-66849100D01*
G37*
G36*
X120417780Y-66836640D02*
G01*
X120272040Y-66939410D01*
X120364610Y-66796240D01*
X120417780Y-66836640D01*
G37*
G36*
X120660680Y-83089900D02*
G01*
X120421470Y-83173630D01*
X120372250Y-83010750D01*
X120660680Y-83089900D01*
G37*
G36*
X120338950Y-67003110D02*
G01*
X120307650Y-66966470D01*
X120430970Y-66849100D01*
X120338950Y-67003110D01*
G37*
G36*
X120474190Y-66899690D02*
G01*
X120338950Y-67003110D01*
X120430970Y-66849100D01*
X120474190Y-66899690D01*
G37*
G36*
X120484510Y-66914800D02*
G01*
X120338950Y-67003110D01*
X120474190Y-66899690D01*
X120484510Y-66914800D01*
G37*
G36*
X120399580Y-83631490D02*
G01*
X116440320Y-83461490D01*
X120484580Y-83461490D01*
X120399580Y-83631490D01*
G37*
G36*
X120569580Y-83546490D02*
G01*
X120399580Y-83631490D01*
X120484580Y-83461490D01*
X120569580Y-83546490D01*
G37*
G36*
X120484580Y-87696860D02*
G01*
X116525320Y-87526860D01*
X120399580Y-87526860D01*
X120484580Y-87696860D01*
G37*
G36*
X120501170Y-87695230D02*
G01*
X120484580Y-87696860D01*
X120569580Y-87611860D01*
X120501170Y-87695230D01*
G37*
G36*
X120569580Y-87611860D02*
G01*
X120484580Y-87696860D01*
X120399580Y-87526860D01*
X120569580Y-87611860D01*
G37*
G36*
X120491150Y-68948040D02*
G01*
X120295970Y-68917030D01*
X120352560Y-68848850D01*
X120491150Y-68948040D01*
G37*
G36*
X120503760Y-68927500D02*
G01*
X120491150Y-68948040D01*
X120352560Y-68848850D01*
X120503760Y-68927500D01*
G37*
G36*
X120464120Y-62666020D02*
G01*
X120237600Y-62626360D01*
X120498060Y-62499370D01*
X120464120Y-62666020D01*
G37*
G36*
X120498060Y-62499370D02*
G01*
X120237600Y-62626360D01*
X120262160Y-62458070D01*
X120498060Y-62499370D01*
G37*
G36*
X120517110Y-87690390D02*
G01*
X120501170Y-87695230D01*
X120569580Y-87611860D01*
X120517110Y-87690390D01*
G37*
G36*
X120526800Y-68874210D02*
G01*
X120503760Y-68927500D01*
X120352560Y-68848850D01*
X120526800Y-68874210D01*
G37*
G36*
X120507190Y-62501500D02*
G01*
X120464120Y-62666020D01*
X120498060Y-62499370D01*
X120507190Y-62501500D01*
G37*
G36*
X120362590Y-67047300D02*
G01*
X120338950Y-67003110D01*
X120516690Y-66974950D01*
X120362590Y-67047300D01*
G37*
G36*
X120516690Y-66974950D02*
G01*
X120338950Y-67003110D01*
X120484510Y-66914800D01*
X120516690Y-66974950D01*
G37*
G36*
X120544690Y-87671970D02*
G01*
X120517110Y-87690390D01*
X120555260Y-87659090D01*
X120544690Y-87671970D01*
G37*
G36*
X120555260Y-87659090D02*
G01*
X120517110Y-87690390D01*
X120569580Y-87611860D01*
X120555260Y-87659090D01*
G37*
G36*
X120523370Y-66991350D02*
G01*
X120362590Y-67047300D01*
X120516690Y-66974950D01*
X120523370Y-66991350D01*
G37*
G36*
X120526800Y-68874210D02*
G01*
X120352560Y-68848850D01*
X120366400Y-68816830D01*
X120526800Y-68874210D01*
G37*
G36*
X120532820Y-68853230D02*
G01*
X120526800Y-68874210D01*
X120366400Y-68816830D01*
X120532820Y-68853230D01*
G37*
G36*
X120532820Y-68853230D02*
G01*
X120366400Y-68816830D01*
X120551310Y-68731450D01*
X120532820Y-68853230D01*
G37*
G36*
X120543440Y-67060450D02*
G01*
X120377870Y-67099910D01*
X120362590Y-67047300D01*
X120543440Y-67060450D01*
G37*
G36*
X120543440Y-67060450D02*
G01*
X120362590Y-67047300D01*
X120523370Y-66991350D01*
X120543440Y-67060450D01*
G37*
G36*
X120544690Y-83486390D02*
G01*
X120569580Y-83546490D01*
X120484580Y-83461490D01*
X120544690Y-83486390D01*
G37*
G36*
X120501170Y-83463130D02*
G01*
X120544690Y-83486390D01*
X120484580Y-83461490D01*
X120501170Y-83463130D01*
G37*
G36*
X120531810Y-83475820D02*
G01*
X120544690Y-83486390D01*
X120501170Y-83463130D01*
X120531810Y-83475820D01*
G37*
G36*
X120555260Y-83499270D02*
G01*
X120567950Y-83529910D01*
X120544690Y-83486390D01*
X120555260Y-83499270D01*
G37*
G36*
X120567950Y-83529910D02*
G01*
X120569580Y-83546490D01*
X120544690Y-83486390D01*
X120567950Y-83529910D01*
G37*
G36*
X120546480Y-67076650D02*
G01*
X120377870Y-67099910D01*
X120543440Y-67060450D01*
X120546480Y-67076650D01*
G37*
G36*
X120551310Y-68731450D02*
G01*
X120366400Y-68816830D01*
X120382280Y-68712240D01*
X120551310Y-68731450D01*
G37*
G36*
X120552270Y-68718770D02*
G01*
X120551310Y-68731450D01*
X120382280Y-68712240D01*
X120552270Y-68718770D01*
G37*
G36*
X120552270Y-68718770D02*
G01*
X120382280Y-68712240D01*
X120553680Y-67161690D01*
X120552270Y-68718770D01*
G37*
G36*
X120553340Y-67154100D02*
G01*
X120383670Y-67165330D01*
X120377870Y-67099910D01*
X120553340Y-67154100D01*
G37*
G36*
X120553340Y-67154100D02*
G01*
X120377870Y-67099910D01*
X120546480Y-67076650D01*
X120553340Y-67154100D01*
G37*
G36*
X120553680Y-67161690D02*
G01*
X120383670Y-67165330D01*
X120553340Y-67154100D01*
X120553680Y-67161690D01*
G37*
G36*
X120567950Y-87628440D02*
G01*
X120555260Y-87659090D01*
X120569580Y-87611860D01*
X120567950Y-87628440D01*
G37*
G36*
X120556950Y-72829030D02*
G01*
X120307700Y-72696050D01*
X120526310Y-72661750D01*
X120556950Y-72829030D01*
G37*
G36*
X120565440Y-72827250D02*
G01*
X120556950Y-72829030D01*
X120526310Y-72661750D01*
X120565440Y-72827250D01*
G37*
G36*
X120784760Y-72769430D02*
G01*
X120565440Y-72827250D01*
X120526310Y-72661750D01*
X120784760Y-72769430D01*
G37*
G36*
X120569580Y-87611860D02*
G01*
X120399580Y-87526860D01*
X120569580Y-83546490D01*
X120569580Y-87611860D01*
G37*
G36*
X120607660Y-74735130D02*
G01*
X120535140Y-74889070D01*
X120355380Y-74629300D01*
X120607660Y-74735130D01*
G37*
G36*
X120749920Y-75026460D02*
G01*
X120535140Y-74889070D01*
X120620580Y-74741910D01*
X120749920Y-75026460D01*
G37*
G36*
X120620580Y-74741910D02*
G01*
X120535140Y-74889070D01*
X120607660Y-74735130D01*
X120620580Y-74741910D01*
G37*
G36*
X120660680Y-83089900D02*
G01*
X120372250Y-83010750D01*
X120599050Y-82931360D01*
X120660680Y-83089900D01*
G37*
G36*
X120671280Y-83085360D02*
G01*
X120660680Y-83089900D01*
X120599050Y-82931360D01*
X120671280Y-83085360D01*
G37*
G36*
X120671280Y-83085360D02*
G01*
X120599050Y-82931360D01*
X120699390Y-82880070D01*
X120671280Y-83085360D01*
G37*
G36*
X120782190Y-83028660D02*
G01*
X120671280Y-83085360D01*
X120699390Y-82880070D01*
X120782190Y-83028660D01*
G37*
G36*
X120682700Y-62729740D02*
G01*
X120464120Y-62666020D01*
X120734630Y-62567800D01*
X120682700Y-62729740D01*
G37*
G36*
X120734630Y-62567800D02*
G01*
X120464120Y-62666020D01*
X120507190Y-62501500D01*
X120734630Y-62567800D01*
G37*
G36*
X120743180Y-62570800D02*
G01*
X120682700Y-62729740D01*
X120734630Y-62567800D01*
X120743180Y-62570800D01*
G37*
G36*
X120792590Y-83022370D02*
G01*
X120782190Y-83028660D01*
X120699390Y-82880070D01*
X120792590Y-83022370D01*
G37*
G36*
X120784760Y-72769430D02*
G01*
X120526310Y-72661750D01*
X120737300Y-72606130D01*
X120784760Y-72769430D01*
G37*
G36*
X120792880Y-72766850D02*
G01*
X120784760Y-72769430D01*
X120737300Y-72606130D01*
X120792880Y-72766850D01*
G37*
G36*
X120792590Y-83022370D02*
G01*
X120699390Y-82880070D01*
X120889710Y-82745430D01*
X120792590Y-83022370D01*
G37*
G36*
X120993110Y-82880530D02*
G01*
X120792590Y-83022370D01*
X120889710Y-82745430D01*
X120993110Y-82880530D01*
G37*
G36*
X121003120Y-72688190D02*
G01*
X120792880Y-72766850D01*
X120737300Y-72606130D01*
X121003120Y-72688190D01*
G37*
G36*
X120847930Y-74887340D02*
G01*
X120749920Y-75026460D01*
X120620580Y-74741910D01*
X120847930Y-74887340D01*
G37*
G36*
X120865230Y-91581450D02*
G01*
X120857740Y-91581790D01*
X120853870Y-91411790D01*
X120865230Y-91581450D01*
G37*
G36*
X121056930Y-75079210D02*
G01*
X120749920Y-75026460D01*
X120859910Y-74896610D01*
X121056930Y-75079210D01*
G37*
G36*
X120859910Y-74896610D02*
G01*
X120749920Y-75026460D01*
X120847930Y-74887340D01*
X120859910Y-74896610D01*
G37*
G36*
X120865230Y-91581450D02*
G01*
X120853870Y-91411790D01*
X120970560Y-91401380D01*
X120865230Y-91581450D01*
G37*
G36*
X120993450Y-91570020D02*
G01*
X120865230Y-91581450D01*
X120970560Y-91401380D01*
X120993450Y-91570020D01*
G37*
G36*
X120904330Y-88061960D02*
G01*
X116094660Y-87892620D01*
X120908690Y-87891960D01*
X120904330Y-88061960D01*
G37*
G36*
X121004820Y-88072340D02*
G01*
X120904330Y-88061960D01*
X120917440Y-87892410D01*
X121004820Y-88072340D01*
G37*
G36*
X120917440Y-87892410D02*
G01*
X120904330Y-88061960D01*
X120908690Y-87891960D01*
X120917440Y-87892410D01*
G37*
G36*
X120892310Y-62815970D02*
G01*
X120682700Y-62729740D01*
X120961020Y-62660420D01*
X120892310Y-62815970D01*
G37*
G36*
X120961020Y-62660420D02*
G01*
X120682700Y-62729740D01*
X120743180Y-62570800D01*
X120961020Y-62660420D01*
G37*
G36*
X120968910Y-62664150D02*
G01*
X120892310Y-62815970D01*
X120961020Y-62660420D01*
X120968910Y-62664150D01*
G37*
G36*
X121002940Y-82872400D02*
G01*
X120993110Y-82880530D01*
X120889710Y-82745430D01*
X121002940Y-82872400D01*
G37*
G36*
X121008790Y-91567220D02*
G01*
X120993450Y-91570020D01*
X120970560Y-91401380D01*
X121008790Y-91567220D01*
G37*
G36*
X121002940Y-82872400D02*
G01*
X120889710Y-82745430D01*
X120968290Y-82669860D01*
X121002940Y-82872400D01*
G37*
G36*
X121090980Y-82787730D02*
G01*
X121002940Y-82872400D01*
X120968290Y-82669860D01*
X121090980Y-82787730D01*
G37*
G36*
X121003120Y-72688190D02*
G01*
X120737300Y-72606130D01*
X120939630Y-72530430D01*
X121003120Y-72688190D01*
G37*
G36*
X121010790Y-72684880D02*
G01*
X121003120Y-72688190D01*
X120939630Y-72530430D01*
X121010790Y-72684880D01*
G37*
G36*
X121008790Y-91567220D02*
G01*
X120970560Y-91401380D01*
X121071680Y-91373120D01*
X121008790Y-91567220D01*
G37*
G36*
X121125390Y-91534620D02*
G01*
X121008790Y-91567220D01*
X121071680Y-91373120D01*
X121125390Y-91534620D01*
G37*
G36*
X121210810Y-72586690D02*
G01*
X121010790Y-72684880D01*
X120939630Y-72530430D01*
X121210810Y-72586690D01*
G37*
G36*
X121031020Y-87904140D02*
G01*
X121004820Y-88072340D01*
X120917440Y-87892410D01*
X121031020Y-87904140D01*
G37*
G36*
X121048120Y-87907710D02*
G01*
X121004820Y-88072340D01*
X121031020Y-87904140D01*
X121048120Y-87907710D01*
G37*
G36*
X121056930Y-75079210D02*
G01*
X120937060Y-75199900D01*
X120749920Y-75026460D01*
X121056930Y-75079210D01*
G37*
G36*
X121014970Y-75295170D02*
G01*
X120937060Y-75199900D01*
X121064950Y-75087750D01*
X121014970Y-75295170D01*
G37*
G36*
X121064950Y-75087750D02*
G01*
X120937060Y-75199900D01*
X121056930Y-75079210D01*
X121064950Y-75087750D01*
G37*
G36*
X121099890Y-82777690D02*
G01*
X121090980Y-82787730D01*
X120968290Y-82669860D01*
X121099890Y-82777690D01*
G37*
G36*
X121099890Y-82777690D02*
G01*
X120968290Y-82669860D01*
X121106400Y-82487020D01*
X121099890Y-82777690D01*
G37*
G36*
X121247660Y-82582060D02*
G01*
X121099890Y-82777690D01*
X121106400Y-82487020D01*
X121247660Y-82582060D01*
G37*
G36*
X121140710Y-91528690D02*
G01*
X121125390Y-91534620D01*
X121071680Y-91373120D01*
X121140710Y-91528690D01*
G37*
G36*
X121140710Y-91528690D02*
G01*
X121071680Y-91373120D01*
X121159900Y-91328730D01*
X121140710Y-91528690D01*
G37*
G36*
X121243940Y-91476760D02*
G01*
X121140710Y-91528690D01*
X121159900Y-91328730D01*
X121243940Y-91476760D01*
G37*
G36*
X121150390Y-75192230D02*
G01*
X121014970Y-75295170D01*
X121064950Y-75087750D01*
X121150390Y-75192230D01*
G37*
G36*
X121093270Y-88100550D02*
G01*
X121004820Y-88072340D01*
X121153080Y-87941190D01*
X121093270Y-88100550D01*
G37*
G36*
X121153080Y-87941190D02*
G01*
X121004820Y-88072340D01*
X121048120Y-87907710D01*
X121153080Y-87941190D01*
G37*
G36*
X121150050Y-75518610D02*
G01*
X121014970Y-75295170D01*
X121157320Y-75202060D01*
X121150050Y-75518610D01*
G37*
G36*
X121157320Y-75202060D02*
G01*
X121014970Y-75295170D01*
X121150390Y-75192230D01*
X121157320Y-75202060D01*
G37*
G36*
X121168700Y-87947960D02*
G01*
X121093270Y-88100550D01*
X121153080Y-87941190D01*
X121168700Y-87947960D01*
G37*
G36*
X121091830Y-62923150D02*
G01*
X120892310Y-62815970D01*
X121175980Y-62775380D01*
X121091830Y-62923150D01*
G37*
G36*
X121175980Y-62775380D02*
G01*
X120892310Y-62815970D01*
X120968910Y-62664150D01*
X121175980Y-62775380D01*
G37*
G36*
X121183170Y-62779710D02*
G01*
X121091830Y-62923150D01*
X121175980Y-62775380D01*
X121183170Y-62779710D01*
G37*
G36*
X121210810Y-72586690D02*
G01*
X120939630Y-72530430D01*
X121132210Y-72435890D01*
X121210810Y-72586690D01*
G37*
G36*
X121217990Y-72582720D02*
G01*
X121210810Y-72586690D01*
X121132210Y-72435890D01*
X121217990Y-72582720D01*
G37*
G36*
X121406630Y-72466320D02*
G01*
X121217990Y-72582720D01*
X121132210Y-72435890D01*
X121406630Y-72466320D01*
G37*
G36*
X121258290Y-91467630D02*
G01*
X121243940Y-91476760D01*
X121159900Y-91328730D01*
X121258290Y-91467630D01*
G37*
G36*
X121257130Y-82566180D02*
G01*
X121247660Y-82582060D01*
X121106400Y-82487020D01*
X121257130Y-82566180D01*
G37*
G36*
X121257130Y-82566180D02*
G01*
X121106400Y-82487020D01*
X121361910Y-82337090D01*
X121257130Y-82566180D01*
G37*
G36*
X121258290Y-91467630D02*
G01*
X121159900Y-91328730D01*
X121234530Y-91270030D01*
X121258290Y-91467630D01*
G37*
G36*
X121346490Y-91398250D02*
G01*
X121258290Y-91467630D01*
X121234530Y-91270030D01*
X121346490Y-91398250D01*
G37*
G36*
X121432500Y-81899650D02*
G01*
X121262500Y-81897300D01*
X121269000Y-75899040D01*
X121432500Y-81899650D01*
G37*
G36*
X121172890Y-88145030D02*
G01*
X121093270Y-88100550D01*
X121263030Y-88000660D01*
X121172890Y-88145030D01*
G37*
G36*
X121263030Y-88000660D02*
G01*
X121093270Y-88100550D01*
X121168700Y-87947960D01*
X121263030Y-88000660D01*
G37*
G36*
X121276590Y-88010070D02*
G01*
X121172890Y-88145030D01*
X121263030Y-88000660D01*
X121276590Y-88010070D01*
G37*
G36*
X121298680Y-75435860D02*
G01*
X121150050Y-75518610D01*
X121157320Y-75202060D01*
X121298680Y-75435860D01*
G37*
G36*
X121199850Y-75636100D02*
G01*
X121150050Y-75518610D01*
X121304200Y-75446670D01*
X121199850Y-75636100D01*
G37*
G36*
X121304200Y-75446670D02*
G01*
X121150050Y-75518610D01*
X121298680Y-75435860D01*
X121304200Y-75446670D01*
G37*
G36*
X121358960Y-91386190D02*
G01*
X121346490Y-91398250D01*
X121234530Y-91270030D01*
X121358960Y-91386190D01*
G37*
G36*
X121242080Y-88203770D02*
G01*
X121172890Y-88145030D01*
X121358280Y-88079420D01*
X121242080Y-88203770D01*
G37*
G36*
X121369540Y-88090990D02*
G01*
X121242080Y-88203770D01*
X121358280Y-88079420D01*
X121369540Y-88090990D01*
G37*
G36*
X121358280Y-88079420D02*
G01*
X121172890Y-88145030D01*
X121276590Y-88010070D01*
X121358280Y-88079420D01*
G37*
G36*
X121358760Y-75575380D02*
G01*
X121199850Y-75636100D01*
X121304200Y-75446670D01*
X121358760Y-75575380D01*
G37*
G36*
X121358960Y-91386190D02*
G01*
X121234530Y-91270030D01*
X121294770Y-91198480D01*
X121358960Y-91386190D01*
G37*
G36*
X121430460Y-91301270D02*
G01*
X121358960Y-91386190D01*
X121294770Y-91198480D01*
X121430460Y-91301270D01*
G37*
G36*
X121361910Y-82337090D02*
G01*
X121106400Y-82487020D01*
X121204400Y-82272730D01*
X121361910Y-82337090D01*
G37*
G36*
X121366640Y-82323990D02*
G01*
X121361910Y-82337090D01*
X121204400Y-82272730D01*
X121366640Y-82323990D01*
G37*
G36*
X121269000Y-75899040D02*
G01*
X121199850Y-75636100D01*
X121362710Y-75586940D01*
X121269000Y-75899040D01*
G37*
G36*
X121362710Y-75586940D02*
G01*
X121199850Y-75636100D01*
X121358760Y-75575380D01*
X121362710Y-75586940D01*
G37*
G36*
X121366640Y-82323990D02*
G01*
X121204400Y-82272730D01*
X121400960Y-82197490D01*
X121366640Y-82323990D01*
G37*
G36*
X121548070Y-90917540D02*
G01*
X121378070Y-90913490D01*
X121378400Y-88541480D01*
X121548070Y-90917540D01*
G37*
G36*
X121280130Y-63049700D02*
G01*
X121091830Y-62923150D01*
X121378320Y-62910870D01*
X121280130Y-63049700D01*
G37*
G36*
X121378320Y-62910870D02*
G01*
X121091830Y-62923150D01*
X121183170Y-62779710D01*
X121378320Y-62910870D01*
G37*
G36*
X121384830Y-62915700D02*
G01*
X121280130Y-63049700D01*
X121378320Y-62910870D01*
X121384830Y-62915700D01*
G37*
G36*
X121400960Y-82197490D02*
G01*
X121204400Y-82272730D01*
X121235680Y-82157420D01*
X121400960Y-82197490D01*
G37*
G36*
X121402880Y-82188520D02*
G01*
X121400960Y-82197490D01*
X121235680Y-82157420D01*
X121402880Y-82188520D01*
G37*
G36*
X121402880Y-82188520D02*
G01*
X121235680Y-82157420D01*
X121424100Y-82054380D01*
X121402880Y-82188520D01*
G37*
G36*
X121406630Y-72466320D02*
G01*
X121132210Y-72435890D01*
X121313920Y-72323770D01*
X121406630Y-72466320D01*
G37*
G36*
X121413290Y-72461760D02*
G01*
X121406630Y-72466320D01*
X121313920Y-72323770D01*
X121413290Y-72461760D01*
G37*
G36*
X121589410Y-72328460D02*
G01*
X121413290Y-72461760D01*
X121313920Y-72323770D01*
X121589410Y-72328460D01*
G37*
G36*
X121424100Y-82054380D02*
G01*
X121235680Y-82157420D01*
X121255490Y-82032230D01*
X121424100Y-82054380D01*
G37*
G36*
X121425030Y-82045510D02*
G01*
X121424100Y-82054380D01*
X121255490Y-82032230D01*
X121425030Y-82045510D01*
G37*
G36*
X121425030Y-82045510D02*
G01*
X121255490Y-82032230D01*
X121432380Y-81903960D01*
X121425030Y-82045510D01*
G37*
G36*
X121440260Y-91286860D02*
G01*
X121430460Y-91301270D01*
X121294770Y-91198480D01*
X121440260Y-91286860D01*
G37*
G36*
X121432380Y-81903960D02*
G01*
X121255490Y-82032230D01*
X121262500Y-81897300D01*
X121432380Y-81903960D01*
G37*
G36*
X121432500Y-81899650D02*
G01*
X121432380Y-81903960D01*
X121262500Y-81897300D01*
X121432500Y-81899650D01*
G37*
G36*
X121432500Y-81899650D02*
G01*
X121269000Y-75899040D01*
X121439010Y-75888190D01*
X121432500Y-81899650D01*
G37*
G36*
X121436220Y-75866480D02*
G01*
X121269000Y-75899040D01*
X121362710Y-75586940D01*
X121436220Y-75866480D01*
G37*
G36*
X121298990Y-88274620D02*
G01*
X121242080Y-88203770D01*
X121436580Y-88174450D01*
X121298990Y-88274620D01*
G37*
G36*
X121436580Y-88174450D02*
G01*
X121242080Y-88203770D01*
X121369540Y-88090990D01*
X121436580Y-88174450D01*
G37*
G36*
X121439010Y-75888190D02*
G01*
X121269000Y-75899040D01*
X121436220Y-75866480D01*
X121439010Y-75888190D01*
G37*
G36*
X121440260Y-91286860D02*
G01*
X121294770Y-91198480D01*
X121493390Y-91188300D01*
X121440260Y-91286860D01*
G37*
G36*
X121341760Y-88355300D02*
G01*
X121298990Y-88274620D01*
X121445410Y-88187870D01*
X121341760Y-88355300D01*
G37*
G36*
X121445410Y-88187870D02*
G01*
X121298990Y-88274620D01*
X121436580Y-88174450D01*
X121445410Y-88187870D01*
G37*
G36*
X121493390Y-91188300D02*
G01*
X121294770Y-91198480D01*
X121339640Y-91115240D01*
X121493390Y-91188300D01*
G37*
G36*
X121499980Y-91172390D02*
G01*
X121493390Y-91188300D01*
X121339640Y-91115240D01*
X121499980Y-91172390D01*
G37*
G36*
X121495790Y-88282900D02*
G01*
X121341760Y-88355300D01*
X121445410Y-88187870D01*
X121495790Y-88282900D01*
G37*
G36*
X121499980Y-91172390D02*
G01*
X121339640Y-91115240D01*
X121533080Y-91062090D01*
X121499980Y-91172390D01*
G37*
G36*
X121368640Y-88443510D02*
G01*
X121341760Y-88355300D01*
X121502000Y-88297940D01*
X121368640Y-88443510D01*
G37*
G36*
X121502000Y-88297940D02*
G01*
X121341760Y-88355300D01*
X121495790Y-88282900D01*
X121502000Y-88297940D01*
G37*
G36*
X121533080Y-91062090D02*
G01*
X121339640Y-91115240D01*
X121367840Y-91021270D01*
X121533080Y-91062090D01*
G37*
G36*
X121536290Y-91045700D02*
G01*
X121533080Y-91062090D01*
X121367840Y-91021270D01*
X121536290Y-91045700D01*
G37*
G36*
X121533700Y-88401980D02*
G01*
X121368640Y-88443510D01*
X121502000Y-88297940D01*
X121533700Y-88401980D01*
G37*
G36*
X121536290Y-91045700D02*
G01*
X121367840Y-91021270D01*
X121547690Y-90925560D01*
X121536290Y-91045700D01*
G37*
G36*
X121536970Y-88418320D02*
G01*
X121368640Y-88443510D01*
X121533700Y-88401980D01*
X121536970Y-88418320D01*
G37*
G36*
X121547690Y-90925560D02*
G01*
X121367840Y-91021270D01*
X121378070Y-90913490D01*
X121547690Y-90925560D01*
G37*
G36*
X121548070Y-90917540D02*
G01*
X121547690Y-90925560D01*
X121378070Y-90913490D01*
X121548070Y-90917540D01*
G37*
G36*
X121547980Y-88528830D02*
G01*
X121378400Y-88541480D01*
X121368640Y-88443510D01*
X121547980Y-88528830D01*
G37*
G36*
X121547980Y-88528830D02*
G01*
X121368640Y-88443510D01*
X121536970Y-88418320D01*
X121547980Y-88528830D01*
G37*
G36*
X121548070Y-90917540D02*
G01*
X121378400Y-88541480D01*
X121548400Y-88537270D01*
X121548070Y-90917540D01*
G37*
G36*
X121548400Y-88537270D02*
G01*
X121378400Y-88541480D01*
X121547980Y-88528830D01*
X121548400Y-88537270D01*
G37*
G36*
X121566890Y-63065080D02*
G01*
X121456020Y-63194010D01*
X121280130Y-63049700D01*
X121566890Y-63065080D01*
G37*
G36*
X121566890Y-63065080D02*
G01*
X121280130Y-63049700D01*
X121384830Y-62915700D01*
X121566890Y-63065080D01*
G37*
G36*
X121740560Y-63236250D02*
G01*
X121456020Y-63194010D01*
X121572730Y-63070340D01*
X121740560Y-63236250D01*
G37*
G36*
X121572730Y-63070340D02*
G01*
X121456020Y-63194010D01*
X121566890Y-63065080D01*
X121572730Y-63070340D01*
G37*
G36*
X121589410Y-72328460D02*
G01*
X121313920Y-72323770D01*
X121483630Y-72195320D01*
X121589410Y-72328460D01*
G37*
G36*
X121595540Y-72323350D02*
G01*
X121589410Y-72328460D01*
X121483630Y-72195320D01*
X121595540Y-72323350D01*
G37*
G36*
X121595540Y-72323350D02*
G01*
X121483630Y-72195320D01*
X121758000Y-72174480D01*
X121595540Y-72323350D01*
G37*
G36*
X121740560Y-63236250D02*
G01*
X121618300Y-63354440D01*
X121456020Y-63194010D01*
X121740560Y-63236250D01*
G37*
G36*
X121745780Y-63241900D02*
G01*
X121618300Y-63354440D01*
X121740560Y-63236250D01*
X121745780Y-63241900D01*
G37*
G36*
X121758000Y-72174480D02*
G01*
X121483630Y-72195320D01*
X121640210Y-72051830D01*
X121758000Y-72174480D01*
G37*
G36*
X121763590Y-72168850D02*
G01*
X121758000Y-72174480D01*
X121640210Y-72051830D01*
X121763590Y-72168850D01*
G37*
G36*
X121763590Y-72168850D02*
G01*
X121640210Y-72051830D01*
X121782520Y-71894580D01*
X121763590Y-72168850D01*
G37*
G36*
X121911230Y-72005710D02*
G01*
X121763590Y-72168850D01*
X121782520Y-71894580D01*
X121911230Y-72005710D01*
G37*
G36*
X121809000Y-84850050D02*
G01*
X121808540Y-84841160D01*
X121978540Y-84836770D01*
X121809000Y-84850050D01*
G37*
G36*
X121978540Y-84836770D02*
G01*
X121808540Y-84841160D01*
X121981420Y-75961560D01*
X121978540Y-84836770D01*
G37*
G36*
X121995960Y-85003060D02*
G01*
X121827760Y-85029160D01*
X121809000Y-84850050D01*
X121995960Y-85003060D01*
G37*
G36*
X121995960Y-85003060D02*
G01*
X121809000Y-84850050D01*
X121978540Y-84836770D01*
X121995960Y-85003060D01*
G37*
G36*
X121981420Y-75961560D02*
G01*
X121808540Y-84841160D01*
X121811420Y-75954990D01*
X121981420Y-75961560D01*
G37*
G36*
X121981420Y-75961560D02*
G01*
X121811420Y-75954990D01*
X121812420Y-75942030D01*
X121981420Y-75961560D01*
G37*
G36*
X121981420Y-75961560D02*
G01*
X121812420Y-75942030D01*
X121994680Y-75875780D01*
X121981420Y-75961560D01*
G37*
G36*
X121994680Y-75875780D02*
G01*
X121812420Y-75942030D01*
X121827690Y-75843300D01*
X121994680Y-75875780D01*
G37*
G36*
X121831150Y-85045600D02*
G01*
X121827760Y-85029160D01*
X121995960Y-85003060D01*
X121831150Y-85045600D01*
G37*
G36*
X121994680Y-75875780D02*
G01*
X121827690Y-75843300D01*
X121830690Y-75830520D01*
X121994680Y-75875780D01*
G37*
G36*
X121994680Y-75875780D02*
G01*
X121830690Y-75830520D01*
X122048580Y-75706370D01*
X121994680Y-75875780D01*
G37*
G36*
X121884440Y-85216530D02*
G01*
X121831150Y-85045600D01*
X121995960Y-85003060D01*
X121884440Y-85216530D01*
G37*
G36*
X121890460Y-85230990D02*
G01*
X121884440Y-85216530D01*
X122044400Y-85158430D01*
X121890460Y-85230990D01*
G37*
G36*
X122044400Y-85158430D02*
G01*
X121884440Y-85216530D01*
X121995960Y-85003060D01*
X122044400Y-85158430D01*
G37*
G36*
X122048580Y-75706370D02*
G01*
X121830690Y-75830520D01*
X121889230Y-75646500D01*
X122048580Y-75706370D01*
G37*
G36*
X121974000Y-85388860D02*
G01*
X121890460Y-85230990D01*
X122044400Y-85158430D01*
X121974000Y-85388860D01*
G37*
G36*
X122048580Y-75706370D02*
G01*
X121889230Y-75646500D01*
X121896170Y-75630560D01*
X122048580Y-75706370D01*
G37*
G36*
X121898190Y-63422640D02*
G01*
X121765780Y-63529330D01*
X121618300Y-63354440D01*
X121898190Y-63422640D01*
G37*
G36*
X121898190Y-63422640D02*
G01*
X121618300Y-63354440D01*
X121745780Y-63241900D01*
X121898190Y-63422640D01*
G37*
G36*
X121902830Y-63428660D02*
G01*
X121765780Y-63529330D01*
X121898190Y-63422640D01*
X121902830Y-63428660D01*
G37*
G36*
X121916280Y-71999570D02*
G01*
X121911230Y-72005710D01*
X121782520Y-71894580D01*
X121916280Y-71999570D01*
G37*
G36*
X121916280Y-71999570D02*
G01*
X121782520Y-71894580D01*
X121909420Y-71724880D01*
X121916280Y-71999570D01*
G37*
G36*
X122047960Y-71823490D02*
G01*
X121916280Y-71999570D01*
X121909420Y-71724880D01*
X122047960Y-71823490D01*
G37*
G36*
X121982180Y-85401480D02*
G01*
X121974000Y-85388860D01*
X122120730Y-85302680D01*
X121982180Y-85401480D01*
G37*
G36*
X122120730Y-85302680D02*
G01*
X121974000Y-85388860D01*
X122044400Y-85158430D01*
X122120730Y-85302680D01*
G37*
G36*
X122220900Y-85430730D02*
G01*
X121982180Y-85401480D01*
X122120730Y-85302680D01*
X122220900Y-85430730D01*
G37*
G36*
X122048580Y-75706370D02*
G01*
X121896170Y-75630560D01*
X121988360Y-75466870D01*
X122048580Y-75706370D01*
G37*
G36*
X122132300Y-75557720D02*
G01*
X122048580Y-75706370D01*
X121988360Y-75466870D01*
X122132300Y-75557720D01*
G37*
G36*
X122132300Y-75557720D02*
G01*
X121988360Y-75466870D01*
X121998110Y-75453000D01*
X122132300Y-75557720D01*
G37*
G36*
X122038680Y-63622530D02*
G01*
X121897280Y-63716990D01*
X121765780Y-63529330D01*
X122038680Y-63622530D01*
G37*
G36*
X122038680Y-63622530D02*
G01*
X121765780Y-63529330D01*
X121902830Y-63428660D01*
X122038680Y-63622530D01*
G37*
G36*
X122011620Y-63915710D02*
G01*
X121897280Y-63716990D01*
X122042740Y-63628920D01*
X122011620Y-63915710D01*
G37*
G36*
X122042740Y-63628920D02*
G01*
X121897280Y-63716990D01*
X122038680Y-63622530D01*
X122042740Y-63628920D01*
G37*
G36*
X122052450Y-71816870D02*
G01*
X122047960Y-71823490D01*
X121909420Y-71724880D01*
X122052450Y-71816870D01*
G37*
G36*
X122052450Y-71816870D02*
G01*
X121909420Y-71724880D01*
X122019800Y-71544040D01*
X122052450Y-71816870D01*
G37*
G36*
X122167020Y-71629150D02*
G01*
X122052450Y-71816870D01*
X122019800Y-71544040D01*
X122167020Y-71629150D01*
G37*
G36*
X122101990Y-85552460D02*
G01*
X122091680Y-85541440D01*
X122220900Y-85430730D01*
X122101990Y-85552460D01*
G37*
G36*
X122220900Y-85430730D02*
G01*
X122091680Y-85541440D01*
X121982180Y-85401480D01*
X122220900Y-85430730D01*
G37*
G36*
X122233150Y-85669630D02*
G01*
X122101990Y-85552460D01*
X122340470Y-85537550D01*
X122233150Y-85669630D01*
G37*
G36*
X122340470Y-85537550D02*
G01*
X122101990Y-85552460D01*
X122220900Y-85430730D01*
X122340470Y-85537550D01*
G37*
G36*
X122132300Y-75557720D02*
G01*
X121998110Y-75453000D01*
X122119520Y-75312540D01*
X122132300Y-75557720D01*
G37*
G36*
X122242720Y-75429980D02*
G01*
X122132300Y-75557720D01*
X122119520Y-75312540D01*
X122242720Y-75429980D01*
G37*
G36*
X122242720Y-75429980D02*
G01*
X122119520Y-75312540D01*
X122131460Y-75301180D01*
X122242720Y-75429980D01*
G37*
G36*
X122160870Y-63834240D02*
G01*
X122011620Y-63915710D01*
X122042740Y-63628920D01*
X122160870Y-63834240D01*
G37*
G36*
X122107640Y-64123780D02*
G01*
X122011620Y-63915710D01*
X122164380Y-63841010D01*
X122107640Y-64123780D01*
G37*
G36*
X122164380Y-63841010D02*
G01*
X122011620Y-63915710D01*
X122160870Y-63834240D01*
X122164380Y-63841010D01*
G37*
G36*
X122170900Y-71622040D02*
G01*
X122167020Y-71629150D01*
X122019800Y-71544040D01*
X122170900Y-71622040D01*
G37*
G36*
X122170900Y-71622040D02*
G01*
X122019800Y-71544040D01*
X122112540Y-71353360D01*
X122170900Y-71622040D01*
G37*
G36*
X122267220Y-71424010D02*
G01*
X122170900Y-71622040D01*
X122112540Y-71353360D01*
X122267220Y-71424010D01*
G37*
G36*
X122245900Y-85679040D02*
G01*
X122233150Y-85669630D01*
X122340470Y-85537550D01*
X122245900Y-85679040D01*
G37*
G36*
X122394420Y-85768560D02*
G01*
X122245900Y-85679040D01*
X122474750Y-85618480D01*
X122394420Y-85768560D01*
G37*
G36*
X122474750Y-85618480D02*
G01*
X122245900Y-85679040D01*
X122340470Y-85537550D01*
X122474750Y-85618480D01*
G37*
G36*
X122263620Y-64056070D02*
G01*
X122107640Y-64123780D01*
X122164380Y-63841010D01*
X122263620Y-64056070D01*
G37*
G36*
X122184210Y-64339480D02*
G01*
X122107640Y-64123780D01*
X122266550Y-64063250D01*
X122184210Y-64339480D01*
G37*
G36*
X122266550Y-64063250D02*
G01*
X122107640Y-64123780D01*
X122263620Y-64056070D01*
X122266550Y-64063250D01*
G37*
G36*
X122270460Y-71416440D02*
G01*
X122267220Y-71424010D01*
X122112540Y-71353360D01*
X122270460Y-71416440D01*
G37*
G36*
X122270460Y-71416440D02*
G01*
X122112540Y-71353360D01*
X122186560Y-71154150D01*
X122270460Y-71416440D01*
G37*
G36*
X122347380Y-71209410D02*
G01*
X122270460Y-71416440D01*
X122186560Y-71154150D01*
X122347380Y-71209410D01*
G37*
G36*
X122242720Y-75429980D02*
G01*
X122131460Y-75301180D01*
X122277640Y-75186830D01*
X122242720Y-75429980D01*
G37*
G36*
X122375990Y-75325730D02*
G01*
X122242720Y-75429980D01*
X122277640Y-75186830D01*
X122375990Y-75325730D01*
G37*
G36*
X122455580Y-70517900D02*
G01*
X122285580Y-70515660D01*
X122456400Y-65015470D01*
X122455580Y-70517900D01*
G37*
G36*
X122285580Y-70515660D02*
G01*
X122286400Y-65017620D01*
X122456400Y-65015470D01*
X122285580Y-70515660D01*
G37*
G36*
X122375990Y-75325730D02*
G01*
X122277640Y-75186830D01*
X122291240Y-75178140D01*
X122375990Y-75325730D01*
G37*
G36*
X122345750Y-64286360D02*
G01*
X122184210Y-64339480D01*
X122266550Y-64063250D01*
X122345750Y-64286360D01*
G37*
G36*
X122349910Y-71201390D02*
G01*
X122347380Y-71209410D01*
X122186560Y-71154150D01*
X122349910Y-71201390D01*
G37*
G36*
X122240230Y-64561110D02*
G01*
X122184210Y-64339480D01*
X122348060Y-64293970D01*
X122240230Y-64561110D01*
G37*
G36*
X122348060Y-64293970D02*
G01*
X122184210Y-64339480D01*
X122345750Y-64286360D01*
X122348060Y-64293970D01*
G37*
G36*
X122349910Y-71201390D02*
G01*
X122186560Y-71154150D01*
X122240760Y-70947670D01*
X122349910Y-71201390D01*
G37*
G36*
X122406280Y-70986680D02*
G01*
X122349910Y-71201390D01*
X122240760Y-70947670D01*
X122406280Y-70986680D01*
G37*
G36*
X122410030Y-85775920D02*
G01*
X122394420Y-85768560D01*
X122474750Y-85618480D01*
X122410030Y-85775920D01*
G37*
G36*
X122406060Y-64523430D02*
G01*
X122240230Y-64561110D01*
X122348060Y-64293970D01*
X122406060Y-64523430D01*
G37*
G36*
X122408040Y-70978260D02*
G01*
X122406280Y-70986680D01*
X122240760Y-70947670D01*
X122408040Y-70978260D01*
G37*
G36*
X122274620Y-64786960D02*
G01*
X122240230Y-64561110D01*
X122407680Y-64531470D01*
X122274620Y-64786960D01*
G37*
G36*
X122407680Y-64531470D02*
G01*
X122240230Y-64561110D01*
X122406060Y-64523430D01*
X122407680Y-64531470D01*
G37*
G36*
X122408040Y-70978260D02*
G01*
X122240760Y-70947670D01*
X122274090Y-70735180D01*
X122408040Y-70978260D01*
G37*
G36*
X122442720Y-70757190D02*
G01*
X122408040Y-70978260D01*
X122274090Y-70735180D01*
X122442720Y-70757190D01*
G37*
G36*
X122571630Y-85832910D02*
G01*
X122410030Y-85775920D01*
X122619140Y-85669410D01*
X122571630Y-85832910D01*
G37*
G36*
X122619140Y-85669410D02*
G01*
X122410030Y-85775920D01*
X122474750Y-85618480D01*
X122619140Y-85669410D01*
G37*
G36*
X122443630Y-70748460D02*
G01*
X122442720Y-70757190D01*
X122274090Y-70735180D01*
X122443630Y-70748460D01*
G37*
G36*
X122443320Y-64765580D02*
G01*
X122274620Y-64786960D01*
X122407680Y-64531470D01*
X122443320Y-64765580D01*
G37*
G36*
X122443630Y-70748460D02*
G01*
X122274090Y-70735180D01*
X122455460Y-70522330D01*
X122443630Y-70748460D01*
G37*
G36*
X122444180Y-64774040D02*
G01*
X122274620Y-64786960D01*
X122443320Y-64765580D01*
X122444180Y-64774040D01*
G37*
G36*
X122455460Y-70522330D02*
G01*
X122274090Y-70735180D01*
X122285580Y-70515660D01*
X122455460Y-70522330D01*
G37*
G36*
X122455580Y-70517900D02*
G01*
X122455460Y-70522330D01*
X122285580Y-70515660D01*
X122455580Y-70517900D01*
G37*
G36*
X122456290Y-65011120D02*
G01*
X122286400Y-65017620D01*
X122274620Y-64786960D01*
X122456290Y-65011120D01*
G37*
G36*
X122456290Y-65011120D02*
G01*
X122274620Y-64786960D01*
X122444180Y-64774040D01*
X122456290Y-65011120D01*
G37*
G36*
X122456400Y-65015470D02*
G01*
X122286400Y-65017620D01*
X122456290Y-65011120D01*
X122456400Y-65015470D01*
G37*
G36*
X122375990Y-75325730D02*
G01*
X122291240Y-75178140D01*
X122457760Y-75092790D01*
X122375990Y-75325730D01*
G37*
G36*
X122528140Y-75247750D02*
G01*
X122375990Y-75325730D01*
X122457760Y-75092790D01*
X122528140Y-75247750D01*
G37*
G36*
X122528140Y-75247750D02*
G01*
X122457760Y-75092790D01*
X122472630Y-75086870D01*
X122528140Y-75247750D01*
G37*
G36*
X122695120Y-75198820D02*
G01*
X122528140Y-75247750D01*
X122472630Y-75086870D01*
X122695120Y-75198820D01*
G37*
G36*
X122590190Y-85837200D02*
G01*
X122571630Y-85832910D01*
X122619140Y-85669410D01*
X122590190Y-85837200D01*
G37*
G36*
X122760580Y-85856800D02*
G01*
X122590190Y-85837200D01*
X122619140Y-85669410D01*
X122760580Y-85856800D01*
G37*
G36*
X122695120Y-75198820D02*
G01*
X122472630Y-75086870D01*
X122655050Y-75033420D01*
X122695120Y-75198820D01*
G37*
G36*
X122695120Y-75198820D02*
G01*
X122655050Y-75033420D01*
X122670810Y-75030380D01*
X122695120Y-75198820D01*
G37*
G36*
X122770650Y-85857360D02*
G01*
X122760580Y-85856800D01*
X122775000Y-85687340D01*
X122770650Y-85857360D01*
G37*
G36*
X122775000Y-85687340D02*
G01*
X122760580Y-85856800D01*
X122619140Y-85669410D01*
X122775000Y-85687340D01*
G37*
G36*
X125136650Y-85847630D02*
G01*
X122770650Y-85857360D01*
X122775000Y-85687340D01*
X125136650Y-85847630D01*
G37*
G36*
X122695120Y-75198820D02*
G01*
X122670810Y-75030380D01*
X122864700Y-75011710D01*
X122695120Y-75198820D01*
G37*
G36*
X122876990Y-75181320D02*
G01*
X122695120Y-75198820D01*
X122864700Y-75011710D01*
X122876990Y-75181320D01*
G37*
G36*
X122876990Y-75181320D02*
G01*
X122864700Y-75011710D01*
X122872710Y-75011320D01*
X122876990Y-75181320D01*
G37*
G36*
X122876990Y-75181320D02*
G01*
X122872710Y-75011320D01*
X124967260Y-75008030D01*
X122876990Y-75181320D01*
G37*
G36*
X124963670Y-75178030D02*
G01*
X122876990Y-75181320D01*
X124967260Y-75008030D01*
X124963670Y-75178030D01*
G37*
G36*
X125143760Y-75194150D02*
G01*
X124963670Y-75178030D01*
X124974970Y-75008360D01*
X125143760Y-75194150D01*
G37*
G36*
X124974970Y-75008360D02*
G01*
X124963670Y-75178030D01*
X124967260Y-75008030D01*
X124974970Y-75008360D01*
G37*
G36*
X125136650Y-85847630D02*
G01*
X122775000Y-85687340D01*
X125133320Y-85677640D01*
X125136650Y-85847630D01*
G37*
G36*
X125141920Y-85847450D02*
G01*
X125136650Y-85847630D01*
X125133320Y-85677640D01*
X125141920Y-85847450D01*
G37*
G36*
X125141920Y-85847450D02*
G01*
X125133320Y-85677640D01*
X125220460Y-85671870D01*
X125141920Y-85847450D01*
G37*
G36*
X125239830Y-85840960D02*
G01*
X125141920Y-85847450D01*
X125220460Y-85671870D01*
X125239830Y-85840960D01*
G37*
G36*
X125166560Y-75025510D02*
G01*
X125143760Y-75194150D01*
X124974970Y-75008360D01*
X125166560Y-75025510D01*
G37*
G36*
X125181600Y-75028240D02*
G01*
X125143760Y-75194150D01*
X125166560Y-75025510D01*
X125181600Y-75028240D01*
G37*
G36*
X125255850Y-85838340D02*
G01*
X125239830Y-85840960D01*
X125220460Y-85671870D01*
X125255850Y-85838340D01*
G37*
G36*
X125255850Y-85838340D02*
G01*
X125220460Y-85671870D01*
X125382980Y-85629090D01*
X125255850Y-85838340D01*
G37*
G36*
X125434180Y-85791400D02*
G01*
X125255850Y-85838340D01*
X125382980Y-85629090D01*
X125434180Y-85791400D01*
G37*
G36*
X125311540Y-75240460D02*
G01*
X125143760Y-75194150D01*
X125364140Y-75078620D01*
X125311540Y-75240460D01*
G37*
G36*
X125364140Y-75078620D02*
G01*
X125143760Y-75194150D01*
X125181600Y-75028240D01*
X125364140Y-75078620D01*
G37*
G36*
X125466020Y-75314850D02*
G01*
X125311540Y-75240460D01*
X125378400Y-75083970D01*
X125466020Y-75314850D01*
G37*
G36*
X125378400Y-75083970D02*
G01*
X125311540Y-75240460D01*
X125364140Y-75078620D01*
X125378400Y-75083970D01*
G37*
G36*
X125449490Y-85785750D02*
G01*
X125434180Y-85791400D01*
X125382980Y-85629090D01*
X125449490Y-85785750D01*
G37*
G36*
X125529770Y-85747000D02*
G01*
X125449490Y-85785750D01*
X125382980Y-85629090D01*
X125529770Y-85747000D01*
G37*
G36*
X125529770Y-85747000D02*
G01*
X125382980Y-85629090D01*
X125448960Y-85597240D01*
X125529770Y-85747000D01*
G37*
G36*
X125542880Y-85739140D02*
G01*
X125529770Y-85747000D01*
X125448960Y-85597240D01*
X125542880Y-85739140D01*
G37*
G36*
X125542880Y-85739140D02*
G01*
X125448960Y-85597240D01*
X125577700Y-85503410D01*
X125542880Y-85739140D01*
G37*
G36*
X125685310Y-85635340D02*
G01*
X125542880Y-85739140D01*
X125577700Y-85503410D01*
X125685310Y-85635340D01*
G37*
G36*
X125546820Y-75165070D02*
G01*
X125466020Y-75314850D01*
X125378400Y-75083970D01*
X125546820Y-75165070D01*
G37*
G36*
X125602330Y-75414700D02*
G01*
X125466020Y-75314850D01*
X125560170Y-75173090D01*
X125602330Y-75414700D01*
G37*
G36*
X125560170Y-75173090D02*
G01*
X125466020Y-75314850D01*
X125546820Y-75165070D01*
X125560170Y-75173090D01*
G37*
G36*
X125698920Y-85622960D02*
G01*
X125685310Y-85635340D01*
X125577700Y-85503410D01*
X125698920Y-85622960D01*
G37*
G36*
X125698920Y-85622960D02*
G01*
X125577700Y-85503410D01*
X125816700Y-85489780D01*
X125698920Y-85622960D01*
G37*
G36*
X125709390Y-75282390D02*
G01*
X125602330Y-75414700D01*
X125560170Y-75173090D01*
X125709390Y-75282390D01*
G37*
G36*
X125715810Y-75537320D02*
G01*
X125602330Y-75414700D01*
X125721540Y-75293230D01*
X125715810Y-75537320D01*
G37*
G36*
X125721540Y-75293230D02*
G01*
X125602330Y-75414700D01*
X125709390Y-75282390D01*
X125721540Y-75293230D01*
G37*
G36*
X125846470Y-75428220D02*
G01*
X125715810Y-75537320D01*
X125721540Y-75293230D01*
X125846470Y-75428220D01*
G37*
G36*
X125816700Y-85489780D02*
G01*
X125577700Y-85503410D01*
X125684050Y-85383150D01*
X125816700Y-85489780D01*
G37*
G36*
X125826100Y-85476890D02*
G01*
X125816700Y-85489780D01*
X125684050Y-85383150D01*
X125826100Y-85476890D01*
G37*
G36*
X125826100Y-85476890D02*
G01*
X125684050Y-85383150D01*
X125918670Y-85321140D01*
X125826100Y-85476890D01*
G37*
G36*
X125802150Y-75680250D02*
G01*
X125715810Y-75537320D01*
X125856840Y-75442000D01*
X125802150Y-75680250D01*
G37*
G36*
X125856840Y-75442000D02*
G01*
X125715810Y-75537320D01*
X125846470Y-75428220D01*
X125856840Y-75442000D01*
G37*
G36*
X126046780Y-76010660D02*
G01*
X125877290Y-76024570D01*
X125857260Y-75841530D01*
X126046780Y-76010660D01*
G37*
G36*
X126047290Y-76019870D02*
G01*
X125877290Y-76024570D01*
X126046780Y-76010660D01*
X126047290Y-76019870D01*
G37*
G36*
X125918670Y-85321140D02*
G01*
X125684050Y-85383150D01*
X125768950Y-85240320D01*
X125918670Y-85321140D01*
G37*
G36*
X125924810Y-85308560D02*
G01*
X125918670Y-85321140D01*
X125768950Y-85240320D01*
X125924810Y-85308560D01*
G37*
G36*
X125924810Y-85308560D02*
G01*
X125768950Y-85240320D01*
X125991610Y-85137050D01*
X125924810Y-85308560D01*
G37*
G36*
X125952390Y-75600170D02*
G01*
X125802150Y-75680250D01*
X125856840Y-75442000D01*
X125952390Y-75600170D01*
G37*
G36*
X125857260Y-75841530D02*
G01*
X125802150Y-75680250D01*
X125960070Y-75616640D01*
X125857260Y-75841530D01*
G37*
G36*
X125960070Y-75616640D02*
G01*
X125802150Y-75680250D01*
X125952390Y-75600170D01*
X125960070Y-75616640D01*
G37*
G36*
X125991610Y-85137050D02*
G01*
X125768950Y-85240320D01*
X125830870Y-85081340D01*
X125991610Y-85137050D01*
G37*
G36*
X125995340Y-85124800D02*
G01*
X125991610Y-85137050D01*
X125830870Y-85081340D01*
X125995340Y-85124800D01*
G37*
G36*
X125995340Y-85124800D02*
G01*
X125830870Y-85081340D01*
X126035800Y-84944350D01*
X125995340Y-85124800D01*
G37*
G36*
X126021170Y-75795460D02*
G01*
X125857260Y-75841530D01*
X125960070Y-75616640D01*
X126021170Y-75795460D01*
G37*
G36*
X126025230Y-75813700D02*
G01*
X125857260Y-75841530D01*
X126021170Y-75795460D01*
X126025230Y-75813700D01*
G37*
G36*
X126035800Y-84944350D02*
G01*
X125830870Y-85081340D01*
X125868550Y-84913240D01*
X126035800Y-84944350D01*
G37*
G36*
X126037630Y-84932040D02*
G01*
X126035800Y-84944350D01*
X125868550Y-84913240D01*
X126037630Y-84932040D01*
G37*
G36*
X126037630Y-84932040D02*
G01*
X125868550Y-84913240D01*
X126051180Y-84749470D01*
X126037630Y-84932040D01*
G37*
G36*
X126046780Y-76010660D02*
G01*
X125857260Y-75841530D01*
X126025230Y-75813700D01*
X126046780Y-76010660D01*
G37*
G36*
X126051180Y-84749470D02*
G01*
X125868550Y-84913240D01*
X125881410Y-84740050D01*
X126051180Y-84749470D01*
G37*
G36*
X126051410Y-84743140D02*
G01*
X126051180Y-84749470D01*
X125881410Y-84740050D01*
X126051410Y-84743140D01*
G37*
G36*
X126051410Y-84743140D02*
G01*
X125881410Y-84740050D01*
X125877290Y-76024570D01*
X126051410Y-84743140D01*
G37*
G36*
X126051410Y-84743140D02*
G01*
X125877290Y-76024570D01*
X126047290Y-76019870D01*
X126051410Y-84743140D01*
G37*
%TO.C,C1*%
D13*
X105490000Y-77140580D02*
X105490000Y-76859420D01*
X106510000Y-77140580D02*
X106510000Y-76859420D01*
%TO.C,D2*%
X116875000Y-67204000D02*
X116875000Y-68674000D01*
X116875000Y-68674000D02*
X119160000Y-68674000D01*
X119160000Y-67204000D02*
X116875000Y-67204000D01*
%TD*%
%LPC*%
D15*
%TO.C,R3*%
X124000000Y-76175000D03*
X124000000Y-77825000D03*
%TD*%
D16*
%TO.C,R1*%
X112675000Y-74000000D03*
X114325000Y-74000000D03*
%TD*%
D17*
%TO.C,U1*%
X112137500Y-78025000D03*
X112137500Y-78675000D03*
X112137500Y-79325000D03*
X112137500Y-79975000D03*
X117862500Y-79975000D03*
X117862500Y-79325000D03*
X117862500Y-78675000D03*
X117862500Y-78025000D03*
%TD*%
D18*
%TO.C,D1*%
X110858500Y-67940000D03*
X112433500Y-67940000D03*
%TD*%
D19*
%TO.C,R2*%
X117325000Y-74000000D03*
X115675000Y-74000000D03*
%TD*%
D20*
%TO.C,C1*%
X106000000Y-77775000D03*
X106000000Y-76225000D03*
%TD*%
D18*
%TO.C,D2*%
X117572500Y-67939000D03*
X119147500Y-67939000D03*
%TD*%
%LPD*%
M02*
