%TF.GenerationSoftware,KiCad,Pcbnew,10.0.5*%
%TF.CreationDate,2026-09-10T02:24:27+10:00*%
%TF.ProjectId,NFC_Business_Card,4e46435f-4275-4736-996e-6573735f4361,rev?*%
%TF.SameCoordinates,Original*%
%TF.FileFunction,Copper,L1,Top*%
%TF.FilePolarity,Positive*%
%FSLAX46Y46*%
G04 Gerber Fmt 4.6, Leading zero omitted, Abs format (unit mm)*
G04 Created by KiCad (PCBNEW 10.0.5) date 2026-09-10 02:24:27*
%MOMM*%
%LPD*%
G01*
G04 APERTURE LIST*
G04 Aperture macros list*
%AMRoundRect*
0 Rectangle with rounded corners*
0 $1 Rounding radius*
0 $2 $3 $4 $5 $6 $7 $8 $9 X,Y pos of 4 corners*
0 Add a 4 corners polygon primitive as box body*
4,1,4,$2,$3,$4,$5,$6,$7,$8,$9,$2,$3,0*
0 Add four circle primitives for the rounded corners*
1,1,$1+$1,$2,$3*
1,1,$1+$1,$4,$5*
1,1,$1+$1,$6,$7*
1,1,$1+$1,$8,$9*
0 Add four rect primitives between the rounded corners*
20,1,$1+$1,$2,$3,$4,$5,0*
20,1,$1+$1,$4,$5,$6,$7,0*
20,1,$1+$1,$6,$7,$8,$9,0*
20,1,$1+$1,$8,$9,$2,$3,0*%
%AMFreePoly0*
4,1,684,-1.960982,0.196157,-1.888886,0.166294,-1.833706,0.111114,-1.803843,0.039018,-1.800000,0.000000,-1.800000,-0.600000,34.800000,-0.600000,35.205981,-0.618770,35.608498,-0.674919,36.004117,-0.767968,36.389463,-0.897123,36.761248,-1.061282,37.116301,-1.259045,37.451592,-1.488725,37.764260,-1.748361,38.051639,-2.035740,38.311275,-2.348408,38.540955,-2.683699,38.738718,-3.038752,38.902877,-3.410537,
39.032032,-3.795883,39.125081,-4.191502,39.181230,-4.594019,39.200000,-5.000000,39.200000,-44.600000,39.181230,-45.005981,39.125081,-45.408498,39.032032,-45.804117,38.902877,-46.189463,38.738718,-46.561248,38.540955,-46.916301,38.311275,-47.251592,38.051639,-47.564260,37.764260,-47.851639,37.451592,-48.111275,37.116301,-48.340955,36.761248,-48.538718,36.389463,-48.702877,36.004117,-48.832032,35.608498,-48.925081,
35.205981,-48.981230,34.800000,-49.000000,-34.800000,-49.000000,-35.205981,-48.981230,-35.608498,-48.925081,-36.004117,-48.832032,-36.389463,-48.702877,-36.761248,-48.538718,-37.116301,-48.340955,-37.451592,-48.111275,-37.764260,-47.851639,-38.051639,-47.564260,-38.311275,-47.251592,-38.540955,-46.916301,-38.738718,-46.561248,-38.902877,-46.189463,-39.032032,-45.804117,-39.125081,-45.408498,-39.181230,-45.005981,-39.200000,-44.600000,
-39.200000,-5.000000,-39.181230,-4.594019,-39.125081,-4.191502,-39.032032,-3.795883,-38.902877,-3.410537,-38.738718,-3.038752,-38.540955,-2.683699,-38.311275,-2.348408,-38.051639,-2.035740,-37.764260,-1.748361,-37.451592,-1.488725,-37.116301,-1.259045,-36.761248,-1.061282,-36.389463,-0.897123,-36.004117,-0.767968,-35.608498,-0.674919,-35.205981,-0.618770,-34.800000,-0.600000,-4.000000,-0.600000,-3.960982,-0.603843,
-3.888886,-0.633706,-3.833706,-0.688886,-3.803843,-0.760982,-3.800000,-0.800000,-3.800000,-1.400000,34.800000,-1.400000,35.152862,-1.417335,35.502325,-1.469173,35.845025,-1.555015,36.177660,-1.674034,36.497028,-1.825084,36.800053,-2.006709,37.083816,-2.217162,37.345584,-2.454416,37.582838,-2.716184,37.793291,-2.999947,37.974916,-3.302972,38.125966,-3.622340,38.244985,-3.954975,38.330827,-4.297675,
38.382665,-4.647138,38.400000,-5.000000,38.400000,-44.600000,38.382665,-44.952862,38.330827,-45.302325,38.244985,-45.645025,38.125966,-45.977660,37.974916,-46.297028,37.793291,-46.600053,37.582838,-46.883816,37.345584,-47.145584,37.083816,-47.382838,36.800053,-47.593291,36.497028,-47.774916,36.177660,-47.925966,35.845025,-48.044985,35.502325,-48.130827,35.152862,-48.182665,34.800000,-48.200000,-34.800000,-48.200000,
-35.152862,-48.182665,-35.502325,-48.130827,-35.845025,-48.044985,-36.177660,-47.925966,-36.497028,-47.774916,-36.800053,-47.593291,-37.083816,-47.382838,-37.345584,-47.145584,-37.582838,-46.883816,-37.793291,-46.600053,-37.974916,-46.297028,-38.125966,-45.977660,-38.244985,-45.645025,-38.330827,-45.302325,-38.382665,-44.952862,-38.400000,-44.600000,-38.400000,-5.000000,-38.382665,-4.647138,-38.330827,-4.297675,-38.244985,-3.954975,
-38.125966,-3.622340,-37.974916,-3.302972,-37.793291,-2.999947,-37.582838,-2.716184,-37.345584,-2.454416,-37.083816,-2.217162,-36.800053,-2.006709,-36.497028,-1.825084,-36.177660,-1.674034,-35.845025,-1.555015,-35.502325,-1.469173,-35.152862,-1.417335,-34.800000,-1.400000,-6.000000,-1.400000,-5.960982,-1.403843,-5.888886,-1.433706,-5.833706,-1.488886,-5.803843,-1.560982,-5.800000,-1.600000,-5.800000,-2.200000,
34.800000,-2.200000,35.113500,-2.217606,35.423059,-2.270202,35.724781,-2.357126,36.014875,-2.477287,36.289690,-2.629172,36.545772,-2.810871,36.779899,-3.020101,36.989129,-3.254228,37.170828,-3.510310,37.322713,-3.785125,37.442874,-4.075219,37.529798,-4.376941,37.582394,-4.686500,37.600000,-5.000000,37.600000,-44.600000,37.582394,-44.913500,37.529798,-45.223059,37.442874,-45.524781,37.322713,-45.814875,
37.170828,-46.089690,36.989129,-46.345772,36.779899,-46.579899,36.545772,-46.789129,36.289690,-46.970828,36.014875,-47.122713,35.724781,-47.242874,35.423059,-47.329798,35.113500,-47.382394,34.800000,-47.400000,-34.800000,-47.400000,-35.113500,-47.382394,-35.423059,-47.329798,-35.724781,-47.242874,-36.014875,-47.122713,-36.289690,-46.970828,-36.545772,-46.789129,-36.779899,-46.579899,-36.989129,-46.345772,-37.170828,-46.089690,
-37.322713,-45.814875,-37.442874,-45.524781,-37.529798,-45.223059,-37.582394,-44.913500,-37.600000,-44.600000,-37.600000,-5.000000,-37.591847,-4.854827,-37.200000,-4.854827,-37.200000,-44.745173,-37.165003,-45.033403,-37.095519,-45.315313,-36.992560,-45.586791,-36.857630,-45.843881,-36.692694,-46.082831,-36.500159,-46.300159,-36.282831,-46.492694,-36.043881,-46.657630,-35.786791,-46.792560,-35.515313,-46.895519,-35.233403,-46.965003,
-34.945173,-47.000000,34.945173,-47.000000,35.233403,-46.965003,35.515313,-46.895519,35.786791,-46.792560,36.043881,-46.657630,36.127372,-46.600000,-34.800000,-46.600000,-35.061052,-46.582890,-35.317638,-46.531851,-35.565367,-46.447759,-35.800000,-46.332051,-36.017523,-46.186706,-36.214213,-46.014213,-36.386706,-45.817523,-36.532051,-45.600000,-36.647759,-45.365367,-36.731851,-45.117638,-36.782890,-44.861052,-36.800000,-44.600000,
-36.800000,-5.000000,-36.782890,-4.738948,-36.731851,-4.482362,-36.647759,-4.234633,-36.532051,-4.000000,-36.386706,-3.782477,-36.214213,-3.585787,-36.017523,-3.413294,-35.800000,-3.267949,-35.565367,-3.152241,-35.317638,-3.068149,-35.061052,-3.017110,-34.800000,-3.000000,-10.000000,-3.000000,-9.960982,-3.003843,-9.888886,-3.033706,-9.833706,-3.088886,-9.803843,-3.160982,-9.803843,-3.239018,-9.833706,-3.311114,
-9.888886,-3.366294,-9.960982,-3.396157,-10.000000,-3.400000,-34.914434,-3.400000,-35.140973,-3.432572,-35.360571,-3.497051,-35.568757,-3.592127,-35.761293,-3.715862,-35.934261,-3.865739,-36.084138,-4.038707,-36.207873,-4.231243,-36.302949,-4.439429,-36.367428,-4.659027,-36.400000,-4.885566,-36.400000,-44.714434,-36.367428,-44.940973,-36.302949,-45.160571,-36.207873,-45.368757,-36.084138,-45.561293,-35.934261,-45.734261,
-35.761293,-45.884138,-35.568757,-46.007873,-35.360571,-46.102949,-35.140973,-46.167428,-34.914434,-46.200000,36.400000,-46.200000,36.400000,-4.885566,36.367428,-4.659027,36.302949,-4.439429,36.207873,-4.231243,36.084138,-4.038707,35.934261,-3.865739,35.761293,-3.715862,35.568757,-3.592127,35.360571,-3.497051,35.140973,-3.432572,34.914434,-3.400000,-8.000000,-3.400000,-8.039018,-3.396157,-8.111114,-3.366294,
-8.166294,-3.311114,-8.196157,-3.239018,-8.200000,-3.200000,-8.200000,-2.600000,-34.945173,-2.600000,-35.233403,-2.634997,-35.515313,-2.704481,-35.786791,-2.807440,-36.043881,-2.942370,-36.282831,-3.107306,-36.500159,-3.299841,-36.692694,-3.517169,-36.857630,-3.756119,-36.992560,-4.013209,-37.095519,-4.284687,-37.165003,-4.566597,-37.200000,-4.854827,-37.591847,-4.854827,-37.582394,-4.686500,-37.529798,-4.376941,
-37.442874,-4.075219,-37.322713,-3.785125,-37.170828,-3.510310,-36.989129,-3.254228,-36.779899,-3.020101,-36.545772,-2.810871,-36.289690,-2.629172,-36.014875,-2.477287,-35.724781,-2.357126,-35.423059,-2.270202,-35.113500,-2.217606,-34.800000,-2.200000,-8.000000,-2.200000,-7.960982,-2.203843,-7.888886,-2.233706,-7.833706,-2.288886,-7.803843,-2.360982,-7.800000,-2.400000,-7.800000,-3.000000,34.800000,-3.000000,
35.061052,-3.017110,35.317638,-3.068149,35.565367,-3.152241,35.800000,-3.267949,36.017523,-3.413294,36.214213,-3.585787,36.386706,-3.782477,36.532051,-4.000000,36.647759,-4.234633,36.731851,-4.482362,36.782890,-4.738948,36.800000,-5.000000,36.800000,-45.927372,36.857630,-45.843881,36.992560,-45.586791,37.095519,-45.315313,37.165003,-45.033403,37.200000,-44.745173,37.200000,-4.854827,37.165003,-4.566597,
37.095519,-4.284687,36.992560,-4.013209,36.857630,-3.756119,36.692694,-3.517169,36.500159,-3.299841,36.282831,-3.107306,36.043881,-2.942370,35.786791,-2.807440,35.515313,-2.704481,35.233403,-2.634997,34.945173,-2.600000,-6.000000,-2.600000,-6.039018,-2.596157,-6.111114,-2.566294,-6.166294,-2.511114,-6.196157,-2.439018,-6.200000,-2.400000,-6.200000,-1.800000,-34.967705,-1.800000,-35.301277,-1.835059,
-35.629358,-1.904795,-35.948351,-2.008442,-36.254763,-2.144866,-36.545237,-2.312571,-36.816589,-2.509720,-37.065847,-2.734153,-37.290280,-2.983411,-37.487429,-3.254763,-37.655134,-3.545237,-37.791558,-3.851649,-37.895205,-4.170642,-37.964941,-4.498723,-38.000000,-4.832295,-38.000000,-44.767705,-37.964941,-45.101277,-37.895205,-45.429358,-37.791558,-45.748351,-37.655134,-46.054763,-37.487429,-46.345237,-37.290280,-46.616589,
-37.065847,-46.865847,-36.816589,-47.090280,-36.545237,-47.287429,-36.254763,-47.455134,-35.948351,-47.591558,-35.629358,-47.695205,-35.301277,-47.764941,-34.967705,-47.800000,34.967705,-47.800000,35.301277,-47.764941,35.629358,-47.695205,35.948351,-47.591558,36.254763,-47.455134,36.545237,-47.287429,36.816589,-47.090280,37.065847,-46.865847,37.290280,-46.616589,37.487429,-46.345237,37.655134,-46.054763,37.791558,-45.748351,
37.895205,-45.429358,37.964941,-45.101277,38.000000,-44.767705,38.000000,-4.832295,37.964941,-4.498723,37.895205,-4.170642,37.791558,-3.851649,37.655134,-3.545237,37.487429,-3.254763,37.290280,-2.983411,37.065847,-2.734153,36.816589,-2.509720,36.545237,-2.312571,36.254763,-2.144866,35.948351,-2.008442,35.629358,-1.904795,35.301277,-1.835059,34.967705,-1.800000,-4.000000,-1.800000,-4.039018,-1.796157,
-4.111114,-1.766294,-4.166294,-1.711114,-4.196157,-1.639018,-4.200000,-1.600000,-4.200000,-1.000000,-34.984931,-1.000000,-35.353216,-1.034126,-35.716780,-1.102089,-36.072523,-1.203306,-36.417410,-1.336916,-36.748497,-1.501778,-37.062960,-1.696485,-37.358117,-1.919377,-37.631448,-2.168552,-37.880623,-2.441883,-38.103515,-2.737040,-38.298222,-3.051503,-38.463084,-3.382590,-38.596694,-3.727477,-38.697911,-4.083220,
-38.765874,-4.446784,-38.800000,-4.815069,-38.800000,-44.784931,-38.765874,-45.153216,-38.697911,-45.516780,-38.596694,-45.872523,-38.463084,-46.217410,-38.298222,-46.548497,-38.103515,-46.862960,-37.880623,-47.158117,-37.631448,-47.431448,-37.358117,-47.680623,-37.062960,-47.903515,-36.748497,-48.098222,-36.417410,-48.263084,-36.072523,-48.396694,-35.716780,-48.497911,-35.353216,-48.565874,-34.984931,-48.600000,34.984931,-48.600000,
35.353216,-48.565874,35.716780,-48.497911,36.072523,-48.396694,36.417410,-48.263084,36.748497,-48.098222,37.062960,-47.903515,37.358117,-47.680623,37.631448,-47.431448,37.880623,-47.158117,38.103515,-46.862960,38.298222,-46.548497,38.463084,-46.217410,38.596694,-45.872523,38.697911,-45.516780,38.765874,-45.153216,38.800000,-44.784931,38.800000,-4.815069,38.765874,-4.446784,38.697911,-4.083220,38.596694,-3.727477,
38.463084,-3.382590,38.298222,-3.051503,38.103515,-2.737040,37.880623,-2.441883,37.631448,-2.168552,37.358117,-1.919377,37.062960,-1.696485,36.748497,-1.501778,36.417410,-1.336916,36.072523,-1.203306,35.716780,-1.102089,35.353216,-1.034126,34.984931,-1.000000,-2.000000,-1.000000,-2.039018,-0.996157,-2.111114,-0.966294,-2.166294,-0.911114,-2.196157,-0.839018,-2.200000,-0.800000,-2.200000,-0.200000,
-35.009573,-0.200000,-35.427123,-0.236531,-35.839900,-0.309315,-36.244763,-0.417797,-36.638631,-0.561153,-37.018505,-0.738292,-37.381495,-0.947864,-37.724839,-1.188276,-38.045923,-1.457697,-38.342303,-1.754077,-38.611724,-2.075161,-38.852136,-2.418505,-39.061708,-2.781495,-39.238847,-3.161369,-39.382203,-3.555237,-39.490685,-3.960100,-39.563469,-4.372877,-39.600000,-4.790427,-39.600000,-44.809573,-39.563469,-45.227123,
-39.490685,-45.639900,-39.382203,-46.044763,-39.238847,-46.438631,-39.061708,-46.818505,-38.852136,-47.181495,-38.611724,-47.524839,-38.342303,-47.845923,-38.045923,-48.142303,-37.724839,-48.411724,-37.381495,-48.652136,-37.018505,-48.861708,-36.638631,-49.038847,-36.244763,-49.182203,-35.839900,-49.290685,-35.427123,-49.363469,-35.009573,-49.400000,35.009573,-49.400000,35.427123,-49.363469,35.839900,-49.290685,36.244763,-49.182203,
36.638631,-49.038847,37.018505,-48.861708,37.381495,-48.652136,37.724839,-48.411724,38.045923,-48.142303,38.342303,-47.845923,38.611724,-47.524839,38.852136,-47.181495,39.061708,-46.818505,39.238847,-46.438631,39.382203,-46.044763,39.490685,-45.639900,39.563469,-45.227123,39.600000,-44.809573,39.600000,-4.790427,39.563469,-4.372877,39.490685,-3.960100,39.382203,-3.555237,39.238847,-3.161369,39.061708,-2.781495,
38.852136,-2.418505,38.611724,-2.075161,38.342303,-1.754077,38.045923,-1.457697,37.724839,-1.188276,37.381495,-0.947864,37.018505,-0.738292,36.638631,-0.561153,36.244763,-0.417797,35.839900,-0.309315,35.427123,-0.236531,35.009573,-0.200000,-0.140000,-0.200000,-0.162961,-0.195433,-0.182426,-0.182426,-0.195433,-0.162961,-0.200000,-0.140000,-0.200000,0.140000,-0.195433,0.162961,-0.182426,0.182426,
-0.162961,0.195433,-0.140000,0.200000,34.800000,0.200000,35.229413,0.182239,35.655892,0.129079,36.076525,0.040881,36.488437,-0.081750,36.888816,-0.237979,37.274927,-0.426736,37.644130,-0.646734,37.993906,-0.896469,38.321864,-1.174236,38.625764,-1.478136,38.903531,-1.806094,39.153266,-2.155870,39.373264,-2.525073,39.562021,-2.911184,39.718250,-3.311563,39.840881,-3.723475,39.929079,-4.144108,
39.982239,-4.570587,40.000000,-5.000000,40.000000,-44.600000,39.982239,-45.029413,39.929079,-45.455892,39.840881,-45.876525,39.718250,-46.288437,39.562021,-46.688816,39.373264,-47.074927,39.153266,-47.444130,38.903531,-47.793906,38.625764,-48.121864,38.321864,-48.425764,37.993906,-48.703531,37.644130,-48.953266,37.274927,-49.173264,36.888816,-49.362021,36.488437,-49.518250,36.076525,-49.640881,35.655892,-49.729079,
35.229413,-49.782239,34.800000,-49.800000,-34.800000,-49.800000,-35.229413,-49.782239,-35.655892,-49.729079,-36.076525,-49.640881,-36.488437,-49.518250,-36.888816,-49.362021,-37.274927,-49.173264,-37.644130,-48.953266,-37.993906,-48.703531,-38.321864,-48.425764,-38.625764,-48.121864,-38.903531,-47.793906,-39.153266,-47.444130,-39.373264,-47.074927,-39.562021,-46.688816,-39.718250,-46.288437,-39.840881,-45.876525,-39.929079,-45.455892,
-39.982239,-45.029413,-40.000000,-44.600000,-40.000000,-5.000000,-39.982239,-4.570587,-39.929079,-4.144108,-39.840881,-3.723475,-39.718250,-3.311563,-39.562021,-2.911184,-39.373264,-2.525073,-39.153266,-2.155870,-38.903531,-1.806094,-38.625764,-1.478136,-38.321864,-1.174236,-37.993906,-0.896469,-37.644130,-0.646734,-37.274927,-0.426736,-36.888816,-0.237979,-36.488437,-0.081750,-36.076525,0.040881,-35.655892,0.129079,
-35.229413,0.182239,-34.800000,0.200000,-2.000000,0.200000,-1.960982,0.196157,-1.960982,0.196157,$1*%
G04 Aperture macros list end*
%TA.AperFunction,SMDPad,CuDef*%
%ADD10FreePoly0,180.000000*%
%TD*%
%TA.AperFunction,SMDPad,CuDef*%
%ADD11RoundRect,0.060000X0.140000X0.140000X-0.140000X0.140000X-0.140000X-0.140000X0.140000X-0.140000X0*%
%TD*%
%TA.AperFunction,SMDPad,CuDef*%
%ADD12RoundRect,0.200000X-0.275000X0.200000X-0.275000X-0.200000X0.275000X-0.200000X0.275000X0.200000X0*%
%TD*%
%TA.AperFunction,SMDPad,CuDef*%
%ADD13RoundRect,0.200000X-0.200000X-0.275000X0.200000X-0.275000X0.200000X0.275000X-0.200000X0.275000X0*%
%TD*%
%TA.AperFunction,SMDPad,CuDef*%
%ADD14RoundRect,0.100000X-0.637500X-0.100000X0.637500X-0.100000X0.637500X0.100000X-0.637500X0.100000X0*%
%TD*%
%TA.AperFunction,SMDPad,CuDef*%
%ADD15RoundRect,0.218750X-0.218750X-0.256250X0.218750X-0.256250X0.218750X0.256250X-0.218750X0.256250X0*%
%TD*%
%TA.AperFunction,SMDPad,CuDef*%
%ADD16RoundRect,0.200000X0.200000X0.275000X-0.200000X0.275000X-0.200000X-0.275000X0.200000X-0.275000X0*%
%TD*%
%TA.AperFunction,SMDPad,CuDef*%
%ADD17RoundRect,0.225000X0.250000X-0.225000X0.250000X0.225000X-0.250000X0.225000X-0.250000X-0.225000X0*%
%TD*%
%TA.AperFunction,ViaPad*%
%ADD18C,0.600000*%
%TD*%
%TA.AperFunction,Conductor*%
%ADD19C,0.200000*%
%TD*%
G04 APERTURE END LIST*
D10*
%TO.P,L1,1,1_1*%
%TO.N,Net-(U1-AC1)*%
X92800000Y-101790000D03*
D11*
%TO.P,L1,2,2_2*%
%TO.N,Net-(U1-AC0)*%
X102800000Y-98590000D03*
%TD*%
D12*
%TO.P,R3,1*%
%TO.N,Net-(R1-Pad2)*%
X124000000Y-76175000D03*
%TO.P,R3,2*%
%TO.N,/V_EH*%
X124000000Y-77825000D03*
%TD*%
D13*
%TO.P,R1,1*%
%TO.N,Net-(D1-A)*%
X112675000Y-74000000D03*
%TO.P,R1,2*%
%TO.N,Net-(R1-Pad2)*%
X114325000Y-74000000D03*
%TD*%
D14*
%TO.P,U1,1,V_EH_1*%
%TO.N,/V_EH*%
X112137500Y-78025000D03*
%TO.P,U1,2,AC0_2*%
%TO.N,Net-(U1-AC0)*%
X112137500Y-78675000D03*
%TO.P,U1,3,AC1_3*%
%TO.N,Net-(U1-AC1)*%
X112137500Y-79325000D03*
%TO.P,U1,4,VSS_4*%
%TO.N,GND*%
X112137500Y-79975000D03*
%TO.P,U1,5,SDA_5*%
X117862500Y-79975000D03*
%TO.P,U1,6,SCL_6*%
X117862500Y-79325000D03*
%TO.P,U1,7,GPO(Opendrain)_7*%
%TO.N,unconnected-(U1-GPO(Opendrain)-Pad7)*%
X117862500Y-78675000D03*
%TO.P,U1,8,VCC_8*%
%TO.N,GND*%
X117862500Y-78025000D03*
%TD*%
D15*
%TO.P,D1,1,K_1*%
%TO.N,GND*%
X110858500Y-67940000D03*
%TO.P,D1,2,A_2*%
%TO.N,Net-(D1-A)*%
X112433500Y-67940000D03*
%TD*%
D16*
%TO.P,R2,1*%
%TO.N,Net-(D2-A)*%
X117325000Y-74000000D03*
%TO.P,R2,2*%
%TO.N,Net-(R1-Pad2)*%
X115675000Y-74000000D03*
%TD*%
D17*
%TO.P,C1,1*%
%TO.N,GND*%
X106000000Y-77775000D03*
%TO.P,C1,2*%
%TO.N,/V_EH*%
X106000000Y-76225000D03*
%TD*%
D15*
%TO.P,D2,1,K_1*%
%TO.N,GND*%
X117572500Y-67939000D03*
%TO.P,D2,2,A_2*%
%TO.N,Net-(D2-A)*%
X119147500Y-67939000D03*
%TD*%
D18*
%TO.N,Net-(U1-AC1)*%
X93500000Y-102000000D03*
X109500000Y-80000000D03*
%TO.N,GND*%
X119000000Y-78125000D03*
X118000000Y-80500000D03*
X109500000Y-68000000D03*
X106000000Y-79000000D03*
X116500000Y-68000000D03*
X119000000Y-79500000D03*
X111000000Y-80000000D03*
%TD*%
%TO.N,Net-(U1-AC1)*%
D19*
X93290000Y-101790000D02*
X93500000Y-102000000D01*
X110175000Y-79325000D02*
X109500000Y-80000000D01*
X92800000Y-101790000D02*
X93290000Y-101790000D01*
X112137500Y-79325000D02*
X110175000Y-79325000D01*
%TO.N,Net-(U1-AC0)*%
X112137500Y-78675000D02*
X109325000Y-78675000D01*
X102800000Y-85200000D02*
X102800000Y-98590000D01*
X109325000Y-78675000D02*
X102800000Y-85200000D01*
%TO.N,Net-(R1-Pad2)*%
X124000000Y-76175000D02*
X117850000Y-76175000D01*
X114325000Y-74000000D02*
X115675000Y-74000000D01*
X117850000Y-76175000D02*
X115675000Y-74000000D01*
%TO.N,/V_EH*%
X123700000Y-77525000D02*
X124000000Y-77825000D01*
X112137500Y-78025000D02*
X112637500Y-77525000D01*
X106000000Y-76225000D02*
X110337500Y-76225000D01*
X110337500Y-76225000D02*
X112137500Y-78025000D01*
X112637500Y-77525000D02*
X123700000Y-77525000D01*
%TO.N,Net-(D1-A)*%
X112433500Y-73758500D02*
X112675000Y-74000000D01*
X112433500Y-67940000D02*
X112433500Y-73758500D01*
%TO.N,GND*%
X106000000Y-77775000D02*
X106000000Y-79000000D01*
X112137500Y-79975000D02*
X111025000Y-79975000D01*
X110858500Y-67940000D02*
X109560000Y-67940000D01*
X116561000Y-67939000D02*
X116500000Y-68000000D01*
X117572500Y-67939000D02*
X116561000Y-67939000D01*
X117862500Y-80362500D02*
X118000000Y-80500000D01*
X109560000Y-67940000D02*
X109500000Y-68000000D01*
X117862500Y-78025000D02*
X118900000Y-78025000D01*
X111025000Y-79975000D02*
X111000000Y-80000000D01*
X117862500Y-79325000D02*
X118825000Y-79325000D01*
X119000000Y-79500000D02*
X118825000Y-79325000D01*
X117862500Y-79975000D02*
X117862500Y-80362500D01*
X118900000Y-78025000D02*
X119000000Y-78125000D01*
%TO.N,Net-(D2-A)*%
X119147500Y-72177500D02*
X117325000Y-74000000D01*
X119147500Y-67939000D02*
X119147500Y-72177500D01*
%TD*%
M02*
